<svg width="83" height="44" viewBox="0 0 83 44" fill="none" xmlns="http://www.w3.org/2000/svg">
<g clip-path="url(#clip0_323_10458)">
<path fill-rule="evenodd" clip-rule="evenodd" d="M50.6226 34.1124C45.8866 37.6016 39.0193 39.4653 33.1083 39.4653C24.8178 39.4653 17.3565 36.3972 11.7098 31.3022C11.2659 30.9007 11.6641 30.3556 12.1962 30.6657C18.2899 34.2104 25.8231 36.345 33.6044 36.345C39.2147 36.3189 44.7645 35.183 49.9339 33.0027C50.7369 32.6632 51.4092 33.5249 50.6226 34.1124Z" fill="#FF9900"/>
<path fill-rule="evenodd" clip-rule="evenodd" d="M52.5941 31.8598C51.9903 31.083 48.5893 31.4943 47.065 31.6738C46.5983 31.7293 46.5297 31.3245 46.9475 31.034C49.6566 29.1312 54.0955 29.6795 54.6178 30.316C55.1335 30.959 54.4807 35.4143 51.9381 37.5358C51.5464 37.8622 51.1743 37.6892 51.3473 37.2584C51.9185 35.832 53.2012 32.6334 52.5941 31.8598Z" fill="#FF9900"/>
<path fill-rule="evenodd" clip-rule="evenodd" d="M47.1727 17.5866V15.736C47.1709 15.674 47.1818 15.6124 47.2046 15.5548C47.2273 15.4972 47.2616 15.4448 47.3053 15.4008C47.3489 15.3568 47.4011 15.3222 47.4585 15.299C47.516 15.2759 47.5775 15.2646 47.6395 15.266H55.9332C56.1975 15.266 56.413 15.4585 56.413 15.736V17.3222C56.4097 17.5834 56.1845 17.9359 55.7863 18.4842L51.4909 24.6204C53.087 24.578 54.7712 24.8163 56.2204 25.6323C56.5468 25.8183 56.6349 26.0892 56.661 26.3503V28.3283C56.661 28.5992 56.3607 28.9158 56.0507 28.7526C54.6948 28.0553 53.1918 27.6927 51.6672 27.695C50.1426 27.6972 48.6407 28.0643 47.287 28.7656C46.9997 28.9223 46.6995 28.609 46.6995 28.3413V26.4613C46.6995 26.161 46.6995 25.6453 47.003 25.1884L51.9838 18.0534H47.6493C47.5868 18.0561 47.5244 18.0459 47.4661 18.0235C47.4077 18.0012 47.3545 17.967 47.3098 17.9233C47.2652 17.8795 47.2299 17.8271 47.2064 17.7692C47.1828 17.7113 47.1713 17.6491 47.1727 17.5866ZM16.9159 29.141H14.3962C14.2819 29.1352 14.1735 29.0885 14.0907 29.0094C14.008 28.9303 13.9566 28.8241 13.9457 28.7102V15.7686C13.9457 15.5075 14.1612 15.3051 14.4321 15.3051H16.7821C16.8981 15.3094 17.0085 15.3559 17.0926 15.4358C17.1767 15.5158 17.2288 15.6236 17.2391 15.7392V17.43H17.288C17.9016 15.7947 19.0538 15.0309 20.6075 15.0309C22.1872 15.0309 23.1762 15.7947 23.8845 17.43C24.4948 15.7947 25.882 15.0309 27.3704 15.0309C28.4279 15.0309 29.5833 15.4683 30.2883 16.4475C31.088 17.5344 30.9248 19.1174 30.9248 20.5079V28.6743C30.9214 28.8009 30.868 28.9211 30.7762 29.0086C30.6845 29.096 30.5619 29.1436 30.4352 29.141H27.9154C27.7944 29.1353 27.68 29.084 27.5953 28.9974C27.5105 28.9108 27.4616 28.7954 27.4585 28.6743V21.8069C27.4585 21.2618 27.5107 19.9008 27.3932 19.3818C27.2039 18.5136 26.6392 18.2688 25.9081 18.2688C25.5805 18.2786 25.263 18.3844 24.995 18.5729C24.7269 18.7615 24.5201 19.0246 24.4002 19.3296C24.139 19.9824 24.1652 21.0725 24.1652 21.8102V28.6645C24.1643 28.7273 24.151 28.7894 24.1261 28.8471C24.1012 28.9048 24.065 28.957 24.0198 29.0007C23.9746 29.0444 23.9212 29.0787 23.8627 29.1017C23.8042 29.1246 23.7417 29.1358 23.6788 29.1345H21.1591C21.0378 29.1295 20.923 29.0784 20.838 28.9917C20.7531 28.905 20.7045 28.7891 20.7021 28.6677V21.8069C20.7021 20.3642 20.9404 18.2394 19.1485 18.2394C17.3337 18.2394 17.4055 20.312 17.4055 21.8069V28.6677C17.4021 28.7944 17.3487 28.9146 17.257 29.002C17.1652 29.0895 17.0426 29.1371 16.9159 29.1345V29.141ZM63.5512 15.0244C67.295 15.0244 69.3219 18.2394 69.3219 22.3259C69.3219 26.2752 67.0828 29.4086 63.5512 29.4086C59.876 29.4086 57.8719 26.1937 57.8719 22.1888C57.8719 18.1578 59.8989 15.0244 63.5512 15.0244ZM63.5741 17.6682C61.7136 17.6682 61.5961 20.201 61.5961 21.7808C61.5961 23.3605 61.57 26.742 63.5545 26.742C65.5063 26.742 65.5977 24.0133 65.5977 22.3552C65.5977 21.2618 65.552 19.9562 65.2224 18.9216C64.9384 18.0207 64.3737 17.6682 63.5741 17.6682ZM74.1754 29.1377H71.6621C71.5417 29.1312 71.4281 29.0796 71.344 28.9931C71.26 28.9066 71.2115 28.7916 71.2084 28.671V15.7229C71.2215 15.6046 71.2782 15.4955 71.3676 15.417C71.457 15.3385 71.5726 15.2962 71.6915 15.2986H74.0318C74.1363 15.3025 74.2367 15.3403 74.318 15.4062C74.3992 15.4722 74.4568 15.5627 74.4822 15.6642V17.6421H74.5279C75.2329 15.873 76.2251 15.0309 77.9681 15.0309C79.0974 15.0309 80.2039 15.4357 80.9122 16.5519C81.5715 17.5899 81.5715 19.3328 81.5715 20.5829V28.733C81.5534 28.8483 81.4941 28.9531 81.4047 29.0281C81.3153 29.1031 81.2018 29.1432 81.0851 29.141H78.5556C78.4453 29.1353 78.3405 29.0915 78.2589 29.0171C78.1773 28.9427 78.1242 28.8423 78.1084 28.733V21.7025C78.1084 20.2859 78.2716 18.21 76.5287 18.21C75.915 18.21 75.3537 18.6246 75.0697 19.2512C74.7172 20.0411 74.6682 20.8277 74.6682 21.6992V28.6743C74.6631 28.8004 74.6092 28.9196 74.5179 29.0067C74.4265 29.0938 74.3049 29.1419 74.1786 29.141L74.1754 29.1377ZM40.56 22.9591C40.56 23.9383 40.5861 24.7608 40.0867 25.6323C39.6852 26.3405 39.0488 26.7746 38.3405 26.7746C37.3744 26.7746 36.8064 26.0402 36.8064 24.9468C36.8064 22.8024 38.7322 22.4107 40.56 22.4107V22.9591ZM43.1059 29.1051C43.0245 29.1752 42.9237 29.2187 42.8169 29.2298C42.7101 29.2409 42.6025 29.219 42.5085 29.1671C41.6697 28.4719 41.5196 28.1455 41.0594 27.4829C39.6754 28.8962 38.693 29.3172 36.9011 29.3172C34.7763 29.3172 33.1247 28.0117 33.1247 25.3875C33.1247 23.341 34.2344 21.9473 35.8142 21.2651C37.1851 20.6613 39.0977 20.5568 40.56 20.3904V20.064C40.56 19.4634 40.6057 18.7551 40.2499 18.2361C39.9464 17.7694 39.3556 17.5801 38.8333 17.5801C37.8737 17.5801 37.0186 18.0697 36.8097 19.0946C36.7673 19.323 36.5975 19.545 36.3691 19.5515L33.9211 19.2904C33.7187 19.248 33.487 19.0815 33.5457 18.7649C34.1071 15.7947 36.7901 14.9037 39.1924 14.9037C40.4164 14.9037 42.0222 15.23 42.9916 16.1603C44.2189 17.3027 44.1014 18.8367 44.1014 20.5013V24.4311C44.1014 25.6127 44.5909 26.1284 45.0512 26.7681C45.2144 26.9966 45.247 27.2675 45.0414 27.4372C44.5257 27.8681 43.6118 28.6645 43.1059 29.1116V29.1051ZM7.48312 22.9558C7.48312 23.935 7.50597 24.7575 7.00985 25.629C6.60839 26.3373 5.97518 26.7714 5.26364 26.7714C4.29425 26.7714 3.72958 26.037 3.72958 24.9436C3.72958 22.7991 5.65858 22.4075 7.48312 22.4075V22.9558ZM10.029 29.1018C9.9477 29.1719 9.84687 29.2155 9.74008 29.2266C9.6333 29.2376 9.52567 29.2158 9.4317 29.1638C8.59287 28.4686 8.44273 28.1422 7.98251 27.4796C6.59859 28.8929 5.61941 29.314 3.82424 29.314C1.70267 29.314 0.0478516 28.0084 0.0478516 25.3842C0.0478516 23.3377 1.15759 21.944 2.73734 21.2618C4.1082 20.658 6.02088 20.5535 7.48312 20.3871V20.0607C7.48312 19.4601 7.52882 18.7518 7.17631 18.2329C6.8695 17.7661 6.27873 17.5768 5.75976 17.5768C4.80016 17.5768 3.94174 18.0664 3.72958 19.0913C3.68715 19.3198 3.52069 19.5417 3.29548 19.5483L0.847519 19.2871C0.64189 19.2414 0.413414 19.0782 0.468901 18.7616C1.03356 15.7914 3.71326 14.9004 6.11553 14.9004C7.33951 14.9004 8.94537 15.2268 9.9115 16.157C11.142 17.2994 11.0212 18.8334 11.0212 20.4981V24.4279C11.0212 25.6094 11.5108 26.1251 11.9743 26.7648C12.1375 26.9933 12.1734 27.2642 11.9678 27.4339C11.4521 27.8648 10.5382 28.6612 10.0323 29.1084L10.0257 29.1018" fill="white"/>
</g>
<defs>
<clipPath id="clip0_323_10458">
<rect width="82.0459" height="43.182" fill="white" transform="translate(0.0444336 0.40918)"/>
</clipPath>
</defs>
</svg>
