<svg width="131" height="44" viewBox="0 0 131 44" fill="none" xmlns="http://www.w3.org/2000/svg">
<g clip-path="url(#clip0_323_10463)">
<mask id="mask0_323_10463" style="mask-type:alpha" maskUnits="userSpaceOnUse" x="0" y="15" width="11" height="15">
<path d="M0.590332 15.458H10.8702V29.3946H0.590332V15.458Z" fill="white"/>
</mask>
<g mask="url(#mask0_323_10463)">
<path fill-rule="evenodd" clip-rule="evenodd" d="M10.8702 15.6575V17.4884C10.8702 17.6085 10.7917 17.6879 10.6742 17.6879H2.92475V21.4309H9.32001C9.43747 21.4309 9.51606 21.5104 9.51606 21.6296V23.4614C9.51606 23.5814 9.43833 23.66 9.32001 23.66H2.92475V29.1959C2.92475 29.3151 2.84702 29.3946 2.72871 29.3946H0.786378C0.668923 29.3946 0.590332 29.3151 0.590332 29.1959V15.6566C0.590332 15.5375 0.66806 15.458 0.786378 15.458H10.6742C10.7917 15.458 10.8702 15.5375 10.8702 15.6566" fill="white"/>
</g>
<path fill-rule="evenodd" clip-rule="evenodd" d="M22.5716 23.5029C21.8701 21.5233 21.0946 19.5707 20.2466 17.6492H19.7854C18.9345 19.5703 18.1558 21.5226 17.451 23.5021H22.5716V23.5029ZM26.6808 29.3956H24.5432C24.4249 29.3956 24.3463 29.3351 24.317 29.2159C24.0179 28.0169 23.678 26.8284 23.2979 25.6525H16.7351C16.3532 26.8271 16.0161 28.0157 15.7246 29.2159C15.6952 29.336 15.6167 29.3956 15.4992 29.3956H13.4394C13.3021 29.3956 13.2235 29.3161 13.2624 29.1762C14.4982 24.7371 16.3818 19.8394 18.2844 15.7181C18.3734 15.5289 18.4813 15.459 18.6679 15.459H21.4531C21.6397 15.459 21.7468 15.5289 21.8357 15.7181C23.7582 19.829 25.6124 24.7371 26.8578 29.1762C26.8967 29.3161 26.8181 29.3956 26.6808 29.3956Z" fill="white"/>
<mask id="mask1_323_10463" style="mask-type:alpha" maskUnits="userSpaceOnUse" x="30" y="15" width="13" height="15">
<path d="M30.1924 15.2012H42.8162V29.6551H30.1924V15.2012Z" fill="white"/>
</mask>
<g mask="url(#mask1_323_10463)">
<path fill-rule="evenodd" clip-rule="evenodd" d="M30.1924 22.5482C30.1924 18.2274 32.9975 15.2012 36.9996 15.2012H37.2932C39.8047 15.2012 41.747 16.4949 42.7774 18.3664C42.8464 18.4856 42.8257 18.5849 42.7083 18.6454L40.9818 19.5107C40.8644 19.5712 40.7176 19.5712 40.639 19.4218C39.9135 18.147 38.8245 17.47 37.2155 17.47H36.9219C34.4 17.47 32.6641 19.5012 32.6641 22.448C32.6641 25.4042 34.3707 27.3845 36.9219 27.3845H37.2155C38.8633 27.3845 39.8246 26.8171 40.5604 25.9509C40.658 25.8421 40.7668 25.8214 40.8843 25.8818L42.659 26.7575C42.7281 26.7973 42.7575 26.8474 42.7575 26.8975C42.7575 26.9467 42.7376 26.9864 42.6988 27.046C41.6106 28.6593 39.6484 29.6542 37.2552 29.6542H36.9607C32.8895 29.6542 30.1924 26.8171 30.1924 22.5464" fill="white"/>
</g>
<path fill-rule="evenodd" clip-rule="evenodd" d="M58.4023 27.3651V29.1961C58.4023 29.3161 58.3237 29.3947 58.2063 29.3947H47.9065C47.789 29.3947 47.7104 29.3161 47.7104 29.1961V15.6585C47.7104 15.5393 47.7882 15.4598 47.9065 15.4598H58.0292C58.1467 15.4598 58.2253 15.5393 58.2253 15.6585V17.4894C58.2253 17.6103 58.1475 17.6889 58.0292 17.6889H50.0449V21.3127H56.5386C56.656 21.3127 56.7346 21.3922 56.7346 21.5114V23.3233C56.7346 23.4425 56.6569 23.5219 56.5386 23.5219H50.0449V27.1665H58.2063C58.3237 27.1665 58.4023 27.2451 58.4023 27.3651ZM73.7423 25.3641C73.7423 24.0695 72.8994 23.4822 71.0452 23.4822H66.4247V27.2252H71.0452C72.9279 27.2252 73.7423 26.6682 73.7423 25.3641ZM70.3879 17.6293H66.4255V21.3723H70.3879C72.1636 21.3723 72.9771 20.7851 72.9771 19.5008C72.9771 18.2166 72.1636 17.6293 70.3879 17.6293ZM76.1363 25.5731C76.1363 28.012 74.2916 29.3956 71.0357 29.3956H64.2872C64.1688 29.3956 64.0911 29.3161 64.0911 29.1969V15.6576C64.0911 15.5384 64.1688 15.459 64.2872 15.459H70.4363C73.6058 15.459 75.3314 16.7329 75.3314 19.0621C75.3314 20.5951 74.5662 21.6012 73.0168 22.0676C75.1941 22.5357 76.1363 23.8596 76.1363 25.5722" fill="white"/>
<mask id="mask2_323_10463" style="mask-type:alpha" maskUnits="userSpaceOnUse" x="80" y="15" width="15" height="15">
<path d="M80.2456 15.2012H94.6641V29.6551H80.2465L80.2456 15.2012Z" fill="white"/>
</mask>
<g mask="url(#mask2_323_10463)">
<path fill-rule="evenodd" clip-rule="evenodd" d="M87.6021 27.3854C90.4176 27.3854 92.1923 25.4249 92.1923 22.4281C92.1923 19.4321 90.4167 17.4708 87.6021 17.4708H87.3076C84.4921 17.4708 82.7173 19.4321 82.7173 22.4281C82.7173 25.4249 84.4921 27.3854 87.3076 27.3854H87.6012H87.6021ZM80.2456 22.4281C80.2456 18.2274 82.992 15.2012 87.3076 15.2012H87.6012C91.9177 15.2012 94.6641 18.2274 94.6641 22.4281C94.6641 26.6289 91.9177 29.6551 87.6021 29.6551H87.3076C82.992 29.6551 80.2456 26.6289 80.2456 22.4281Z" fill="white"/>
</g>
<mask id="mask3_323_10463" style="mask-type:alpha" maskUnits="userSpaceOnUse" x="98" y="15" width="16" height="15">
<path d="M98.6465 15.2012H113.066V29.6551H98.6465V15.2012Z" fill="white"/>
</mask>
<g mask="url(#mask3_323_10463)">
<path fill-rule="evenodd" clip-rule="evenodd" d="M106.003 27.3854C108.818 27.3854 110.593 25.4249 110.593 22.4281C110.593 19.4321 108.818 17.4708 106.003 17.4708H105.709C102.894 17.4708 101.118 19.4321 101.118 22.4281C101.118 25.4249 102.894 27.3854 105.708 27.3854H106.003ZM98.6465 22.4281C98.6465 18.2274 101.393 15.2012 105.708 15.2012H106.003C110.319 15.2012 113.066 18.2274 113.066 22.4281C113.066 26.6289 110.319 29.6551 106.003 29.6551H105.709C101.393 29.6551 98.6465 26.6289 98.6465 22.4281Z" fill="white"/>
</g>
<mask id="mask4_323_10463" style="mask-type:alpha" maskUnits="userSpaceOnUse" x="117" y="15" width="14" height="15">
<path d="M117.981 15.458H130.15V29.3946H117.981V15.458Z" fill="white"/>
</mask>
<g mask="url(#mask4_323_10463)">
<path fill-rule="evenodd" clip-rule="evenodd" d="M129.987 29.3947H127.457C127.289 29.3947 127.221 29.355 127.113 29.2254C125.337 27.1052 123.239 24.9944 121.454 23.4416H120.315V29.1952C120.315 29.3152 120.238 29.3938 120.119 29.3938H118.177C118.06 29.3938 117.981 29.3152 117.981 29.1952V15.6576C117.981 15.5384 118.059 15.459 118.177 15.459H120.12C120.237 15.459 120.315 15.5384 120.315 15.6576V21.1521H121.473C123.386 19.4006 125.153 17.5093 126.593 15.6084C126.692 15.4788 126.769 15.459 126.887 15.459H129.281C129.398 15.459 129.457 15.5194 129.457 15.5989C129.457 15.6386 129.438 15.6887 129.388 15.7483C127.28 18.3859 125.191 20.5458 123.258 22.2187C125.722 24.3377 128.009 26.6548 130.095 29.1468C130.202 29.2764 130.144 29.3956 129.987 29.3956" fill="white"/>
</g>
</g>
<defs>
<clipPath id="clip0_323_10463">
<rect width="130.41" height="43.182" fill="white" transform="translate(0.590332 0.40918)"/>
</clipPath>
</defs>
</svg>
