<svg width="507" height="337" viewBox="0 0 507 337" fill="none" xmlns="http://www.w3.org/2000/svg">
<path d="M51.7149 190.032C46.7869 196.368 39.8109 199.536 30.7869 199.536C21.7629 199.536 14.7869 196.368 9.85888 190.032C4.93088 183.632 2.46688 175.088 2.46688 164.4C2.46688 153.712 4.93088 145.2 9.85888 138.864C14.7869 132.464 21.7629 129.264 30.7869 129.264C39.8109 129.264 46.7869 132.464 51.7149 138.864C56.6429 145.2 59.1069 153.712 59.1069 164.4C59.1069 175.088 56.6429 183.632 51.7149 190.032ZM21.6669 164.4C21.6669 175.408 24.7069 180.912 30.7869 180.912C36.8669 180.912 39.9069 175.408 39.9069 164.4C39.9069 153.392 36.8669 147.888 30.7869 147.888C24.7069 147.888 21.6669 153.392 21.6669 164.4ZM95.2366 158.256C99.5886 159.536 103.045 161.776 105.605 164.976C108.229 168.112 109.541 172.08 109.541 176.88C109.541 184.304 107.173 189.936 102.437 193.776C97.7006 197.616 91.7486 199.536 84.5806 199.536C78.6926 199.536 73.5406 198.192 69.1246 195.504C64.7086 192.816 61.5406 188.848 59.6206 183.6L76.5166 173.904C77.8606 178.576 80.5486 180.912 84.5806 180.912C86.3086 180.912 87.6846 180.464 88.7086 179.568C89.7966 178.672 90.3406 177.456 90.3406 175.92C90.3406 172.72 88.4206 171.12 84.5806 171.12H80.4526L72.9646 159.984L81.9886 149.424H61.7326V130.8H105.893V145.584L95.2366 158.256Z" fill="#E2EAF3"/>
<path d="M315.843 216.294C313.865 216.079 311.864 216.275 309.966 216.869C310.879 215.555 311.565 214.097 311.998 212.556H383.765C383.943 212.556 384.117 212.503 384.266 212.405C384.414 212.306 384.53 212.166 384.599 212.002C384.747 211.811 384.689 212.024 384.689 170.406H420.059C420.304 170.404 420.538 170.306 420.711 170.133C420.884 169.96 420.982 169.727 420.985 169.482C420.985 169.482 421.177 160.872 421.213 156.814C436.521 157.307 457.35 154.868 456.204 139.612C455.658 132.374 452.79 124.852 447.432 116.61C446.779 115.603 442.414 109.095 441.208 107.836C442.612 106.673 443.808 105.28 444.745 103.717C447.428 99.2887 444.024 94.2741 439.761 95.2364C440.226 94.1861 440.409 93.0331 440.293 91.8905C440.178 90.7479 439.767 89.655 439.102 88.7191C438.459 87.9268 437.654 87.2807 436.742 86.8239C435.83 86.3671 434.831 86.1101 433.811 86.0699C434.338 85.2708 434.696 84.3718 434.861 83.4288C435.026 82.4858 434.995 81.5189 434.771 80.5881C434.547 79.6573 434.134 78.7826 433.558 78.0181C432.981 77.2537 432.254 76.6159 431.421 76.1444C429.515 75.1228 427.282 74.8995 425.212 75.5233V49.9408C485.519 88.6443 484.915 88.4047 485.221 88.1689C485.362 88.1552 485.497 88.104 485.612 88.0208C485.726 87.9375 485.817 87.8252 485.873 87.6955C492.045 74.0261 495.365 59.2421 495.632 44.2464C495.899 29.2507 493.106 14.3581 487.424 0.477941C487.3 0.26335 487.097 0.10531 486.858 0.0370348C486.62 -0.0312403 486.364 -0.00443415 486.145 0.111819C474.587 5.74741 431.066 31.8187 415.695 41.8995C415.543 41.9992 415.447 42.0452 415.388 42.5053C415.233 43.6995 415.323 47.6808 415.315 62.573C414.84 61.6424 414.029 60.9274 413.046 60.5732C412.063 60.219 410.982 60.252 410.023 60.6657C409.357 61.0937 408.796 61.6647 408.379 62.3372C407.962 63.0097 407.7 63.7667 407.613 64.5531C406.758 69.4507 406.519 78.0574 406.902 90.1414C401.157 84.8472 394.069 81.2316 386.411 79.6887C377.873 77.6907 368.921 78.4607 360.849 81.8873C350.435 86.3747 342.434 92.871 337.255 109.948C334.929 109.994 328.316 110.165 327.247 110.215C325.881 107.495 325.17 104.493 325.171 101.449C324.927 98.1962 324.868 94.9324 324.992 91.6729C325.362 81.3353 322.092 67.852 314.03 62.6842C310.1 60.1635 306.734 60.0753 301.662 60.2267C300.968 60.2497 204.067 60.2766 204.067 60.2766C195.765 60.2766 189.673 62.6056 185.966 67.1945C180.924 73.4244 180.982 82.0024 180.577 89.8328C180.514 91.0346 182.373 91.0596 182.433 89.8577C182.797 82.7653 182.694 75.0978 186.717 69.2552C191.02 63.0043 199.1 62.1072 203.505 62.1436C212.599 62.2011 213.933 61.835 217.598 62.9103C219.678 63.638 221.578 64.8009 223.173 66.3214C224.767 67.842 226.019 69.6851 226.845 71.7279C231.108 80.9002 230.103 91.4429 232.465 101.175C234.401 109.17 240.037 117.947 250.049 118.609C254.49 118.892 258.099 116.441 261.766 114.371C263.435 113.281 265.319 112.562 267.289 112.262C268.176 112.172 269.073 112.273 269.918 112.558C270.763 112.842 271.538 113.304 272.19 113.912C274.814 116.368 275.449 120.514 275.696 123.853C275.955 127.26 275.988 130.844 276.009 133.767H260.319C260.091 133.777 259.874 133.867 259.707 134.022C259.54 134.177 259.433 134.386 259.407 134.613C259.407 134.668 259.395 134.676 259.395 211.414C259.369 211.552 259.374 211.694 259.408 211.831C259.443 211.967 259.506 212.094 259.595 212.204C259.683 212.313 259.794 212.402 259.92 212.464C260.046 212.526 260.184 212.56 260.325 212.564H274.391L237.357 246.28C229.502 241.693 220.353 239.829 211.33 240.978C211.138 223.233 211.433 219.11 209.58 215.271C206.927 209.775 200.57 208.945 195.673 210.985C188.325 214.029 185.738 221.602 183.234 228.926C183.234 228.926 171.714 261.095 171.077 262.855C162.617 275.037 157.559 289.256 156.425 304.045C156.429 304.289 156.528 304.523 156.701 304.696C156.874 304.869 157.108 304.967 157.353 304.971H272.462C272.707 304.968 272.941 304.869 273.115 304.696C273.288 304.523 273.387 304.29 273.39 304.045C273.473 297.416 272.344 288.093 268.932 281.688C283.488 267.626 291.39 259.568 301.344 249.238C309.341 240.936 316.255 233.774 319.851 223.661C320.142 222.917 320.267 222.118 320.216 221.321C320.166 220.524 319.942 219.747 319.561 219.045C319.179 218.344 318.648 217.734 318.006 217.259C317.364 216.783 316.626 216.454 315.843 216.294ZM264.132 135.623H276.037C276.053 137.034 276.114 140.524 276.145 141.92C274.956 141.303 265.627 136.405 264.132 135.623ZM248.469 301.723C249.358 300.914 248.066 299.588 247.173 300.395L244.171 303.123C239.686 303.123 163.59 303.065 158.369 303.102C159.821 284.431 170.567 259.897 186.144 250.942C200.329 242.785 221.175 238.616 235.931 247.581L214.251 267.325C214.079 267.503 213.984 267.741 213.986 267.988C213.988 268.235 214.088 268.471 214.262 268.646C215.539 269.796 248.803 299.672 248.841 299.699C249.018 299.864 249.251 299.955 249.493 299.955C249.734 299.955 249.967 299.864 250.144 299.699C255.458 294.619 265.84 284.675 267.532 283.051C270.266 289.384 271.622 296.226 271.51 303.123H246.93L248.469 301.723ZM216.317 267.937C216.317 267.937 304.001 188.074 305.699 186.564C307.122 185.052 309.04 184.1 311.105 183.88C313.225 183.88 313.897 186.056 313.248 187.905C312.865 189.003 312.357 190.052 311.731 191.032C307.58 197.705 302.468 203.73 296.559 208.912C295.653 209.714 296.912 210.977 297.84 210.254C300.14 208.46 303.307 206.005 306.813 206.641C307.483 206.752 308.119 207.018 308.669 207.417C309.219 207.817 309.669 208.338 309.983 208.941C310.235 209.626 310.35 210.353 310.319 211.082C310.289 211.81 310.115 212.526 309.807 213.187C309.02 214.946 307.983 216.582 306.728 218.044C306.592 218.193 306.508 218.382 306.488 218.583C306.468 218.783 306.513 218.985 306.617 219.158C306.722 219.33 306.879 219.465 307.066 219.54C307.253 219.616 307.459 219.629 307.654 219.578C310.853 218.535 315.845 216.63 317.76 219.561C318.051 220.026 318.241 220.548 318.316 221.093C318.391 221.637 318.35 222.191 318.195 222.718C317.727 224.34 317.094 225.91 316.305 227.403C312.065 235.716 305.998 241.7 299.138 248.843C289.659 258.711 279.394 269.215 249.472 297.757C247.043 295.589 218.955 270.314 216.317 267.937ZM384.367 134.007C383.969 133.65 385.096 133.765 370.236 133.765C370.297 129.495 370.085 125.225 369.6 120.982C369.205 118.174 367.635 111.53 361.595 110.477C356.651 109.617 344.274 109.816 339.212 109.902C343.588 95.8671 350.947 86.0297 366.815 81.7455C372.616 80.3319 378.647 80.1354 384.528 81.1683C390.409 82.2013 396.012 84.4413 400.985 87.7472C407.228 91.8033 411.161 97.6076 413.738 106.569C419.63 127.053 419.653 148.41 419.153 168.545H384.689V134.686C384.684 134.557 384.653 134.43 384.598 134.313C384.542 134.197 384.464 134.093 384.367 134.007ZM370.284 135.623H380.459L370.437 141.743C370.437 141.372 370.413 140.53 370.284 135.623ZM352.791 187.513C357.713 191.346 373.368 203.796 381.293 210.707H312.23C312.214 206.19 307.731 203.819 303.234 205.025C307.124 200.939 310.578 196.459 313.539 191.657C315.207 188.937 315.728 186.748 315.132 184.965C314.775 183.915 314.03 183.042 313.05 182.523C312.07 182.004 310.929 181.879 309.861 182.174C307.613 182.787 305.571 183.991 303.945 185.659L276.432 210.697H262.922C268.241 206.338 289.703 188.283 290.69 187.444C291.612 186.658 290.307 185.335 289.404 186.102C286.82 188.302 264.969 206.612 261.255 209.666V136.227C327.883 171.091 325.987 170.128 326.403 170.288C326.536 170.367 326.688 170.408 326.843 170.406C326.997 170.404 327.149 170.359 327.279 170.276C331.467 167.61 381.285 137.306 382.832 136.361V209.574C375.356 202.997 361.298 191.816 354.06 186.161C353.119 185.423 351.842 186.773 352.791 187.513ZM368.179 125.981C368.227 129.263 368.601 142.658 368.607 142.861C367.441 143.572 329.142 166.902 326.762 168.411L278.018 142.903C277.611 126.37 278.171 120.449 275.457 115.231C274.849 114.066 274.001 113.043 272.97 112.228C365.632 112.145 359.981 111.792 362.377 112.582C367.461 114.231 368.128 122.496 368.179 125.981ZM479.331 30.3619C483.003 34.7727 485.169 40.2419 485.513 45.971C485.205 52.1895 482.987 58.1617 479.16 63.0733C477.63 52.219 477.687 41.1997 479.331 30.3619ZM487.14 42.2963C486.261 36.8337 483.639 31.8019 479.664 27.9524C480.864 19.4633 483.185 11.1709 486.565 3.2919C496.627 29.6433 496.106 58.865 485.112 84.8412C482.685 78.6065 480.83 72.1643 479.569 65.594C484.152 60.035 488.53 51.0258 487.14 42.2963ZM476.147 47.3435C476.051 60.2047 478.431 72.9643 483.159 84.9256L424.752 47.4374C424.542 47.3149 424.292 47.28 424.056 47.3402C423.821 47.4005 423.618 47.5511 423.493 47.7594C423.301 47.9511 423.351 47.6003 423.351 76.2594C422.986 76.4511 417.353 80.5149 417.159 80.6567C417.159 76.2613 417.159 46.8527 417.159 43.1704C429.293 36.1106 473.879 8.20867 484.738 2.86252C479.063 17.0057 476.147 32.1042 476.147 47.3435ZM429.644 111.806C428.464 112.102 427.223 112.055 426.069 111.672C425.488 111.467 424.999 111.064 424.687 110.533C424.375 110.002 424.261 109.378 424.365 108.771C424.847 107.092 425.917 105.641 427.38 104.685C430.531 102.131 429.722 102.82 437.856 98.0408C438.486 97.5254 439.246 97.1953 440.053 97.0874C440.86 96.9794 441.68 97.0978 442.424 97.4293C447.946 102.022 436.671 110.121 429.644 111.806ZM436.771 96.5245C435.883 97.044 430.957 99.8695 429.416 100.816C427.738 101.855 425.898 102.605 423.972 103.036C422.383 103.397 420.585 103.812 419.389 102.636C418.511 101.604 418.052 100.281 418.101 98.9269C418.151 97.5733 418.706 96.2873 419.657 95.3227C423.516 91.2551 427.087 90.5784 431.223 88.3625C432.304 87.7757 433.564 87.6115 434.76 87.9017C435.955 88.192 436.999 88.9159 437.691 89.9331C438.382 90.9503 438.671 92.188 438.501 93.4061C438.331 94.6241 437.714 95.7355 436.771 96.5245ZM430.317 86.7485C428.049 87.9581 425.647 88.905 423.335 90.1107C421.7 91.0763 419.876 91.679 417.987 91.8781C417.277 91.9602 416.558 91.8716 415.889 91.6195C415.22 91.3674 414.621 90.9592 414.142 90.4289C413.724 89.7478 413.514 88.9599 413.535 88.1612C413.557 87.3626 413.811 86.5874 414.265 85.93C415.271 84.4697 416.565 83.2303 418.068 82.288C423.96 78.0095 423.839 77.975 425.664 77.2869C426.945 76.8585 428.335 76.8848 429.599 77.3614C430.863 77.838 431.924 78.7358 432.603 79.9034C433.185 81.1175 433.271 82.5101 432.845 83.7869C432.418 85.0636 431.511 86.1243 430.317 86.7447V86.7485ZM415.302 82.0809C408.74 87.2795 411.851 94.4735 418.637 93.6933C417.289 94.929 416.447 96.6208 416.274 98.4414C416.1 100.262 416.609 102.082 417.7 103.55C419.356 105.584 421.892 105.449 424.489 104.83C420.263 109.404 423.305 114.108 428.122 113.84C429.545 113.766 430.947 113.468 432.278 112.958C434.93 111.966 437.44 110.627 439.742 108.977C441.514 111.089 443.133 113.326 444.584 115.67C448.052 120.49 450.81 125.784 452.773 131.389C453.638 134.07 454.166 136.848 454.346 139.66C455.497 153.586 435.228 155.326 421.213 154.964C421.469 140.54 420.077 126.134 417.063 112.026C415.585 105.509 413.452 98.0849 408.821 92.3074C408.629 87.0399 408.374 77.2063 408.859 69.9069C408.87 67.8577 409.162 65.8197 409.726 63.8496C410.544 61.582 412.568 61.6778 413.751 63.5142C414.203 65.2328 414.5 66.9887 414.637 68.7606C415.282 73.1681 415.505 77.6272 415.302 82.0771V82.0809ZM325.149 110.28C306.843 110.314 271.861 110.357 269.441 110.378C261.642 110.443 260.635 113.769 254.775 115.994C253.15 116.576 251.421 116.815 249.699 116.695C247.976 116.576 246.297 116.101 244.768 115.3C242.362 114.002 240.247 112.228 238.549 110.086C236.851 107.944 235.607 105.479 234.892 102.841C231.9 93.0378 233.023 82.3991 229.279 72.7247C227.829 68.2304 224.737 64.4485 220.621 62.134C230.466 62.134 302.734 62.0497 305.515 62.0938C313.374 62.2164 318.281 67.0105 321.41 77.6396C322.829 82.5663 323.419 87.695 323.154 92.8154C323.079 98.5047 322.989 105.551 325.149 110.28ZM187.145 223.485C188.217 220.657 189.801 218.051 191.818 215.798C195.09 212.234 200.973 210.496 205.263 213.057C206.389 213.846 207.316 214.888 207.968 216.099C208.62 217.31 208.979 218.657 209.018 220.032C209.317 222.444 209.294 223.801 209.478 241.164C202.311 242.107 195.346 244.212 188.856 247.397C183.415 249.933 178.591 253.623 174.721 258.212C182.534 236.59 186.571 224.945 187.145 223.485Z" fill="#4EAB79"/>
<path d="M500.259 29.1444C500.154 27.9483 498.299 27.9943 498.404 29.1866C499.575 42.4666 500.896 57.5198 495.055 70.6101C494.566 71.7008 496.186 72.6036 496.681 71.5034C502.803 57.8974 501.389 41.9587 500.259 29.1444Z" fill="#000001"/>
<path d="M504.75 23.2026C504.721 23.0765 504.666 22.958 504.587 22.8549C504.509 22.7518 504.41 22.6665 504.296 22.6045C504.139 22.521 503.961 22.4845 503.783 22.4993C503.605 22.5141 503.436 22.5797 503.294 22.6881C503.153 22.7966 503.046 22.9434 502.986 23.1111C502.925 23.2787 502.914 23.4602 502.954 23.6339C505.327 41.1445 506.936 59.5828 498.475 75.6174C497.915 76.6755 499.521 77.6052 500.089 76.5375C508.824 60.0429 507.181 41.1483 504.75 23.2026Z" fill="#000001"/>
<path d="M411.644 38.6614C412.426 39.57 413.768 38.2895 412.986 37.3752L408.735 32.4335C407.943 31.5115 406.626 32.8169 407.393 33.7197L411.644 38.6614Z" fill="#000001"/>
<path d="M196.123 233.922C197.684 234.771 199.494 235.046 201.237 234.697C202.979 234.348 204.544 233.398 205.658 232.013C206.772 230.628 207.365 228.896 207.332 227.119C207.299 225.342 206.643 223.633 205.479 222.29C204.779 221.334 203.869 220.551 202.818 220.003C201.767 219.454 200.605 219.155 199.42 219.128C198.235 219.101 197.06 219.347 195.985 219.846C194.91 220.346 193.965 221.086 193.222 222.01C192.479 222.933 191.959 224.015 191.701 225.172C191.443 226.329 191.455 227.529 191.735 228.681C192.016 229.832 192.557 230.904 193.318 231.813C194.079 232.721 195.038 233.443 196.123 233.922V233.922ZM193.376 226.254C193.594 225.097 194.144 224.029 194.957 223.178C195.771 222.327 196.815 221.731 197.961 221.462C199.086 221.264 200.244 221.354 201.325 221.726C202.406 222.097 203.375 222.736 204.141 223.584C204.921 224.567 205.369 225.773 205.418 227.027C205.466 228.281 205.115 229.519 204.413 230.559C203.657 231.596 202.579 232.352 201.348 232.711C200.116 233.07 198.801 233.011 197.606 232.543C196.326 232.077 195.226 231.217 194.466 230.086C193.706 228.955 193.324 227.612 193.376 226.25V226.254Z" fill="#4EAB79"/>
<path d="M350.301 126.3H296.709C296.47 126.311 296.245 126.413 296.079 126.586C295.914 126.759 295.822 126.989 295.822 127.229C295.822 127.468 295.914 127.698 296.079 127.871C296.245 128.044 296.47 128.146 296.709 128.157H350.311C350.433 128.154 350.553 128.126 350.663 128.075C350.774 128.024 350.874 127.952 350.957 127.862C351.078 127.731 351.16 127.568 351.191 127.392C351.222 127.216 351.202 127.034 351.133 126.869C351.064 126.705 350.948 126.563 350.801 126.462C350.653 126.361 350.48 126.305 350.301 126.3V126.3Z" fill="#000001"/>
<path d="M350.301 142.955H296.709C296.47 142.966 296.245 143.069 296.079 143.242C295.914 143.414 295.822 143.645 295.822 143.884C295.822 144.123 295.914 144.353 296.079 144.526C296.245 144.699 296.47 144.802 296.709 144.813H350.311C350.55 144.802 350.775 144.699 350.941 144.526C351.106 144.353 351.198 144.123 351.198 143.884C351.198 143.645 351.106 143.414 350.941 143.242C350.775 143.069 350.55 142.966 350.311 142.955H350.301Z" fill="#000001"/>
<path d="M305.137 95.2998H251.706C251.467 95.3107 251.242 95.4133 251.076 95.5862C250.911 95.7592 250.819 95.9893 250.819 96.2285C250.819 96.4678 250.911 96.6978 251.076 96.8708C251.242 97.0438 251.467 97.1464 251.706 97.1572H305.145C305.384 97.1464 305.609 97.0438 305.775 96.8708C305.94 96.6978 306.032 96.4678 306.032 96.2285C306.032 95.9893 305.94 95.7592 305.775 95.5862C305.609 95.4133 305.384 95.3107 305.145 95.2998H305.137Z" fill="#000001"/>
<path d="M305.138 80.373H251.715C251.589 80.3673 251.464 80.3871 251.346 80.4312C251.228 80.4753 251.121 80.5428 251.03 80.6296C250.939 80.7164 250.867 80.8207 250.818 80.9362C250.768 81.0518 250.743 81.1761 250.743 81.3017C250.743 81.4274 250.768 81.5517 250.818 81.6672C250.867 81.7828 250.939 81.8871 251.03 81.9739C251.121 82.0607 251.228 82.1282 251.346 82.1723C251.464 82.2164 251.589 82.2362 251.715 82.2305H305.145C305.384 82.2196 305.61 82.117 305.775 81.944C305.941 81.7711 306.033 81.541 306.033 81.3017C306.033 81.0625 305.941 80.8324 305.775 80.6595C305.61 80.4865 305.384 80.3839 305.145 80.373H305.138Z" fill="#000001"/>
<path d="M447.805 145.948C448.75 144.147 449.164 142.114 448.999 140.087C448.901 138.9 447.036 138.919 447.143 140.129C447.297 141.821 446.964 143.522 446.185 145.032C445.637 146.098 447.247 147.016 447.805 145.948Z" fill="#000001"/>
<path d="M231.593 151.133C231.774 151.127 231.95 151.069 232.101 150.967C232.251 150.865 232.369 150.722 232.441 150.555C232.513 150.389 232.536 150.205 232.508 150.025C232.48 149.846 232.401 149.678 232.281 149.542L220.224 136.912C219.392 136.039 218.073 137.349 218.903 138.219C232.072 152.016 231.077 151.133 231.593 151.133Z" fill="#000001"/>
<path d="M212.916 174.339C212.926 174.574 213.023 174.797 213.19 174.963C213.356 175.129 213.579 175.227 213.814 175.236H232.202C232.441 175.226 232.667 175.123 232.832 174.95C232.997 174.777 233.09 174.547 233.09 174.308C233.09 174.068 232.997 173.838 232.832 173.665C232.667 173.492 232.441 173.39 232.202 173.379H213.814C213.567 173.388 213.335 173.494 213.167 173.674C212.999 173.854 212.909 174.093 212.916 174.339Z" fill="#000001"/>
<path d="M220.623 208.105C220.464 208.282 220.378 208.514 220.385 208.752C220.391 208.99 220.489 209.217 220.658 209.385C220.826 209.554 221.053 209.651 221.292 209.656C221.53 209.662 221.761 209.576 221.938 209.416L234.014 197.34C234.173 197.162 234.258 196.93 234.251 196.692C234.244 196.454 234.145 196.227 233.976 196.059C233.807 195.892 233.579 195.795 233.341 195.79C233.103 195.785 232.872 195.872 232.695 196.033L220.623 208.105Z" fill="#000001"/>
<path d="M370.348 68.9212C371.785 69.8879 373.475 70.4118 375.207 70.4282C376.94 70.4445 378.639 69.9526 380.095 69.0132C380.301 68.8852 380.45 68.683 380.511 68.4483C380.573 68.2136 380.542 67.9643 380.424 67.7519C379.596 66.2529 378.699 64.6849 377.526 62.699C379.407 62.5227 383.058 62.2179 383.442 62.0396C383.614 61.9764 383.764 61.8645 383.874 61.7175C383.984 61.5705 384.049 61.3947 384.061 61.2115C384.181 59.4282 383.626 57.6649 382.506 56.2725C381.385 54.8801 379.781 53.9607 378.013 53.6974C376.66 53.2948 375.232 53.2132 373.842 53.4591C372.452 53.705 371.139 54.2716 370.006 55.114C368.944 55.9374 368.09 56.9991 367.514 58.2133C366.937 59.4274 366.654 60.7601 366.687 62.1038C366.72 63.4475 367.069 64.7646 367.705 65.9488C368.341 67.133 369.246 68.1511 370.348 68.9212V68.9212ZM375.977 60.9949C375.816 61 375.659 61.0465 375.522 61.1299C375.384 61.2133 375.27 61.3307 375.191 61.471C375.112 61.6112 375.07 61.7695 375.07 61.9305C375.069 62.0916 375.111 62.2499 375.19 62.3904C375.602 63.1111 377.724 66.7321 378.345 67.84C377.308 68.3801 376.147 68.6397 374.979 68.5931C373.811 68.5465 372.675 68.1954 371.684 67.5746C370.693 66.9537 369.882 66.0847 369.33 65.0536C368.779 64.0226 368.506 62.8653 368.54 61.6965C368.614 59.9689 369.341 58.3337 370.574 57.1217C371.808 55.9097 373.455 55.2112 375.184 55.1676C377.001 55.1497 378.784 55.6707 380.306 56.6647C380.873 57.1054 381.337 57.6649 381.665 58.304C381.993 58.9431 382.178 59.6463 382.205 60.3643C379.863 60.6135 377.641 60.8281 375.968 60.9949H375.977Z" fill="#000001"/>
<path d="M370.932 51.2681C378.114 51.4505 385.276 50.4301 392.121 48.249C393.314 47.9691 394.417 47.3929 395.328 46.5736C395.759 46.1951 396.067 45.6957 396.211 45.1402C396.355 44.5847 396.329 43.9987 396.136 43.4583C395.943 42.9178 395.592 42.4478 395.129 42.1092C394.665 41.7705 394.111 41.5789 393.538 41.5591C391.118 41.2641 388.677 41.1909 386.244 41.3406C387.477 40.2304 388.466 38.8759 389.148 37.3631C389.296 36.8888 389.332 36.3869 389.254 35.8963C389.176 35.4057 388.987 34.9396 388.7 34.5341C388.413 34.1287 388.036 33.7948 387.599 33.5584C387.162 33.322 386.677 33.1894 386.181 33.1709C385.06 33.2579 384.015 33.7677 383.257 34.597C382.353 35.3638 381.486 36.2436 380.557 37.1542C376.5 40.8993 372.987 45.1923 370.117 49.909C370.052 50.0508 370.022 50.2064 370.03 50.3624C370.039 50.5184 370.085 50.67 370.165 50.804C370.245 50.938 370.357 51.0503 370.491 51.1312C370.625 51.212 370.776 51.259 370.932 51.2681ZM382.972 41.8313C382.844 41.9641 382.759 42.1316 382.727 42.3128C382.694 42.4939 382.716 42.6806 382.789 42.8494C382.863 43.0181 382.984 43.1615 383.139 43.2614C383.293 43.3613 383.474 43.4133 383.658 43.4108C386.834 43.0614 390.039 43.0511 393.217 43.3801C395.077 43.6044 394.486 45.0382 393.541 45.6574C392.614 46.1692 391.619 46.5474 390.586 46.7807C384.744 48.5506 378.671 49.4409 372.567 49.4221C374.997 45.7424 377.834 42.348 381.024 39.303C384.643 35.6782 385.625 34.7025 386.6 35.1223C386.857 35.2295 387.075 35.4114 387.226 35.6442C387.378 35.877 387.455 36.15 387.45 36.4277C387.198 37.8442 384.889 40.2135 382.972 41.8313Z" fill="#000001"/>
<path d="M426.44 188.348C424.995 187.935 423.47 187.884 422 188.197C420.529 188.511 419.158 189.18 418.006 190.146C416.765 191.206 415.847 192.594 415.357 194.152C414.867 195.71 414.825 197.374 415.236 198.954C416.962 204.833 425.064 208.293 429.553 203.794C431.678 201.626 432.868 198.711 432.87 195.676C432.676 193.944 431.955 192.313 430.806 191.002C429.656 189.692 428.133 188.765 426.44 188.348V188.348ZM426.552 203.587C421.547 205.636 414.284 199.465 417.64 193.594C418.634 194.689 419.932 195.464 421.368 195.818C422.559 196.188 423.789 196.418 425.034 196.502C424.532 197.014 424.166 197.643 423.967 198.332C423.768 199.02 423.742 199.747 423.893 200.448C424.043 201.149 424.364 201.802 424.828 202.348C425.292 202.894 425.884 203.317 426.552 203.579V203.587ZM425.745 199.707C425.853 198.928 426.17 198.192 426.66 197.577C427.151 196.962 427.798 196.49 428.534 196.211C428.727 196.149 428.895 196.025 429.011 195.859C429.128 195.693 429.187 195.493 429.18 195.29C429.172 195.087 429.099 194.892 428.971 194.735C428.842 194.577 428.666 194.466 428.469 194.418C427.573 194.347 427.223 194.685 425.687 194.646C423.529 194.602 419.482 193.669 418.836 191.963C423.512 187.286 431.442 191.152 431.014 196.55C430.828 198.63 429.968 200.592 428.564 202.138C427.178 202.001 425.745 201.292 425.745 199.707Z" fill="#000001"/>
<path d="M481.482 237.583C477.207 231.677 470.805 227.807 461.332 225.419C451.667 222.959 441.672 222.057 431.724 222.747C422.232 223.381 412.83 224.979 403.663 227.516C399.875 228.347 396.278 229.886 393.06 232.051C387.622 230.126 381.831 229.401 376.087 229.927C372.561 230.319 369.132 231.328 365.956 232.908C363.315 234.386 360.763 236.016 358.311 237.79C355.84 239.347 353.829 241.536 352.488 244.131C351.998 245.336 351.935 246.672 352.31 247.917C352.684 249.162 353.474 250.242 354.547 250.976C357.869 253.305 362.927 251.851 366.585 250.21C367.85 249.646 369.055 248.939 370.257 248.347C370.444 248.251 370.649 248.197 370.859 248.189C371.069 248.181 371.278 248.219 371.471 248.301C371.664 248.382 371.837 248.506 371.978 248.661C372.118 248.817 372.223 249.002 372.284 249.203C372.346 249.404 372.362 249.615 372.333 249.823C372.303 250.031 372.228 250.23 372.114 250.405C371.999 250.581 371.847 250.729 371.669 250.84C371.49 250.951 371.29 251.021 371.082 251.045C367.61 251.72 364.429 253.446 361.973 255.991C361.14 257.013 360.704 258.301 360.745 259.619C360.785 260.937 361.3 262.195 362.195 263.164C363.475 264.508 365.114 265.457 366.916 265.899C364.125 266.881 362.743 268.476 362.699 270.759C362.634 274.065 365.239 277.207 370.068 277.542C364.601 281.627 365.95 287.721 370.576 289.272C374.543 290.899 379.621 290.23 383.2 289.534C383.225 293.46 383.392 302.929 383.409 304.037C383.412 304.282 383.511 304.515 383.684 304.688C383.857 304.861 384.09 304.959 384.335 304.961C385.157 304.973 402.752 305.168 404.679 305.187C407.187 313.245 411.811 320.482 418.068 326.145C426.195 333.011 439.909 336.283 449.966 335.263C462.936 333.95 475.702 323.57 481.733 309.428C484.819 301.994 486.62 294.09 487.06 286.053C489.184 271.794 489.274 261.435 487.359 251.417C486.427 246.434 484.422 241.713 481.482 237.583V237.583ZM375.414 277.159C376.608 276.946 376.136 275.142 374.963 275.357C370.106 276.241 366.868 275.572 365.341 273.369C364.769 272.564 364.498 271.584 364.574 270.599C364.915 268.801 366.408 267.724 369.27 267.186C370.696 266.923 372.145 266.706 373.564 266.499C374.635 266.342 374.405 264.613 373.332 264.671C370.795 264.863 368.248 264.48 365.879 263.551C363.744 262.662 361.921 260.519 362.749 258.299C364.131 254.594 371.078 253.068 372.333 252.592C372.982 252.278 373.509 251.76 373.834 251.118C374.159 250.475 374.265 249.744 374.134 249.036C374.004 248.327 373.644 247.681 373.111 247.197C372.578 246.713 371.901 246.417 371.183 246.355C370.059 246.376 368.969 246.745 368.063 247.411C365.473 248.971 362.579 249.961 359.577 250.313C358.446 250.532 357.275 250.351 356.264 249.801C355.253 249.25 354.466 248.364 354.037 247.296C353.496 245.51 354.42 243.566 356.891 241.354C359.153 239.394 361.586 237.641 364.162 236.117C370.075 232.361 377.133 230.834 384.07 231.81C387.306 232.317 390.49 233.114 393.584 234.19C405.542 238.161 416.287 245.122 424.798 254.413C433.069 263.543 435.954 270.72 440.79 281.869C441.174 282.75 442.546 282.329 442.533 281.422C442.533 281.422 442.427 274.818 442.401 272.886C442.363 270.053 442.886 267.24 443.94 264.61C444.994 261.979 446.558 259.584 448.542 257.56C450.526 255.537 452.891 253.926 455.5 252.821C458.109 251.716 460.911 251.138 463.745 251.12C466.579 251.102 469.388 251.645 472.01 252.718C474.633 253.791 477.018 255.372 479.027 257.37C481.036 259.368 482.63 261.744 483.717 264.361C484.804 266.978 485.362 269.784 485.36 272.618C485.624 281.733 485.434 293.617 481.599 304.714C476.596 319.188 465.372 330.25 453.003 332.892C447.63 333.993 442.078 333.874 436.757 332.543C431.694 331.815 426.853 329.983 422.575 327.178C418.297 324.374 414.688 320.664 412.001 316.311C405.188 305.6 403.172 292.757 401.387 281.393C401.331 281.199 401.213 281.027 401.052 280.905C400.89 280.783 400.693 280.717 400.49 280.717C399.532 280.717 392.781 285.656 384.072 287.514C379.295 288.534 372.924 289.208 369.684 286.636C369.129 286.19 368.724 285.585 368.521 284.903C368.318 284.22 368.328 283.492 368.549 282.816C369.055 281.328 369.965 280.01 371.177 279.011C372.39 278.012 373.857 277.371 375.414 277.159V277.159ZM454.728 251.063C450.847 252.671 447.482 255.313 444.998 258.701C442.514 262.089 441.006 266.093 440.639 270.277C440.505 272.443 440.488 274.614 440.589 276.781C439.985 275.386 439.383 273.988 438.768 272.599C434.652 263.331 428.667 255.013 421.187 248.165C413.708 241.317 404.895 236.087 395.301 232.803C397.205 231.636 399.256 230.727 401.399 230.1C410.229 227.489 419.288 225.729 428.453 224.844C438.84 223.794 449.329 224.478 459.491 226.868C468.715 229.044 474.941 232.427 479.082 237.512C482.003 241.159 484.063 245.418 485.108 249.972C486.519 256.088 487.099 262.366 486.834 268.637C486.261 265.156 484.904 261.852 482.864 258.974C480.825 256.096 478.157 253.72 475.063 252.026C471.969 250.333 468.53 249.366 465.007 249.199C461.483 249.032 457.968 249.669 454.728 251.063V251.063ZM399.769 283.097C400.724 289.937 402.166 296.7 404.084 303.334C396.237 303.246 385.33 303.096 385.249 303.096C385.128 297.503 385.057 293.184 385.046 289.153C390.197 287.786 395.147 285.75 399.769 283.097Z" fill="#000001"/>
<path d="M346.706 266.28C346.049 267.296 347.648 268.239 348.297 267.238C350.032 264.566 352.258 259.889 354.571 258.699C354.679 258.639 354.802 258.615 354.925 258.629C355.047 258.643 355.162 258.694 355.254 258.775C357.309 260.351 353.638 267.401 352.369 269.655C352.246 269.868 352.212 270.122 352.275 270.36C352.339 270.597 352.494 270.8 352.707 270.923C352.92 271.047 353.173 271.08 353.411 271.017C353.649 270.953 353.852 270.798 353.975 270.585C355.279 268.335 356.352 265.959 357.176 263.493C358.012 260.884 357.897 259.007 356.827 257.742C353.364 253.694 348.949 262.826 346.706 266.28Z" fill="#000001"/>
<path d="M348.916 269.343C346.082 268.065 342.951 267.589 339.865 267.969C331.46 268.975 323.917 272.91 316.125 280.355C313.92 282.464 311.934 284.745 309.814 287.011C309.718 287.113 309.645 287.235 309.602 287.368C309.558 287.502 309.545 287.643 309.564 287.782C309.582 287.921 309.631 288.054 309.708 288.172C309.784 288.29 309.886 288.389 310.006 288.462C319.153 294.021 328.118 299.946 337.101 305.608L336.334 314.947C336.233 316.151 338.092 316.176 338.188 314.986L338.87 306.722C340.189 307.537 344.985 310.489 347.304 311.863C347.409 311.936 347.527 311.985 347.652 312.006C347.778 312.028 347.906 312.021 348.028 311.988C348.151 311.954 348.264 311.894 348.361 311.811C348.457 311.729 348.534 311.626 348.587 311.51C351.355 305.429 353.6 299.123 355.296 292.66C357.213 285.328 356.914 279.497 354.393 274.833C353.152 272.501 351.246 270.59 348.916 269.343V269.343ZM353.952 290.354C352.326 296.99 350.115 303.468 347.347 309.714C337.787 304.056 317.635 290.952 311.913 287.452C315.075 283.857 318.538 280.538 322.264 277.532C330.679 270.723 345.604 265.502 351.903 274.329C354.761 278.337 355.451 283.733 353.952 290.354V290.354Z" fill="#000001"/>
<path d="M335.314 318.822C334.277 319.033 333.329 319.556 332.597 320.321C331.865 321.086 331.385 322.057 331.221 323.103C331.056 324.149 331.216 325.22 331.677 326.173C332.139 327.125 332.881 327.914 333.804 328.433C334.856 329.005 336.091 329.138 337.241 328.802C338.39 328.467 339.36 327.689 339.938 326.641C340.539 325.827 340.893 324.856 340.956 323.846C341.019 322.836 340.789 321.829 340.294 320.946C339.75 320.157 338.993 319.539 338.112 319.163C337.23 318.787 336.26 318.669 335.314 318.822V318.822ZM338.416 321.58C338.856 322.128 339.106 322.805 339.127 323.507C339.148 324.21 338.939 324.9 338.533 325.474C336.616 328.709 332.855 326.79 333.031 323.66C333.04 323.04 333.234 322.436 333.589 321.926C333.943 321.417 334.442 321.025 335.021 320.802C335.6 320.578 336.233 320.533 336.838 320.672C337.443 320.81 337.992 321.127 338.416 321.58V321.58Z" fill="#000001"/>
<path d="M363.831 318.592C363.447 317.442 361.674 317.965 362.046 319.106L367.674 336.358C368.046 337.496 369.834 336.994 369.459 335.842L363.831 318.592Z" fill="#000001"/>
<path d="M367.376 317.1C367.249 316.894 367.046 316.745 366.81 316.685C366.575 316.626 366.325 316.661 366.116 316.784C365.906 316.906 365.752 317.105 365.687 317.339C365.623 317.573 365.652 317.823 365.769 318.036C368.296 322.587 374.33 333.072 374.708 333.699C374.789 333.833 374.903 333.945 375.041 334.022C375.178 334.099 375.333 334.139 375.49 334.138C375.651 334.138 375.81 334.097 375.951 334.018C376.092 333.939 376.209 333.824 376.292 333.686C376.375 333.547 376.421 333.389 376.424 333.228C376.428 333.067 376.389 332.907 376.312 332.765C374.395 329.311 367.408 317.156 367.376 317.1Z" fill="#000001"/>
<path d="M407.187 277.833C410.183 274.581 412.787 270.989 414.945 267.129C415.055 266.917 415.079 266.671 415.013 266.442C414.947 266.212 414.795 266.017 414.588 265.897C414.382 265.777 414.137 265.74 413.905 265.796C413.673 265.851 413.47 265.993 413.34 266.194C407.398 276.161 405.255 276.179 405.654 277.434C405.693 277.592 405.773 277.736 405.887 277.852C406.001 277.967 406.145 278.05 406.302 278.09C406.459 278.131 406.624 278.129 406.78 278.084C406.936 278.038 407.076 277.952 407.187 277.833V277.833Z" fill="#000001"/>
<path d="M382.76 276.472C385.103 276.288 387.409 275.788 389.617 274.984C390.731 274.578 390.234 272.791 389.086 273.205C387.038 273.961 384.897 274.436 382.722 274.616C381.512 274.714 381.574 276.592 382.76 276.472Z" fill="#000001"/>
<path d="M380.763 265.839C380.955 265.839 380.643 265.887 386.426 264.689C387.616 264.442 387.129 262.646 385.962 262.891L380.507 264.028C380.298 264.094 380.119 264.233 380.002 264.418C379.886 264.604 379.839 264.825 379.87 265.042C379.9 265.259 380.007 265.458 380.171 265.604C380.334 265.75 380.544 265.833 380.763 265.839V265.839Z" fill="#000001"/>
<path d="M445.324 328.739C445.515 328.739 445.793 328.678 453.62 327.601C453.858 327.538 454.061 327.382 454.184 327.169C454.308 326.956 454.342 326.703 454.278 326.465C454.215 326.227 454.06 326.024 453.847 325.901C453.634 325.777 453.38 325.743 453.142 325.807L445.078 326.915C444.862 326.975 444.676 327.111 444.552 327.299C444.429 327.486 444.378 327.711 444.408 327.934C444.438 328.156 444.547 328.36 444.715 328.508C444.883 328.656 445.099 328.738 445.324 328.739V328.739Z" fill="#000001"/>
<path d="M264.218 270.357C261.818 272.332 259.449 274.404 257.179 276.518C256.296 277.343 257.603 278.661 258.479 277.843C265.38 271.416 265.955 271.801 265.807 270.942C265.775 270.775 265.7 270.619 265.59 270.489C265.479 270.359 265.337 270.26 265.178 270.201C265.018 270.143 264.845 270.126 264.677 270.153C264.509 270.181 264.351 270.251 264.218 270.357Z" fill="#000001"/>
<path d="M211.872 268.222C199.899 278.036 187.213 286.946 173.918 294.878C173.814 294.941 173.724 295.024 173.653 295.123C173.582 295.222 173.532 295.334 173.506 295.453C173.465 295.628 173.475 295.811 173.535 295.981C173.596 296.15 173.704 296.298 173.847 296.407C173.99 296.516 174.162 296.581 174.341 296.594C174.52 296.608 174.7 296.569 174.857 296.483C188.32 288.546 201.127 279.547 213.156 269.57C214.09 268.799 212.792 267.467 211.872 268.222Z" fill="#000001"/>
<path d="M290.717 216.832L295.356 212.284C295.521 212.108 295.611 211.875 295.608 211.634C295.604 211.393 295.507 211.162 295.337 210.992C295.167 210.821 294.937 210.723 294.696 210.718C294.455 210.713 294.221 210.803 294.045 210.967L289.408 215.516C289.248 215.692 289.161 215.923 289.167 216.162C289.172 216.4 289.269 216.627 289.437 216.796C289.605 216.965 289.832 217.063 290.07 217.07C290.308 217.077 290.54 216.992 290.717 216.832V216.832Z" fill="#000001"/>
<path d="M300.032 225.063L304.483 221.444C305.425 220.677 304.131 219.347 303.207 220.102L298.756 223.721C297.817 224.473 299.107 225.815 300.032 225.063Z" fill="#000001"/>
<path d="M156.11 274.973C156.003 274.909 155.884 274.867 155.76 274.85C155.637 274.833 155.511 274.842 155.39 274.876C155.27 274.909 155.158 274.967 155.06 275.045C154.963 275.123 154.883 275.221 154.824 275.331L148.307 290.724C148.219 290.882 148.179 291.062 148.191 291.243C148.204 291.423 148.268 291.596 148.378 291.74C148.487 291.885 148.635 291.994 148.806 292.056C148.976 292.117 149.16 292.128 149.336 292.087C149.461 292.054 149.578 291.997 149.68 291.918C149.782 291.839 149.866 291.74 149.929 291.627L156.446 276.234C156.563 276.021 156.593 275.771 156.531 275.536C156.468 275.301 156.318 275.1 156.11 274.973V274.973Z" fill="#000001"/>
<path d="M150.372 273.663L142.098 291.352C141.587 292.44 143.214 293.338 143.72 292.251L151.995 274.562C152.499 273.483 150.883 272.564 150.372 273.663Z" fill="#000001"/>
</svg>
