<svg width="496" height="176" viewBox="0 0 496 176" fill="none" xmlns="http://www.w3.org/2000/svg">
<path d="M435.168 104.032C430.24 110.368 423.264 113.536 414.24 113.536C405.216 113.536 398.24 110.368 393.312 104.032C388.384 97.632 385.92 89.088 385.92 78.4C385.92 67.712 388.384 59.2 393.312 52.864C398.24 46.464 405.216 43.264 414.24 43.264C423.264 43.264 430.24 46.464 435.168 52.864C440.096 59.2 442.56 67.712 442.56 78.4C442.56 89.088 440.096 97.632 435.168 104.032ZM405.12 78.4C405.12 89.408 408.16 94.912 414.24 94.912C420.32 94.912 423.36 89.408 423.36 78.4C423.36 67.392 420.32 61.888 414.24 61.888C408.16 61.888 405.12 67.392 405.12 78.4ZM445.451 112V97.984L467.339 74.272C467.723 73.824 468.267 73.216 468.971 72.448C469.739 71.68 470.251 71.136 470.507 70.816C470.827 70.496 471.211 70.08 471.659 69.568C472.171 68.992 472.491 68.544 472.619 68.224C472.811 67.84 472.971 67.456 473.099 67.072C473.291 66.624 473.387 66.176 473.387 65.728C473.387 64.64 473.003 63.744 472.235 63.04C471.467 62.272 470.347 61.888 468.875 61.888C465.291 61.888 462.635 64.16 460.907 68.704L444.011 59.488C446.251 54.176 449.547 50.144 453.899 47.392C458.315 44.64 463.211 43.264 468.587 43.264C475.179 43.264 480.811 45.152 485.483 48.928C490.219 52.64 492.587 57.792 492.587 64.384C492.587 68.416 491.691 71.936 489.899 74.944C488.171 77.952 485.419 81.568 481.643 85.792L474.827 93.376H494.027V112H445.451Z" fill="#E2EAF3"/>
<g filter="url(#filter0_d_1160_8596)">
<rect x="40" y="36" width="303" height="96" rx="10" fill="white" shape-rendering="crispEdges"/>
<rect x="59" y="60" width="265" height="48" rx="5" fill="#F9FAFB"/>
<path d="M117.885 88.1789C116.999 88.1789 116.254 87.983 115.649 87.591C115.044 87.1906 114.618 86.6495 114.371 85.9679L115.879 85.086C116.228 85.9977 116.914 86.4536 117.936 86.4536C118.431 86.4536 118.793 86.3641 119.023 86.1852C119.253 86.0062 119.368 85.7805 119.368 85.5078C119.368 85.1925 119.227 84.9497 118.946 84.7793C118.665 84.6004 118.162 84.4087 117.438 84.2042C117.038 84.0849 116.697 83.9656 116.416 83.8463C116.143 83.727 115.866 83.5694 115.585 83.3735C115.312 83.169 115.103 82.9134 114.959 82.6066C114.814 82.2999 114.741 81.942 114.741 81.5331C114.741 80.7236 115.027 80.0803 115.598 79.6032C116.177 79.1175 116.871 78.8747 117.681 78.8747C118.405 78.8747 119.04 79.0536 119.585 79.4115C120.139 79.7608 120.569 80.2507 120.876 80.8813L119.393 81.7375C119.036 80.9707 118.465 80.5873 117.681 80.5873C117.314 80.5873 117.025 80.6725 116.812 80.8429C116.607 81.0048 116.505 81.2178 116.505 81.4819C116.505 81.7631 116.62 81.9932 116.85 82.1721C117.089 82.3425 117.54 82.5299 118.205 82.7344C118.477 82.8196 118.682 82.8878 118.818 82.9389C118.963 82.9815 119.155 83.0539 119.393 83.1562C119.64 83.2499 119.828 83.3394 119.956 83.4246C120.092 83.5098 120.245 83.6248 120.416 83.7696C120.586 83.9145 120.714 84.0636 120.799 84.217C120.893 84.3703 120.97 84.5578 121.029 84.7793C121.097 84.9923 121.132 85.2266 121.132 85.4822C121.132 86.3087 120.829 86.9648 120.224 87.4504C119.628 87.9361 118.848 88.1789 117.885 88.1789ZM123.773 85.4822C123.995 86.2832 124.595 86.6836 125.575 86.6836C126.206 86.6836 126.683 86.4706 127.006 86.0446L128.336 86.8114C127.705 87.7231 126.776 88.1789 125.549 88.1789C124.493 88.1789 123.645 87.8594 123.006 87.2204C122.367 86.5814 122.048 85.7762 122.048 84.8049C122.048 83.8421 122.363 83.0412 122.993 82.4021C123.624 81.7546 124.433 81.4308 125.422 81.4308C126.359 81.4308 127.13 81.7546 127.735 82.4021C128.348 83.0497 128.655 83.8506 128.655 84.8049C128.655 85.0179 128.634 85.2437 128.591 85.4822H123.773ZM123.747 84.2042H127.006C126.913 83.7696 126.717 83.4459 126.419 83.2329C126.129 83.0199 125.797 82.9134 125.422 82.9134C124.979 82.9134 124.612 83.0284 124.323 83.2584C124.033 83.48 123.841 83.7952 123.747 84.2042ZM134.613 81.6097H136.261V88H134.613V87.2459C134.119 87.8679 133.424 88.1789 132.53 88.1789C131.678 88.1789 130.945 87.8552 130.331 87.2076C129.726 86.5515 129.424 85.7506 129.424 84.8049C129.424 83.8591 129.726 83.0625 130.331 82.4149C130.945 81.7588 131.678 81.4308 132.53 81.4308C133.424 81.4308 134.119 81.7418 134.613 82.3638V81.6097ZM131.571 86.1085C131.903 86.4408 132.325 86.6069 132.836 86.6069C133.348 86.6069 133.769 86.4408 134.102 86.1085C134.442 85.7677 134.613 85.3331 134.613 84.8049C134.613 84.2766 134.442 83.8463 134.102 83.514C133.769 83.1732 133.348 83.0028 132.836 83.0028C132.325 83.0028 131.903 83.1732 131.571 83.514C131.239 83.8463 131.073 84.2766 131.073 84.8049C131.073 85.3331 131.239 85.7677 131.571 86.1085ZM139.405 82.7089C139.559 82.2999 139.81 81.9932 140.159 81.7887C140.517 81.5842 140.913 81.4819 141.348 81.4819V83.3223C140.845 83.2627 140.394 83.3649 139.993 83.6291C139.601 83.8932 139.405 84.332 139.405 84.9455V88H137.756V81.6097H139.405V82.7089ZM145.117 88.1789C144.154 88.1789 143.349 87.8552 142.701 87.2076C142.062 86.5601 141.743 85.7591 141.743 84.8049C141.743 83.8506 142.062 83.0497 142.701 82.4021C143.349 81.7546 144.154 81.4308 145.117 81.4308C145.739 81.4308 146.305 81.5799 146.816 81.8781C147.328 82.1763 147.715 82.5768 147.979 83.0795L146.561 83.9102C146.433 83.6461 146.237 83.4374 145.973 83.284C145.717 83.1306 145.428 83.0539 145.104 83.0539C144.61 83.0539 144.201 83.2201 143.877 83.5524C143.553 83.8762 143.391 84.2937 143.391 84.8049C143.391 85.3076 143.553 85.7251 143.877 86.0574C144.201 86.3811 144.61 86.543 145.104 86.543C145.436 86.543 145.73 86.4706 145.986 86.3258C146.25 86.1724 146.446 85.9636 146.574 85.6995L148.005 86.5175C147.724 87.0202 147.328 87.4249 146.816 87.7316C146.305 88.0298 145.739 88.1789 145.117 88.1789ZM152.43 81.4308C153.129 81.4308 153.704 81.6651 154.155 82.1337C154.615 82.6024 154.846 83.2499 154.846 84.0764V88H153.197V84.2809C153.197 83.8549 153.082 83.5311 152.852 83.3096C152.622 83.0795 152.315 82.9645 151.932 82.9645C151.506 82.9645 151.165 83.0965 150.909 83.3607C150.654 83.6248 150.526 84.021 150.526 84.5493V88H148.877V79.0536H150.526V82.3255C150.926 81.729 151.561 81.4308 152.43 81.4308Z" fill="#828282"/>
<path d="M92 92C96.9706 92 101 87.9706 101 83C101 78.0294 96.9706 74 92 74C87.0294 74 83 78.0294 83 83C83 87.9706 87.0294 92 92 92Z" stroke="#828282" stroke-width="1.5" stroke-linecap="round" stroke-linejoin="round"/>
<path d="M99.9299 92.6898C100.46 94.2898 101.67 94.4498 102.6 93.0498C103.45 91.7698 102.89 90.7198 101.35 90.7198C100.21 90.7098 99.5699 91.5998 99.9299 92.6898Z" stroke="#828282" stroke-width="1.5" stroke-linecap="round" stroke-linejoin="round"/>
</g>
<defs>
<filter id="filter0_d_1160_8596" x="0" y="0" width="383" height="176" filterUnits="userSpaceOnUse" color-interpolation-filters="sRGB">
<feFlood flood-opacity="0" result="BackgroundImageFix"/>
<feColorMatrix in="SourceAlpha" type="matrix" values="0 0 0 0 0 0 0 0 0 0 0 0 0 0 0 0 0 0 127 0" result="hardAlpha"/>
<feOffset dy="4"/>
<feGaussianBlur stdDeviation="20"/>
<feComposite in2="hardAlpha" operator="out"/>
<feColorMatrix type="matrix" values="0 0 0 0 0 0 0 0 0 0 0 0 0 0 0 0 0 0 0.04 0"/>
<feBlend mode="normal" in2="BackgroundImageFix" result="effect1_dropShadow_1160_8596"/>
<feBlend mode="normal" in="SourceGraphic" in2="effect1_dropShadow_1160_8596" result="shape"/>
</filter>
</defs>
</svg>
