<svg width="96" height="80" viewBox="0 0 96 80" fill="none" xmlns="http://www.w3.org/2000/svg">
<path d="M43.7681 73.8028C62.9139 73.8028 78.4346 58.2821 78.4346 39.1363C78.4346 19.9905 62.9139 4.46973 43.7681 4.46973C24.6223 4.46973 9.10156 19.9905 9.10156 39.1363C9.10156 58.2821 24.6223 73.8028 43.7681 73.8028Z" fill="#0B3D91"/>
<path d="M41.7216 11.5165C41.9363 11.5165 42.1103 11.3425 42.1103 11.1279C42.1103 10.9133 41.9363 10.7393 41.7216 10.7393C41.507 10.7393 41.333 10.9133 41.333 11.1279C41.333 11.3425 41.507 11.5165 41.7216 11.5165Z" fill="white"/>
<path d="M45.7119 12.0351C45.9265 12.0351 46.1005 11.8611 46.1005 11.6465C46.1005 11.4318 45.9265 11.2578 45.7119 11.2578C45.4972 11.2578 45.3232 11.4318 45.3232 11.6465C45.3232 11.8611 45.4972 12.0351 45.7119 12.0351Z" fill="white"/>
<path d="M50.9453 19.082C51.1599 19.082 51.3339 18.908 51.3339 18.6933C51.3339 18.4787 51.1599 18.3047 50.9453 18.3047C50.7306 18.3047 50.5566 18.4787 50.5566 18.6933C50.5566 18.908 50.7306 19.082 50.9453 19.082Z" fill="white"/>
<path d="M22.2382 55.3544C22.4529 55.3544 22.6269 55.1804 22.6269 54.9658C22.6269 54.7511 22.4529 54.5771 22.2382 54.5771C22.0236 54.5771 21.8496 54.7511 21.8496 54.9658C21.8496 55.1804 22.0236 55.3544 22.2382 55.3544Z" fill="white"/>
<path d="M23.2485 58.4648C23.4631 58.4648 23.6371 58.2908 23.6371 58.0761C23.6371 57.8615 23.4631 57.6875 23.2485 57.6875C23.0339 57.6875 22.8599 57.8615 22.8599 58.0761C22.8599 58.2908 23.0339 58.4648 23.2485 58.4648Z" fill="white"/>
<path d="M18.4292 55.7237C18.59 55.7237 18.7203 55.5934 18.7203 55.4326C18.7203 55.2719 18.59 55.1416 18.4292 55.1416C18.2685 55.1416 18.1382 55.2719 18.1382 55.4326C18.1382 55.5934 18.2685 55.7237 18.4292 55.7237Z" fill="white"/>
<path d="M34.2343 61.8328C34.3955 61.8328 34.5262 61.7022 34.5262 61.5409C34.5262 61.3797 34.3955 61.249 34.2343 61.249C34.0731 61.249 33.9424 61.3797 33.9424 61.5409C33.9424 61.7022 34.0731 61.8328 34.2343 61.8328Z" fill="white"/>
<path d="M59.022 56.6827C59.1827 56.6827 59.313 56.5524 59.313 56.3916C59.313 56.2309 59.1827 56.1006 59.022 56.1006C58.8613 56.1006 58.731 56.2309 58.731 56.3916C58.731 56.5524 58.8613 56.6827 59.022 56.6827Z" fill="white"/>
<path d="M66.226 48.8582C66.3872 48.8582 66.5179 48.7275 66.5179 48.5663C66.5179 48.4051 66.3872 48.2744 66.226 48.2744C66.0648 48.2744 65.9341 48.4051 65.9341 48.5663C65.9341 48.7275 66.0648 48.8582 66.226 48.8582Z" fill="white"/>
<path d="M30.9175 21.2579C31.0783 21.2579 31.2086 21.1276 31.2086 20.9668C31.2086 20.8061 31.0783 20.6758 30.9175 20.6758C30.7568 20.6758 30.6265 20.8061 30.6265 20.9668C30.6265 21.1276 30.7568 21.2579 30.9175 21.2579Z" fill="white"/>
<path d="M38.8457 15.4346C39.0065 15.4346 39.1368 15.3043 39.1368 15.1436C39.1368 14.9828 39.0065 14.8525 38.8457 14.8525C38.685 14.8525 38.5547 14.9828 38.5547 15.1436C38.5547 15.3043 38.685 15.4346 38.8457 15.4346Z" fill="white"/>
<path d="M37.9849 14.8653C38.1456 14.8653 38.2759 14.735 38.2759 14.5742C38.2759 14.4135 38.1456 14.2832 37.9849 14.2832C37.8242 14.2832 37.6938 14.4135 37.6938 14.5742C37.6938 14.735 37.8242 14.8653 37.9849 14.8653Z" fill="white"/>
<path d="M37.2075 14.295C37.3683 14.295 37.4986 14.1647 37.4986 14.0039C37.4986 13.8432 37.3683 13.7129 37.2075 13.7129C37.0468 13.7129 36.9165 13.8432 36.9165 14.0039C36.9165 14.1647 37.0468 14.295 37.2075 14.295Z" fill="white"/>
<path d="M32.1617 22.7608C32.3224 22.7608 32.4527 22.6305 32.4527 22.4698C32.4527 22.309 32.3224 22.1787 32.1617 22.1787C32.0009 22.1787 31.8706 22.309 31.8706 22.4698C31.8706 22.6305 32.0009 22.7608 32.1617 22.7608Z" fill="white"/>
<path d="M43.8394 7.61041C44.0001 7.61041 44.1304 7.48011 44.1304 7.31937C44.1304 7.15863 44.0001 7.02832 43.8394 7.02832C43.6786 7.02832 43.5483 7.15863 43.5483 7.31937C43.5483 7.48011 43.6786 7.61041 43.8394 7.61041Z" fill="white"/>
<path d="M45.7574 16.0049C45.9181 16.0049 46.0484 15.8746 46.0484 15.7139C46.0484 15.5532 45.9181 15.4229 45.7574 15.4229C45.5966 15.4229 45.4663 15.5532 45.4663 15.7139C45.4663 15.8746 45.5966 16.0049 45.7574 16.0049Z" fill="white"/>
<path d="M42.7325 14.3663C42.8932 14.3663 43.0235 14.236 43.0235 14.0752C43.0235 13.9145 42.8932 13.7842 42.7325 13.7842C42.5717 13.7842 42.4414 13.9145 42.4414 14.0752C42.4414 14.236 42.5717 14.3663 42.7325 14.3663Z" fill="white"/>
<path d="M37.5503 16.5948C37.7111 16.5948 37.8414 16.4645 37.8414 16.3037C37.8414 16.143 37.7111 16.0127 37.5503 16.0127C37.3896 16.0127 37.2593 16.143 37.2593 16.3037C37.2593 16.4645 37.3896 16.5948 37.5503 16.5948Z" fill="white"/>
<path d="M60.4024 64.3712C60.5631 64.3712 60.6934 64.2409 60.6934 64.0801C60.6934 63.9194 60.5631 63.7891 60.4024 63.7891C60.2416 63.7891 60.1113 63.9194 60.1113 64.0801C60.1113 64.2409 60.2416 64.3712 60.4024 64.3712Z" fill="white"/>
<path d="M21.746 57.2274C21.9072 57.2274 22.0379 57.0967 22.0379 56.9355C22.0379 56.7742 21.9072 56.6436 21.746 56.6436C21.5848 56.6436 21.4541 56.7742 21.4541 56.9355C21.4541 57.0967 21.5848 57.2274 21.746 57.2274Z" fill="white"/>
<path d="M42.0068 60.9842C42.168 60.9842 42.2987 60.8535 42.2987 60.6923C42.2987 60.5311 42.168 60.4004 42.0068 60.4004C41.8455 60.4004 41.7148 60.5311 41.7148 60.6923C41.7148 60.8535 41.8455 60.9842 42.0068 60.9842Z" fill="white"/>
<path d="M27.7758 56.994C27.937 56.994 28.0677 56.8633 28.0677 56.7021C28.0677 56.5408 27.937 56.4102 27.7758 56.4102C27.6146 56.4102 27.4839 56.5408 27.4839 56.7021C27.4839 56.8633 27.6146 56.994 27.7758 56.994Z" fill="white"/>
<path d="M30.2958 61.1082C30.457 61.1082 30.5877 60.9775 30.5877 60.8163C30.5877 60.6551 30.457 60.5244 30.2958 60.5244C30.1346 60.5244 30.0039 60.6551 30.0039 60.8163C30.0039 60.9775 30.1346 61.1082 30.2958 61.1082Z" fill="white"/>
<path d="M48.8467 58.5167C49.0075 58.5167 49.1378 58.3864 49.1378 58.2256C49.1378 58.0649 49.0075 57.9346 48.8467 57.9346C48.686 57.9346 48.5557 58.0649 48.5557 58.2256C48.5557 58.3864 48.686 58.5167 48.8467 58.5167Z" fill="white"/>
<path d="M59.0738 52.7442C59.2345 52.7442 59.3648 52.6139 59.3648 52.4532C59.3648 52.2924 59.2345 52.1621 59.0738 52.1621C58.913 52.1621 58.7827 52.2924 58.7827 52.4532C58.7827 52.6139 58.913 52.7442 59.0738 52.7442Z" fill="white"/>
<path d="M66.8277 56.2872C66.9884 56.2872 67.1187 56.1569 67.1187 55.9961C67.1187 55.8354 66.9884 55.7051 66.8277 55.7051C66.6669 55.7051 66.5366 55.8354 66.5366 55.9961C66.5366 56.1569 66.6669 56.2872 66.8277 56.2872Z" fill="white"/>
<path d="M69.4707 57.9786C69.6315 57.9786 69.7618 57.8483 69.7618 57.6875C69.7618 57.5268 69.6315 57.3965 69.4707 57.3965C69.31 57.3965 69.1797 57.5268 69.1797 57.6875C69.1797 57.8483 69.31 57.9786 69.4707 57.9786Z" fill="white"/>
<path d="M69.9048 53.3663C70.0656 53.3663 70.1959 53.236 70.1959 53.0752C70.1959 52.9145 70.0656 52.7842 69.9048 52.7842C69.7441 52.7842 69.6138 52.9145 69.6138 53.0752C69.6138 53.236 69.7441 53.3663 69.9048 53.3663Z" fill="white"/>
<path d="M31.3516 46.837C31.5123 46.837 31.6426 46.7067 31.6426 46.5459C31.6426 46.3852 31.5123 46.2549 31.3516 46.2549C31.1909 46.2549 31.0605 46.3852 31.0605 46.5459C31.0605 46.7067 31.1909 46.837 31.3516 46.837Z" fill="white"/>
<path d="M31.4614 53.6191C31.676 53.6191 31.85 53.4451 31.85 53.2304C31.85 53.0158 31.676 52.8418 31.4614 52.8418C31.2468 52.8418 31.0728 53.0158 31.0728 53.2304C31.0728 53.4451 31.2468 53.6191 31.4614 53.6191Z" fill="white"/>
<path d="M33.7934 58.5419C34.0081 58.5419 34.1821 58.3679 34.1821 58.1533C34.1821 57.9386 34.0081 57.7646 33.7934 57.7646C33.5788 57.7646 33.4048 57.9386 33.4048 58.1533C33.4048 58.3679 33.5788 58.5419 33.7934 58.5419Z" fill="white"/>
<path d="M61.7236 53.412C61.9382 53.412 62.1122 53.238 62.1122 53.0234C62.1122 52.8088 61.9382 52.6348 61.7236 52.6348C61.509 52.6348 61.335 52.8088 61.335 53.0234C61.335 53.238 61.509 53.412 61.7236 53.412Z" fill="white"/>
<path d="M71.7763 52.8427C71.991 52.8427 72.165 52.6687 72.165 52.4541C72.165 52.2394 71.991 52.0654 71.7763 52.0654C71.5617 52.0654 71.3877 52.2394 71.3877 52.4541C71.3877 52.6687 71.5617 52.8427 71.7763 52.8427Z" fill="white"/>
<path d="M66.8017 50.7167C67.0164 50.7167 67.1904 50.5427 67.1904 50.3281C67.1904 50.1135 67.0164 49.9395 66.8017 49.9395C66.5871 49.9395 66.4131 50.1135 66.4131 50.3281C66.4131 50.5427 66.5871 50.7167 66.8017 50.7167Z" fill="white"/>
<path d="M61.7236 50.9247C61.9382 50.9247 62.1122 50.7507 62.1122 50.5361C62.1122 50.3215 61.9382 50.1475 61.7236 50.1475C61.509 50.1475 61.335 50.3215 61.335 50.5361C61.335 50.7507 61.509 50.9247 61.7236 50.9247Z" fill="white"/>
<path d="M51.2489 10.8845L52.2153 10.7921L51.2506 10.7377C51.2359 10.6466 51.1921 10.5626 51.1258 10.4983C51.0595 10.434 50.9742 10.3929 50.8827 10.381L50.7903 9.41895L50.735 10.3888C50.6489 10.4082 50.5709 10.4539 50.5118 10.5194C50.4527 10.585 50.4154 10.6673 50.4051 10.755L49.4171 10.8448L50.412 10.8984C50.4301 10.9805 50.4721 11.0554 50.5326 11.1138C50.5932 11.1721 50.6696 11.2114 50.7523 11.2265L50.8421 12.218L50.8948 11.2283C50.9818 11.2139 51.0623 11.1733 51.1256 11.1118C51.1889 11.0504 51.2319 10.9711 51.2489 10.8845ZM34.9381 21.6438L35.9046 21.5514L34.9399 21.497C34.9253 21.4057 34.8816 21.3217 34.8153 21.2574C34.749 21.1931 34.6636 21.152 34.572 21.1403L34.4795 20.1782L34.4251 21.148C34.3389 21.1673 34.2607 21.2129 34.2014 21.2785C34.1422 21.3441 34.1048 21.4264 34.0944 21.5142L33.1064 21.6041L34.1013 21.6576C34.1194 21.7397 34.1614 21.8146 34.2219 21.873C34.2824 21.9314 34.3588 21.9706 34.4415 21.9858L34.5314 22.9772L34.5849 21.9875C34.6719 21.9733 34.7525 21.9327 34.8156 21.8713C34.8788 21.8098 34.9216 21.7304 34.9381 21.6438ZM71.0685 50.0904L72.035 49.998L71.0703 49.9436C71.0557 49.8523 71.012 49.7683 70.9457 49.704C70.8794 49.6397 70.794 49.5986 70.7024 49.5869L70.61 48.6248L70.5555 49.5946C70.4694 49.614 70.3914 49.6597 70.3324 49.7253C70.2733 49.7909 70.236 49.8732 70.2256 49.9608L69.2376 50.0506L70.2325 50.1042C70.2507 50.1863 70.2927 50.2612 70.3532 50.3196C70.4137 50.378 70.4901 50.4172 70.5728 50.4324L70.6626 51.4238L70.7162 50.4341C70.8029 50.4195 70.8832 50.3788 70.9461 50.3174C71.0091 50.2559 71.0518 50.1767 71.0685 50.0904ZM31.6736 64.964L32.64 64.8716L31.6753 64.8172C31.6606 64.726 31.6169 64.642 31.5506 64.5778C31.4843 64.5135 31.399 64.4723 31.3074 64.4605L31.215 63.4993L31.1606 64.4683C31.0743 64.4875 30.9961 64.5331 30.9369 64.5987C30.8776 64.6643 30.8402 64.7467 30.8298 64.8344L29.8418 64.9243L30.8367 64.9778C30.8548 65.06 30.8967 65.135 30.9572 65.1933C31.0178 65.2517 31.0942 65.2909 31.177 65.306L31.2668 66.2974L31.3203 65.3077C31.4073 65.2934 31.4878 65.2528 31.551 65.1913C31.6141 65.1299 31.6569 65.0505 31.6736 64.964ZM67.9983 57.7094L68.9647 57.617L68 57.5626C67.9855 57.4714 67.9418 57.3873 67.8754 57.323C67.8091 57.2587 67.7237 57.2176 67.6321 57.2059L67.5397 56.2438L67.4853 57.2128C67.3992 57.2322 67.3212 57.2779 67.2621 57.3435C67.203 57.409 67.1657 57.4913 67.1554 57.579L66.1674 57.6688L67.1623 57.7224C67.1805 57.8045 67.2224 57.8794 67.2829 57.9378C67.3435 57.9961 67.4199 58.0354 67.5026 58.0505L67.5924 59.042L67.6459 58.0523C67.7327 58.0381 67.8131 57.9976 67.8761 57.9363C67.9391 57.875 67.9818 57.7958 67.9983 57.7094Z" fill="white"/>
<path d="M51.9896 30.8328C47.959 32.3994 44.0277 33.7976 40.7105 34.8357C33.9697 36.9465 15.5267 42.6603 4.38574 49.8631L5.31847 50.2258C12.1067 46.3912 16.519 45.1865 20.7604 43.8521C25.3722 42.4012 40.2812 38.9121 47.0323 37.0121C49.6552 36.2704 52.2506 35.435 54.8137 34.5075C53.9135 33.2515 52.9716 32.0259 51.9896 30.8328ZM56.9141 37.6201C55.9382 38.2791 55.1203 38.805 54.5477 39.1367C51.2313 41.0539 35.0631 52.0913 31.3849 54.6304C27.7066 57.1695 17.4975 66.8077 14.4921 69.6059L14.3884 70.745C24.0785 62.0395 27.1185 59.8925 30.9703 56.9622C35.7376 53.3349 45.5995 46.6244 48.9513 44.474C52.1554 42.4185 55.0452 40.528 57.6387 38.7981L57.5117 38.5848C57.3147 38.2619 57.1155 37.9403 56.9141 37.6201ZM72.0615 21.622C67.3408 24.3891 59.9006 27.7288 52.6823 30.5624C53.6605 31.7614 54.5942 32.9961 55.4813 34.264C61.1554 32.174 67.3814 29.3689 72.3214 25.9739C69.968 28.2038 62.1875 34.0187 57.4435 37.26C57.6879 37.6581 57.9246 38.0562 58.1534 38.4527C65.3406 33.643 70.177 30.103 72.9951 27.7357C76.8815 24.4712 85.7424 17.1648 89.1106 7.37109C83.2025 14.8856 76.2173 19.1857 72.0615 21.622Z" fill="#FC3D21"/>
<path d="M39.3081 47.7204C38.5438 46.7583 37.4867 45.4697 36.693 44.4705C35.6567 43.1669 34.6748 41.8211 33.7497 40.4364L32.8705 40.6566C33.9872 42.3973 35.1912 44.0804 36.478 45.6994C37.4383 46.9085 38.3115 47.8819 38.7588 48.4873C38.8495 48.6099 39.0291 48.8811 39.2718 49.2421L40.1191 48.6669C39.8375 48.3612 39.567 48.0455 39.3081 47.7204ZM44.8872 52.7847C44.2594 52.1906 42.7368 51.1982 41.152 49.7093C40.8022 49.9494 40.449 50.193 40.0949 50.4382C41.1183 51.8805 42.5122 53.6518 43.6039 54.1683C45.2482 54.9473 45.6913 53.5465 44.8872 52.7847ZM53.198 31.2024C44.1367 19.7971 33.0674 13.5314 28.295 17.3237C24.5882 20.2687 26.11 28.8757 31.2192 37.9172L32.0043 37.6494C26.8475 28.8403 25.4363 20.6539 28.9323 17.8755C33.3257 14.3847 43.9338 20.6746 52.7325 31.749C54.4687 33.924 56.0647 36.2072 57.5111 38.5848C62.7033 47.178 64.2967 54.949 60.7091 58.1212C59.6114 59.0919 56.2571 59.4728 51.8629 57.495C51.8015 57.5719 51.9 57.78 51.9768 57.831C55.77 59.3562 59.4033 59.9374 61.2377 58.4805C65.6457 54.9775 62.2594 42.6076 53.198 31.2024ZM14.3359 32.5557H20.1396L25.0105 40.8207V34.3693C25.0105 33.6439 24.0908 32.6982 23.7669 32.5557H27.7828C27.5367 32.6205 26.7465 33.5791 26.7465 34.3693V43.8521C26.7465 44.4351 27.5885 45.2383 27.9901 45.5492H22.3937L17.445 37.2453V43.7744C17.445 44.4221 18.0798 45.0439 18.7405 45.5751H14.4655C15.0743 45.316 15.6573 44.4998 15.7091 43.8521C15.7609 43.2044 15.7091 34.8487 15.7091 34.4859C15.7091 33.6957 14.9448 33.048 14.3359 32.5557Z" fill="white"/>
<path d="M67.424 45.5478H75.1449C74.7174 45.4441 74.2381 44.9389 73.979 44.2653C73.7199 43.5916 69.6263 32.5543 69.6263 32.5543H66.6907C65.8582 33.1537 64.9661 33.7859 64.0135 34.4517C64.0109 34.4759 64.0083 34.5001 64.004 34.5234C63.8761 35.3007 61.5789 43.621 61.439 44.0321C61.2446 44.6021 60.2471 45.2369 59.8455 45.5737H64.004C63.5894 45.1073 63.2526 44.6539 63.3303 44.1357C63.408 43.6175 63.6412 42.5812 63.6412 42.5812H67.9422C68.1365 43.0994 68.2816 43.5649 68.3567 44.0062C68.4474 44.5373 67.9033 45.1332 67.424 45.5478ZM64.0299 40.923L65.4808 36.1816L67.3981 40.923H64.0299ZM63.3761 33.0276L64.0169 32.5543H62.8899C63.0021 32.6579 63.1878 32.8212 63.3761 33.0276ZM33.8456 44.1357C33.9234 43.6175 34.1565 42.5812 34.1565 42.5812H38.4575C38.6518 43.0994 38.7969 43.5649 38.872 44.0062C38.9627 44.5373 38.4186 45.1332 37.9393 45.5478H44.737L45.1602 45.2636C44.8968 45.0305 44.6541 44.6807 44.4943 44.2653C44.2352 43.5916 40.1416 32.5543 40.1416 32.5543H33.4052C33.729 32.8523 34.6618 33.6554 34.5193 34.5234C34.3923 35.3007 32.0942 43.621 31.9543 44.0321C31.7599 44.6021 30.7624 45.2369 30.3608 45.5737H34.5193C34.1047 45.1073 33.7679 44.6539 33.8456 44.1357ZM35.9961 36.1816L37.9134 40.923H34.5452L35.9961 36.1816ZM57.3272 39.004C55.9928 39.8924 54.6544 40.7747 53.3121 41.651C53.9443 41.9576 54.4478 42.3428 54.4961 42.8403C54.586 43.7747 52.7084 44.2264 51.0114 44.0321C50.6723 43.9904 50.3397 43.9074 50.0208 43.7851L48.9516 44.4725C48.5845 44.7083 48.1389 44.9985 47.6302 45.3336V46.6748C47.967 46.0141 48.7037 45.4225 49.2754 45.3923C49.5216 45.3794 50.3766 46.1696 53.9002 45.9753C55.6102 45.8811 58.9137 44.058 58.8618 41.9593C58.8308 40.7192 58.183 39.7519 57.3272 39.004ZM47.6293 42.2443V43.6106C47.9358 43.4059 48.2427 43.2018 48.55 42.9983C48.2217 42.7743 47.9136 42.5221 47.6293 42.2443ZM56.1224 38.1464C55.8041 37.9596 55.4773 37.7878 55.143 37.6316C53.4848 36.8544 51.7489 36.7119 51.3862 35.6625C51.1305 34.9224 51.8525 34.2375 53.6144 34.2634C55.3762 34.2894 57.0085 35.3387 57.4489 35.7144V32.3721C57.3194 32.5016 56.7511 33.1537 56.2312 33.0457C54.7053 32.732 53.1512 32.5757 51.5934 32.5793C49.3653 32.5923 47.448 34.3144 47.3832 36.4916C47.2925 39.536 49.728 40.3651 51.1012 40.8444C51.2428 40.8936 51.4043 40.9463 51.5796 41.0024C52.8967 40.1457 53.9382 39.4859 54.548 39.1344C55.0818 38.8197 55.6068 38.4903 56.1224 38.1464Z" fill="white"/>
</svg>
