<svg width="92" height="18" viewBox="0 0 92 18" fill="none" xmlns="http://www.w3.org/2000/svg">
<path d="M52.9424 13.7575H47.2078V10.5378H52.945C53.888 10.5534 54.6498 11.2598 54.6498 12.1416C54.6498 13.0243 53.8855 13.7583 52.9424 13.7583V13.7575ZM47.2078 4.31703H52.843C53.6143 4.32653 54.268 4.92158 54.268 5.70231C54.268 6.47958 53.5832 7.09968 52.8094 7.09018H47.2086V4.31876L47.2078 4.31703ZM56.1819 8.82091C57.2424 8.07386 57.6432 6.83713 57.6432 5.4769C57.6432 2.91707 55.4884 0.86592 52.8465 0.86592H43.2774V17.2095H53.2222V17.2155C56.0152 17.2155 58.3401 15.0599 58.3401 12.4206C58.3401 10.6993 57.3037 9.42546 56.1819 8.82091V8.82091ZM70.9389 0.828783V10.0179C70.9389 12.8265 69.298 14.0045 67.2822 14.0045C65.2631 14.0045 63.636 12.8299 63.636 10.0196V0.830511H59.5639V10.0456C59.5639 15.9244 63.0159 17.6361 67.2822 17.6361C71.5521 17.6361 75.0075 15.9244 75.0075 10.0447V0.829647H70.9389V0.828783ZM85.227 7.19813C81.9313 6.48304 80.8181 6.16522 80.8181 5.11935C80.8181 4.19698 82.0116 3.73148 83.8952 3.73148C85.6743 3.73148 87.8222 4.49062 89.0831 5.2463L90.3682 1.92129C88.457 1.12501 86.158 0.363281 83.118 0.363281C79.1323 0.363281 76.6441 2.69511 76.6441 5.54512C76.6441 8.39859 78.6944 9.65346 82.7578 10.5145C85.9075 11.1795 86.7617 11.5811 86.7617 12.5613C86.7617 13.5416 85.4982 13.9034 83.7907 13.9034C81.5798 13.9034 79.4527 13.1659 77.449 12.3057L76.2373 15.5469C78.6331 16.6576 81.1204 17.5489 84.0861 17.5489C89.0279 17.5489 91.0436 15.1859 91.0436 12.4318C91.0436 9.98337 89.3483 8.09546 85.227 7.19813V7.19813ZM8.61341 0.865057L0.361328 17.206L5.26249 17.2095L6.49577 14.5814H12.125L10.3735 11.0016H8.15137L10.244 6.53227L15.5156 17.2095H20.4297L11.8564 0.86592H8.61341V0.865057ZM41.7703 6.29995C41.7703 3.32298 39.7295 0.908238 35.5348 0.908238H27.0599V17.2518L30.9878 17.2483V4.36021H35.806C37.2301 4.36021 37.8217 5.24285 37.8217 6.29131C37.8217 7.34322 37.1991 8.18527 35.7749 8.18527H32.4058L37.5039 17.2492H41.5363C41.5363 17.2492 38.0471 11.3246 38.0644 11.3212C40.5837 10.5378 41.7703 8.62832 41.7703 6.30081V6.29995ZM21.2709 17.2155H25.3335V0.87542H21.2709V17.2155Z" fill="white"/>
</svg>
