<svg width="84" height="44" viewBox="0 0 84 44" fill="none" xmlns="http://www.w3.org/2000/svg">
<g clip-path="url(#clip0_323_10403)">
<path d="M20.6169 20.6311H10.8517V23.5416H17.7772C17.4352 27.6214 14.0549 29.3608 10.8629 29.3608C6.78049 29.3608 3.21797 26.136 3.21797 21.6148C3.21797 17.2103 6.61381 13.8196 10.8724 13.8196C14.1577 13.8196 16.0931 15.9217 16.0931 15.9217L18.1227 13.8127C18.1227 13.8127 15.5179 10.9014 10.7679 10.9014C4.72071 10.9014 0.0415039 16.0271 0.0415039 21.563C0.0415039 26.9875 4.44348 32.2782 10.9234 32.2782C16.6217 32.2782 20.7939 28.3573 20.7939 22.5614C20.7939 21.3385 20.6169 20.6311 20.6169 20.6311V20.6311Z" fill="white"/>
<path d="M28.6167 18.5244C24.6094 18.5244 21.7378 21.6698 21.7378 25.3385C21.7378 29.0608 24.523 32.2649 28.6642 32.2649C32.4124 32.2649 35.4826 29.389 35.4826 25.418C35.4826 20.8675 31.9106 18.5244 28.6167 18.5244V18.5244ZM28.6564 21.2233C30.6272 21.2233 32.4944 22.8228 32.4944 25.3999C32.4944 27.9226 30.635 29.5678 28.6469 29.5678C26.4636 29.5678 24.7407 27.812 24.7407 25.38C24.7407 23.0007 26.442 21.2233 28.6564 21.2233V21.2233Z" fill="white"/>
<path d="M43.5776 18.5244C39.5703 18.5244 36.6987 21.6698 36.6987 25.3385C36.6987 29.0608 39.484 32.2649 43.6251 32.2649C47.3733 32.2649 50.4436 29.389 50.4436 25.418C50.4436 20.8675 46.8716 18.5244 43.5776 18.5244V18.5244ZM43.6174 21.2233C45.5882 21.2233 47.4554 22.8228 47.4554 25.3999C47.4554 27.9226 45.596 29.5678 43.6087 29.5678C41.4237 29.5678 39.7016 27.812 39.7016 25.38C39.7016 23.0007 41.403 21.2233 43.6174 21.2233Z" fill="white"/>
<path d="M58.2509 18.5322C54.5718 18.5322 51.6812 21.7666 51.6812 25.3973C51.6812 29.5324 55.0329 32.2753 58.187 32.2753C60.1371 32.2753 61.1743 31.4981 61.9395 30.6059V31.9601C61.9395 34.3308 60.5058 35.7498 58.3424 35.7498C56.2524 35.7498 55.2039 34.19 54.8404 33.3039L52.2106 34.4085C53.1433 36.3889 55.0209 38.4547 58.3649 38.4547C62.0215 38.4547 64.8085 36.1419 64.8085 31.2908V18.945H61.9395V20.1092C61.0586 19.1549 59.8521 18.5322 58.2509 18.5322V18.5322ZM58.5169 21.2259C60.3201 21.2259 62.1718 22.7718 62.1718 25.412C62.1718 28.0953 60.3236 29.5747 58.4771 29.5747C56.5167 29.5747 54.6918 27.9761 54.6918 25.4379C54.6918 22.7995 56.5866 21.2259 58.5169 21.2259V21.2259Z" fill="white"/>
<path d="M77.5635 18.5146C74.0942 18.5146 71.1812 21.2869 71.1812 25.3763C71.1812 29.7031 74.4284 32.2699 77.8968 32.2699C80.7926 32.2699 82.5691 30.6799 83.6297 29.2557L81.2633 27.6753C80.6501 28.6313 79.6241 29.5667 77.9124 29.5667C75.9882 29.5667 75.1038 28.5087 74.5554 27.4836L83.7307 23.6611L83.2549 22.5409C82.3679 20.3473 80.3003 18.5146 77.5635 18.5146ZM77.6835 21.1574C78.9341 21.1574 79.834 21.825 80.2157 22.6247L74.0882 25.1958C73.8239 23.2051 75.7032 21.1574 77.6835 21.1574Z" fill="white"/>
<path d="M66.8076 31.8627H69.8217V11.6104H66.8076V31.8627Z" fill="white"/>
</g>
<defs>
<clipPath id="clip0_323_10403">
<rect width="83.7731" height="43.182" fill="white" transform="translate(0 0.40918)"/>
</clipPath>
</defs>
</svg>
