<svg width="509" height="486" viewBox="0 0 509 486" fill="none" xmlns="http://www.w3.org/2000/svg">
<path d="M51.168 261.032C46.24 267.368 39.264 270.536 30.24 270.536C21.216 270.536 14.24 267.368 9.312 261.032C4.384 254.632 1.92 246.088 1.92 235.4C1.92 224.712 4.384 216.2 9.312 209.864C14.24 203.464 21.216 200.264 30.24 200.264C39.264 200.264 46.24 203.464 51.168 209.864C56.096 216.2 58.56 224.712 58.56 235.4C58.56 246.088 56.096 254.632 51.168 261.032ZM21.12 235.4C21.12 246.408 24.16 251.912 30.24 251.912C36.32 251.912 39.36 246.408 39.36 235.4C39.36 224.392 36.32 218.888 30.24 218.888C24.16 218.888 21.12 224.392 21.12 235.4ZM78.4433 201.8H94.7633V269H75.5633V221.864L63.9473 224.648L59.5312 208.616L78.4433 201.8Z" fill="#E2EAF3"/>
<g filter="url(#filter0_d_1155_8573)">
<rect x="158" y="60" width="290" height="363" rx="6.40177" fill="white"/>
</g>
<rect x="181" y="82.6396" width="21.312" height="21.312" rx="4.0473" fill="#4EAB79"/>
<path d="M191.709 99.1504C191.219 99.1504 190.84 99.0167 190.573 98.7493C190.305 98.4708 190.172 98.0753 190.172 97.5628V92.984L190.807 94.6718L186.963 89.1404C186.774 88.873 186.69 88.5778 186.712 88.2547C186.746 87.9205 186.88 87.642 187.114 87.4192C187.359 87.1852 187.704 87.0682 188.15 87.0682C188.462 87.0682 188.746 87.1462 189.002 87.3022C189.258 87.447 189.498 87.6977 189.72 88.0542L192.06 91.4967H191.458L193.798 88.0375C194.032 87.681 194.272 87.4303 194.517 87.2855C194.762 87.1406 195.051 87.0682 195.386 87.0682C195.809 87.0682 196.138 87.1741 196.372 87.3857C196.605 87.5974 196.728 87.8648 196.739 88.1879C196.761 88.511 196.661 88.8396 196.438 89.1738L192.628 94.6718L193.247 92.984V97.5628C193.247 98.6212 192.734 99.1504 191.709 99.1504Z" fill="white"/>
<path d="M207.105 99.5466C206.55 99.5466 206.091 99.4465 205.727 99.2465C205.363 99.0373 205.09 98.7282 204.909 98.319C204.736 97.9098 204.649 97.4006 204.649 96.7913V93.4905C204.649 93.1996 204.722 92.9859 204.868 92.8495C205.013 92.704 205.222 92.6312 205.495 92.6312C205.768 92.6312 205.977 92.704 206.122 92.8495C206.277 92.9859 206.354 93.1996 206.354 93.4905V96.8186C206.354 97.2915 206.45 97.6415 206.641 97.8689C206.832 98.0962 207.136 98.2099 207.555 98.2099C208.009 98.2099 208.382 98.0553 208.673 97.7461C208.964 97.4279 209.11 97.0096 209.11 96.4913V93.4905C209.11 93.1996 209.182 92.9859 209.328 92.8495C209.473 92.704 209.682 92.6312 209.955 92.6312C210.228 92.6312 210.437 92.704 210.583 92.8495C210.737 92.9859 210.814 93.1996 210.814 93.4905V98.6463C210.814 99.2283 210.537 99.5193 209.982 99.5193C209.719 99.5193 209.514 99.4465 209.369 99.301C209.223 99.1465 209.15 98.9282 209.15 98.6463V97.6097L209.341 98.0189C209.15 98.5099 208.859 98.8873 208.468 99.151C208.087 99.4147 207.632 99.5466 207.105 99.5466ZM215.672 99.5466C214.971 99.5466 214.362 99.4056 213.844 99.1237C213.326 98.8327 212.925 98.4236 212.644 97.8962C212.362 97.3688 212.221 96.7504 212.221 96.0412C212.221 95.5047 212.298 95.0273 212.453 94.609C212.616 94.1816 212.848 93.8224 213.148 93.5315C213.448 93.2314 213.812 93.0041 214.239 92.8495C214.667 92.6858 215.144 92.604 215.672 92.604C215.972 92.604 216.294 92.6449 216.64 92.7267C216.995 92.8086 217.327 92.945 217.636 93.1359C217.781 93.2268 217.877 93.336 217.922 93.4633C217.968 93.5906 217.977 93.7224 217.949 93.8588C217.922 93.9861 217.863 94.0998 217.772 94.1998C217.69 94.2907 217.586 94.3498 217.458 94.3771C217.331 94.3953 217.19 94.3635 217.036 94.2816C216.836 94.1634 216.631 94.0771 216.422 94.0225C216.213 93.9588 216.013 93.927 215.822 93.927C215.522 93.927 215.258 93.977 215.031 94.0771C214.803 94.168 214.608 94.3044 214.444 94.4862C214.289 94.659 214.171 94.8772 214.089 95.1409C214.008 95.4046 213.967 95.7093 213.967 96.0548C213.967 96.7277 214.126 97.2596 214.444 97.6506C214.771 98.0326 215.231 98.2235 215.822 98.2235C216.013 98.2235 216.208 98.1962 216.408 98.1417C216.617 98.0871 216.826 98.0007 217.036 97.8825C217.19 97.8007 217.327 97.7734 217.445 97.8007C217.572 97.828 217.677 97.8916 217.758 97.9916C217.84 98.0826 217.89 98.1962 217.908 98.3326C217.927 98.4599 217.908 98.5872 217.854 98.7145C217.808 98.8418 217.718 98.9464 217.581 99.0282C217.281 99.2101 216.963 99.342 216.626 99.4238C216.29 99.5056 215.972 99.5466 215.672 99.5466ZM221.972 99.5466C221.272 99.5466 220.663 99.4056 220.144 99.1237C219.626 98.8327 219.226 98.4236 218.944 97.8962C218.662 97.3688 218.521 96.7504 218.521 96.0412C218.521 95.5047 218.598 95.0273 218.753 94.609C218.917 94.1816 219.149 93.8224 219.449 93.5315C219.749 93.2314 220.112 93.0041 220.54 92.8495C220.967 92.6858 221.445 92.604 221.972 92.604C222.272 92.604 222.595 92.6449 222.94 92.7267C223.295 92.8086 223.627 92.945 223.936 93.1359C224.082 93.2268 224.177 93.336 224.222 93.4633C224.268 93.5906 224.277 93.7224 224.25 93.8588C224.222 93.9861 224.163 94.0998 224.072 94.1998C223.991 94.2907 223.886 94.3498 223.759 94.3771C223.631 94.3953 223.49 94.3635 223.336 94.2816C223.136 94.1634 222.931 94.0771 222.722 94.0225C222.513 93.9588 222.313 93.927 222.122 93.927C221.822 93.927 221.558 93.977 221.331 94.0771C221.104 94.168 220.908 94.3044 220.744 94.4862C220.59 94.659 220.472 94.8772 220.39 95.1409C220.308 95.4046 220.267 95.7093 220.267 96.0548C220.267 96.7277 220.426 97.2596 220.744 97.6506C221.072 98.0326 221.531 98.2235 222.122 98.2235C222.313 98.2235 222.508 98.1962 222.708 98.1417C222.918 98.0871 223.127 98.0007 223.336 97.8825C223.49 97.8007 223.627 97.7734 223.745 97.8007C223.872 97.828 223.977 97.8916 224.059 97.9916C224.141 98.0826 224.191 98.1962 224.209 98.3326C224.227 98.4599 224.209 98.5872 224.154 98.7145C224.109 98.8418 224.018 98.9464 223.881 99.0282C223.581 99.2101 223.263 99.342 222.927 99.4238C222.59 99.5056 222.272 99.5466 221.972 99.5466ZM227.479 99.5466C226.997 99.5466 226.565 99.4556 226.183 99.2738C225.81 99.0828 225.515 98.8282 225.297 98.5099C225.087 98.1917 224.983 97.8325 224.983 97.4324C224.983 96.9414 225.11 96.5549 225.365 96.273C225.619 95.9821 226.033 95.7729 226.606 95.6456C227.179 95.5183 227.947 95.4547 228.911 95.4547H229.593V96.4367H228.925C228.361 96.4367 227.911 96.464 227.574 96.5186C227.238 96.5731 226.997 96.6686 226.852 96.805C226.715 96.9323 226.647 97.1141 226.647 97.3506C226.647 97.6506 226.752 97.8962 226.961 98.0871C227.17 98.2781 227.461 98.3735 227.834 98.3735C228.134 98.3735 228.397 98.3053 228.625 98.1689C228.861 98.0235 229.048 97.828 229.184 97.5824C229.32 97.3369 229.388 97.055 229.388 96.7368V95.1682C229.388 94.7136 229.288 94.3862 229.088 94.1862C228.888 93.9861 228.552 93.8861 228.079 93.8861C227.815 93.8861 227.529 93.9179 227.22 93.9816C226.92 94.0452 226.601 94.1543 226.265 94.3089C226.092 94.3908 225.938 94.4135 225.801 94.3771C225.674 94.3408 225.574 94.268 225.501 94.1589C225.428 94.0407 225.392 93.9134 225.392 93.777C225.392 93.6406 225.428 93.5087 225.501 93.3814C225.574 93.245 225.697 93.145 225.869 93.0814C226.288 92.9086 226.688 92.7858 227.07 92.7131C227.461 92.6403 227.815 92.604 228.134 92.604C228.788 92.604 229.325 92.704 229.743 92.904C230.171 93.1041 230.489 93.4087 230.698 93.8179C230.907 94.218 231.012 94.7363 231.012 95.3728V98.6463C231.012 98.9282 230.943 99.1465 230.807 99.301C230.671 99.4465 230.475 99.5193 230.221 99.5193C229.966 99.5193 229.766 99.4465 229.62 99.301C229.484 99.1465 229.416 98.9282 229.416 98.6463V97.9916H229.525C229.461 98.3099 229.334 98.5872 229.143 98.8237C228.961 99.051 228.729 99.2283 228.447 99.3556C228.165 99.4829 227.843 99.5466 227.479 99.5466ZM233.588 101.974C233.315 101.974 233.106 101.902 232.96 101.756C232.815 101.611 232.742 101.397 232.742 101.115V93.4905C232.742 93.2087 232.815 92.995 232.96 92.8495C233.106 92.704 233.31 92.6312 233.574 92.6312C233.847 92.6312 234.056 92.704 234.202 92.8495C234.347 92.995 234.42 93.2087 234.42 93.4905V94.5544L234.27 94.1453C234.406 93.6815 234.684 93.3087 235.102 93.0268C235.529 92.7449 236.025 92.604 236.589 92.604C237.17 92.604 237.68 92.7449 238.116 93.0268C238.562 93.3087 238.907 93.7088 239.153 94.2271C239.398 94.7363 239.521 95.3501 239.521 96.0684C239.521 96.7777 239.398 97.396 239.153 97.9234C238.907 98.4417 238.566 98.8418 238.13 99.1237C237.693 99.4056 237.18 99.5466 236.589 99.5466C236.034 99.5466 235.547 99.4102 235.129 99.1374C234.711 98.8555 234.429 98.4918 234.283 98.0462H234.447V101.115C234.447 101.397 234.37 101.611 234.215 101.756C234.07 101.902 233.861 101.974 233.588 101.974ZM236.111 98.2508C236.448 98.2508 236.743 98.1689 236.998 98.0053C237.252 97.8416 237.448 97.6006 237.584 97.2824C237.73 96.955 237.802 96.5504 237.802 96.0684C237.802 95.341 237.648 94.8 237.339 94.4453C237.03 94.0816 236.62 93.8997 236.111 93.8997C235.775 93.8997 235.479 93.9816 235.225 94.1453C234.97 94.2998 234.77 94.5408 234.624 94.8682C234.488 95.1864 234.42 95.5865 234.42 96.0684C234.42 96.7868 234.574 97.3324 234.884 97.7052C235.193 98.0689 235.602 98.2508 236.111 98.2508Z" fill="black"/>
<path d="M191.709 99.1504C191.219 99.1504 190.84 99.0167 190.573 98.7493C190.305 98.4708 190.172 98.0753 190.172 97.5628V92.984L190.807 94.6718L186.963 89.1404C186.774 88.873 186.69 88.5778 186.712 88.2547C186.746 87.9205 186.88 87.642 187.114 87.4192C187.359 87.1852 187.704 87.0682 188.15 87.0682C188.462 87.0682 188.746 87.1462 189.002 87.3022C189.258 87.447 189.498 87.6977 189.72 88.0542L192.06 91.4967H191.458L193.798 88.0375C194.032 87.681 194.272 87.4303 194.517 87.2855C194.762 87.1406 195.051 87.0682 195.386 87.0682C195.809 87.0682 196.138 87.1741 196.372 87.3857C196.605 87.5974 196.728 87.8648 196.739 88.1879C196.761 88.511 196.661 88.8396 196.438 89.1738L192.628 94.6718L193.247 92.984V97.5628C193.247 98.6212 192.734 99.1504 191.709 99.1504Z" fill="white"/>
<path d="M207.105 99.5466C206.55 99.5466 206.091 99.4465 205.727 99.2465C205.363 99.0373 205.09 98.7282 204.909 98.319C204.736 97.9098 204.649 97.4006 204.649 96.7913V93.4905C204.649 93.1996 204.722 92.9859 204.868 92.8495C205.013 92.704 205.222 92.6312 205.495 92.6312C205.768 92.6312 205.977 92.704 206.122 92.8495C206.277 92.9859 206.354 93.1996 206.354 93.4905V96.8186C206.354 97.2915 206.45 97.6415 206.641 97.8689C206.832 98.0962 207.136 98.2099 207.555 98.2099C208.009 98.2099 208.382 98.0553 208.673 97.7461C208.964 97.4279 209.11 97.0096 209.11 96.4913V93.4905C209.11 93.1996 209.182 92.9859 209.328 92.8495C209.473 92.704 209.682 92.6312 209.955 92.6312C210.228 92.6312 210.437 92.704 210.583 92.8495C210.737 92.9859 210.814 93.1996 210.814 93.4905V98.6463C210.814 99.2283 210.537 99.5193 209.982 99.5193C209.719 99.5193 209.514 99.4465 209.369 99.301C209.223 99.1465 209.15 98.9282 209.15 98.6463V97.6097L209.341 98.0189C209.15 98.5099 208.859 98.8873 208.468 99.151C208.087 99.4147 207.632 99.5466 207.105 99.5466ZM215.672 99.5466C214.971 99.5466 214.362 99.4056 213.844 99.1237C213.326 98.8327 212.925 98.4236 212.644 97.8962C212.362 97.3688 212.221 96.7504 212.221 96.0412C212.221 95.5047 212.298 95.0273 212.453 94.609C212.616 94.1816 212.848 93.8224 213.148 93.5315C213.448 93.2314 213.812 93.0041 214.239 92.8495C214.667 92.6858 215.144 92.604 215.672 92.604C215.972 92.604 216.294 92.6449 216.64 92.7267C216.995 92.8086 217.327 92.945 217.636 93.1359C217.781 93.2268 217.877 93.336 217.922 93.4633C217.968 93.5906 217.977 93.7224 217.949 93.8588C217.922 93.9861 217.863 94.0998 217.772 94.1998C217.69 94.2907 217.586 94.3498 217.458 94.3771C217.331 94.3953 217.19 94.3635 217.036 94.2816C216.836 94.1634 216.631 94.0771 216.422 94.0225C216.213 93.9588 216.013 93.927 215.822 93.927C215.522 93.927 215.258 93.977 215.031 94.0771C214.803 94.168 214.608 94.3044 214.444 94.4862C214.289 94.659 214.171 94.8772 214.089 95.1409C214.008 95.4046 213.967 95.7093 213.967 96.0548C213.967 96.7277 214.126 97.2596 214.444 97.6506C214.771 98.0326 215.231 98.2235 215.822 98.2235C216.013 98.2235 216.208 98.1962 216.408 98.1417C216.617 98.0871 216.826 98.0007 217.036 97.8825C217.19 97.8007 217.327 97.7734 217.445 97.8007C217.572 97.828 217.677 97.8916 217.758 97.9916C217.84 98.0826 217.89 98.1962 217.908 98.3326C217.927 98.4599 217.908 98.5872 217.854 98.7145C217.808 98.8418 217.718 98.9464 217.581 99.0282C217.281 99.2101 216.963 99.342 216.626 99.4238C216.29 99.5056 215.972 99.5466 215.672 99.5466ZM221.972 99.5466C221.272 99.5466 220.663 99.4056 220.144 99.1237C219.626 98.8327 219.226 98.4236 218.944 97.8962C218.662 97.3688 218.521 96.7504 218.521 96.0412C218.521 95.5047 218.598 95.0273 218.753 94.609C218.917 94.1816 219.149 93.8224 219.449 93.5315C219.749 93.2314 220.112 93.0041 220.54 92.8495C220.967 92.6858 221.445 92.604 221.972 92.604C222.272 92.604 222.595 92.6449 222.94 92.7267C223.295 92.8086 223.627 92.945 223.936 93.1359C224.082 93.2268 224.177 93.336 224.222 93.4633C224.268 93.5906 224.277 93.7224 224.25 93.8588C224.222 93.9861 224.163 94.0998 224.072 94.1998C223.991 94.2907 223.886 94.3498 223.759 94.3771C223.631 94.3953 223.49 94.3635 223.336 94.2816C223.136 94.1634 222.931 94.0771 222.722 94.0225C222.513 93.9588 222.313 93.927 222.122 93.927C221.822 93.927 221.558 93.977 221.331 94.0771C221.104 94.168 220.908 94.3044 220.744 94.4862C220.59 94.659 220.472 94.8772 220.39 95.1409C220.308 95.4046 220.267 95.7093 220.267 96.0548C220.267 96.7277 220.426 97.2596 220.744 97.6506C221.072 98.0326 221.531 98.2235 222.122 98.2235C222.313 98.2235 222.508 98.1962 222.708 98.1417C222.918 98.0871 223.127 98.0007 223.336 97.8825C223.49 97.8007 223.627 97.7734 223.745 97.8007C223.872 97.828 223.977 97.8916 224.059 97.9916C224.141 98.0826 224.191 98.1962 224.209 98.3326C224.227 98.4599 224.209 98.5872 224.154 98.7145C224.109 98.8418 224.018 98.9464 223.881 99.0282C223.581 99.2101 223.263 99.342 222.927 99.4238C222.59 99.5056 222.272 99.5466 221.972 99.5466ZM227.479 99.5466C226.997 99.5466 226.565 99.4556 226.183 99.2738C225.81 99.0828 225.515 98.8282 225.297 98.5099C225.087 98.1917 224.983 97.8325 224.983 97.4324C224.983 96.9414 225.11 96.5549 225.365 96.273C225.619 95.9821 226.033 95.7729 226.606 95.6456C227.179 95.5183 227.947 95.4547 228.911 95.4547H229.593V96.4367H228.925C228.361 96.4367 227.911 96.464 227.574 96.5186C227.238 96.5731 226.997 96.6686 226.852 96.805C226.715 96.9323 226.647 97.1141 226.647 97.3506C226.647 97.6506 226.752 97.8962 226.961 98.0871C227.17 98.2781 227.461 98.3735 227.834 98.3735C228.134 98.3735 228.397 98.3053 228.625 98.1689C228.861 98.0235 229.048 97.828 229.184 97.5824C229.32 97.3369 229.388 97.055 229.388 96.7368V95.1682C229.388 94.7136 229.288 94.3862 229.088 94.1862C228.888 93.9861 228.552 93.8861 228.079 93.8861C227.815 93.8861 227.529 93.9179 227.22 93.9816C226.92 94.0452 226.601 94.1543 226.265 94.3089C226.092 94.3908 225.938 94.4135 225.801 94.3771C225.674 94.3408 225.574 94.268 225.501 94.1589C225.428 94.0407 225.392 93.9134 225.392 93.777C225.392 93.6406 225.428 93.5087 225.501 93.3814C225.574 93.245 225.697 93.145 225.869 93.0814C226.288 92.9086 226.688 92.7858 227.07 92.7131C227.461 92.6403 227.815 92.604 228.134 92.604C228.788 92.604 229.325 92.704 229.743 92.904C230.171 93.1041 230.489 93.4087 230.698 93.8179C230.907 94.218 231.012 94.7363 231.012 95.3728V98.6463C231.012 98.9282 230.943 99.1465 230.807 99.301C230.671 99.4465 230.475 99.5193 230.221 99.5193C229.966 99.5193 229.766 99.4465 229.62 99.301C229.484 99.1465 229.416 98.9282 229.416 98.6463V97.9916H229.525C229.461 98.3099 229.334 98.5872 229.143 98.8237C228.961 99.051 228.729 99.2283 228.447 99.3556C228.165 99.4829 227.843 99.5466 227.479 99.5466ZM233.588 101.974C233.315 101.974 233.106 101.902 232.96 101.756C232.815 101.611 232.742 101.397 232.742 101.115V93.4905C232.742 93.2087 232.815 92.995 232.96 92.8495C233.106 92.704 233.31 92.6312 233.574 92.6312C233.847 92.6312 234.056 92.704 234.202 92.8495C234.347 92.995 234.42 93.2087 234.42 93.4905V94.5544L234.27 94.1453C234.406 93.6815 234.684 93.3087 235.102 93.0268C235.529 92.7449 236.025 92.604 236.589 92.604C237.17 92.604 237.68 92.7449 238.116 93.0268C238.562 93.3087 238.907 93.7088 239.153 94.2271C239.398 94.7363 239.521 95.3501 239.521 96.0684C239.521 96.7777 239.398 97.396 239.153 97.9234C238.907 98.4417 238.566 98.8418 238.13 99.1237C237.693 99.4056 237.18 99.5466 236.589 99.5466C236.034 99.5466 235.547 99.4102 235.129 99.1374C234.711 98.8555 234.429 98.4918 234.283 98.0462H234.447V101.115C234.447 101.397 234.37 101.611 234.215 101.756C234.07 101.902 233.861 101.974 233.588 101.974ZM236.111 98.2508C236.448 98.2508 236.743 98.1689 236.998 98.0053C237.252 97.8416 237.448 97.6006 237.584 97.2824C237.73 96.955 237.802 96.5504 237.802 96.0684C237.802 95.341 237.648 94.8 237.339 94.4453C237.03 94.0816 236.62 93.8997 236.111 93.8997C235.775 93.8997 235.479 93.9816 235.225 94.1453C234.97 94.2998 234.77 94.5408 234.624 94.8682C234.488 95.1864 234.42 95.5865 234.42 96.0684C234.42 96.7868 234.574 97.3324 234.884 97.7052C235.193 98.0689 235.602 98.2508 236.111 98.2508ZM243.362 99.5466C242.971 99.5466 242.557 99.5056 242.121 99.4238C241.684 99.342 241.293 99.201 240.948 99.001C240.802 98.91 240.698 98.8055 240.634 98.6873C240.58 98.56 240.557 98.4372 240.566 98.319C240.584 98.1917 240.63 98.0826 240.702 97.9916C240.784 97.9007 240.884 97.8416 241.002 97.8143C241.13 97.787 241.266 97.8098 241.412 97.8825C241.775 98.0553 242.116 98.178 242.435 98.2508C242.753 98.3144 243.067 98.3463 243.376 98.3463C243.812 98.3463 244.135 98.2735 244.344 98.128C244.562 97.9734 244.672 97.7734 244.672 97.5279C244.672 97.3187 244.599 97.1596 244.453 97.0505C244.317 96.9323 244.108 96.8459 243.826 96.7913L242.462 96.5322C241.898 96.4231 241.466 96.2185 241.166 95.9184C240.875 95.6092 240.73 95.2137 240.73 94.7318C240.73 94.2953 240.848 93.9179 241.084 93.5997C241.33 93.2814 241.666 93.0359 242.094 92.8631C242.521 92.6904 243.012 92.604 243.567 92.604C243.967 92.604 244.34 92.6494 244.685 92.7404C245.04 92.8222 245.381 92.9541 245.708 93.1359C245.845 93.2087 245.935 93.3041 245.981 93.4223C246.035 93.5406 246.049 93.6633 246.022 93.7906C245.995 93.9088 245.94 94.0179 245.858 94.118C245.776 94.2089 245.672 94.268 245.544 94.2953C245.426 94.3135 245.29 94.2862 245.135 94.2134C244.853 94.068 244.581 93.9634 244.317 93.8997C244.062 93.8361 243.817 93.8043 243.58 93.8043C243.135 93.8043 242.803 93.8816 242.585 94.0361C242.376 94.1907 242.271 94.3953 242.271 94.6499C242.271 94.8409 242.335 95 242.462 95.1273C242.589 95.2546 242.785 95.341 243.048 95.3865L244.412 95.6456C245.003 95.7547 245.449 95.9548 245.749 96.2458C246.058 96.5367 246.213 96.9277 246.213 97.4188C246.213 98.0826 245.954 98.6054 245.435 98.9873C244.917 99.3601 244.226 99.5466 243.362 99.5466Z" fill="black"/>
<path d="M184.937 144.512C184.039 144.512 183.284 144.314 182.671 143.917C182.058 143.511 181.626 142.963 181.376 142.272L182.904 141.378C183.258 142.302 183.953 142.764 184.989 142.764C185.49 142.764 185.857 142.673 186.09 142.492C186.323 142.311 186.44 142.082 186.44 141.806C186.44 141.486 186.297 141.24 186.012 141.067C185.727 140.886 185.218 140.692 184.484 140.485C184.078 140.364 183.733 140.243 183.448 140.122C183.172 140.001 182.891 139.841 182.606 139.643C182.33 139.435 182.118 139.176 181.971 138.866C181.825 138.555 181.751 138.192 181.751 137.778C181.751 136.957 182.04 136.306 182.619 135.822C183.206 135.33 183.91 135.084 184.73 135.084C185.464 135.084 186.107 135.265 186.66 135.628C187.221 135.982 187.657 136.478 187.968 137.117L186.465 137.985C186.103 137.208 185.524 136.819 184.73 136.819C184.359 136.819 184.065 136.906 183.849 137.078C183.642 137.242 183.538 137.458 183.538 137.726C183.538 138.011 183.655 138.244 183.888 138.425C184.13 138.598 184.588 138.788 185.261 138.995C185.537 139.081 185.745 139.151 185.883 139.202C186.029 139.245 186.224 139.319 186.465 139.422C186.716 139.517 186.906 139.608 187.035 139.694C187.173 139.781 187.329 139.897 187.502 140.044C187.674 140.191 187.804 140.342 187.89 140.497C187.985 140.653 188.063 140.843 188.123 141.067C188.192 141.283 188.227 141.521 188.227 141.78C188.227 142.617 187.92 143.282 187.307 143.774C186.703 144.266 185.913 144.512 184.937 144.512ZM190.144 137.078C189.867 137.078 189.626 136.979 189.418 136.78C189.22 136.573 189.121 136.331 189.121 136.055C189.121 135.779 189.22 135.537 189.418 135.33C189.626 135.123 189.867 135.019 190.144 135.019C190.429 135.019 190.67 135.123 190.869 135.33C191.076 135.537 191.18 135.779 191.18 136.055C191.18 136.331 191.076 136.573 190.869 136.78C190.67 136.979 190.429 137.078 190.144 137.078ZM189.315 144.331V137.855H190.986V144.331H189.315ZM197.475 137.855H199.107V144.02C199.107 145.022 198.775 145.786 198.11 146.313C197.454 146.839 196.659 147.103 195.727 147.103C195.027 147.103 194.41 146.969 193.875 146.701C193.348 146.433 192.942 146.041 192.657 145.523L194.082 144.707C194.41 145.311 194.976 145.613 195.779 145.613C196.305 145.613 196.72 145.475 197.022 145.199C197.324 144.923 197.475 144.53 197.475 144.02V143.321C196.983 143.977 196.292 144.305 195.403 144.305C194.488 144.305 193.719 143.986 193.098 143.347C192.485 142.699 192.178 141.913 192.178 140.99C192.178 140.074 192.489 139.293 193.111 138.645C193.732 137.998 194.496 137.674 195.403 137.674C196.292 137.674 196.983 138.002 197.475 138.658V137.855ZM194.354 142.272C194.699 142.6 195.135 142.764 195.662 142.764C196.189 142.764 196.62 142.6 196.957 142.272C197.302 141.935 197.475 141.508 197.475 140.99C197.475 140.48 197.302 140.061 196.957 139.733C196.62 139.397 196.189 139.228 195.662 139.228C195.135 139.228 194.699 139.397 194.354 139.733C194.017 140.061 193.849 140.48 193.849 140.99C193.849 141.508 194.017 141.935 194.354 142.272ZM204.223 137.674C204.931 137.674 205.513 137.911 205.971 138.386C206.437 138.861 206.67 139.517 206.67 140.355V144.331H205V140.562C205 140.13 204.883 139.802 204.65 139.578C204.417 139.345 204.106 139.228 203.717 139.228C203.286 139.228 202.94 139.362 202.681 139.63C202.422 139.897 202.293 140.299 202.293 140.834V144.331H200.622V137.855H202.293V138.581C202.699 137.976 203.342 137.674 204.223 137.674ZM214.793 144.512C213.783 144.512 212.954 144.227 212.306 143.658C211.659 143.088 211.335 142.324 211.335 141.365V135.265H213.109V141.223C213.109 141.698 213.243 142.073 213.511 142.349C213.787 142.626 214.214 142.764 214.793 142.764C215.371 142.764 215.794 142.626 216.062 142.349C216.338 142.073 216.476 141.698 216.476 141.223V135.265H218.264V141.365C218.264 142.324 217.94 143.088 217.292 143.658C216.645 144.227 215.812 144.512 214.793 144.512ZM223.565 137.674C224.437 137.674 225.18 138.006 225.793 138.671C226.414 139.328 226.725 140.135 226.725 141.093C226.725 142.052 226.414 142.863 225.793 143.528C225.18 144.184 224.437 144.512 223.565 144.512C222.658 144.512 221.959 144.197 221.467 143.567V146.921H219.796V137.855H221.467V138.62C221.959 137.989 222.658 137.674 223.565 137.674ZM221.972 142.414C222.309 142.751 222.736 142.919 223.254 142.919C223.772 142.919 224.2 142.751 224.536 142.414C224.882 142.069 225.054 141.629 225.054 141.093C225.054 140.558 224.882 140.122 224.536 139.785C224.2 139.44 223.772 139.267 223.254 139.267C222.736 139.267 222.309 139.44 221.972 139.785C221.635 140.122 221.467 140.558 221.467 141.093C221.467 141.629 221.635 142.069 221.972 142.414Z" fill="black"/>
<path d="M209.725 191.646V185.502H213.408V186.162H210.469V188.238H213.133V188.898H210.469V191.646H209.725ZM217.202 189.762V187.038H217.91V191.646H217.202V190.866H217.154C217.046 191.1 216.878 191.299 216.65 191.463C216.422 191.625 216.134 191.706 215.786 191.706C215.498 191.706 215.242 191.643 215.018 191.517C214.794 191.389 214.618 191.197 214.49 190.941C214.362 190.683 214.298 190.358 214.298 189.966V187.038H215.006V189.918C215.006 190.254 215.1 190.522 215.288 190.722C215.478 190.922 215.72 191.022 216.014 191.022C216.19 191.022 216.369 190.977 216.551 190.887C216.735 190.797 216.889 190.659 217.013 190.473C217.139 190.287 217.202 190.05 217.202 189.762ZM219.914 185.502V191.646H219.206V185.502H219.914ZM221.919 185.502V191.646H221.211V185.502H221.919ZM225.855 188.682V189.342H223.167V188.682H225.855ZM227.808 188.874V191.646H227.101V187.038H227.784V187.758H227.844C227.952 187.524 228.116 187.336 228.336 187.194C228.556 187.05 228.84 186.978 229.188 186.978C229.5 186.978 229.773 187.042 230.007 187.17C230.241 187.296 230.423 187.488 230.553 187.746C230.683 188.002 230.748 188.326 230.748 188.718V191.646H230.04V188.766C230.04 188.404 229.946 188.122 229.758 187.92C229.57 187.716 229.312 187.614 228.984 187.614C228.758 187.614 228.556 187.663 228.378 187.761C228.202 187.859 228.063 188.002 227.961 188.19C227.859 188.378 227.808 188.606 227.808 188.874ZM233.398 191.753C233.106 191.753 232.841 191.699 232.603 191.589C232.365 191.477 232.176 191.316 232.036 191.106C231.896 190.894 231.826 190.638 231.826 190.338C231.826 190.074 231.878 189.86 231.982 189.696C232.086 189.53 232.225 189.4 232.399 189.306C232.573 189.212 232.765 189.142 232.975 189.096C233.187 189.048 233.4 189.01 233.614 188.982C233.894 188.946 234.121 188.919 234.295 188.901C234.47 188.881 234.598 188.848 234.678 188.802C234.76 188.756 234.801 188.676 234.801 188.562V188.538C234.801 188.242 234.72 188.012 234.558 187.848C234.398 187.684 234.156 187.602 233.83 187.602C233.492 187.602 233.227 187.676 233.035 187.824C232.843 187.972 232.708 188.13 232.63 188.298L231.958 188.058C232.078 187.778 232.238 187.56 232.438 187.404C232.64 187.246 232.86 187.136 233.098 187.074C233.338 187.01 233.574 186.978 233.806 186.978C233.954 186.978 234.124 186.996 234.316 187.032C234.509 187.066 234.696 187.137 234.876 187.245C235.058 187.353 235.209 187.516 235.329 187.734C235.449 187.952 235.509 188.244 235.509 188.61V191.646H234.801V191.022H234.765C234.717 191.122 234.637 191.229 234.525 191.343C234.413 191.457 234.265 191.554 234.079 191.634C233.893 191.714 233.666 191.753 233.398 191.753ZM233.506 191.118C233.786 191.118 234.022 191.063 234.214 190.953C234.407 190.843 234.553 190.701 234.651 190.527C234.751 190.353 234.801 190.17 234.801 189.978V189.33C234.771 189.366 234.705 189.399 234.603 189.429C234.503 189.457 234.387 189.482 234.256 189.504C234.126 189.524 233.999 189.542 233.875 189.558C233.753 189.572 233.654 189.584 233.578 189.594C233.394 189.618 233.222 189.657 233.062 189.711C232.904 189.763 232.776 189.842 232.678 189.948C232.582 190.052 232.534 190.194 232.534 190.374C232.534 190.62 232.625 190.806 232.807 190.932C232.991 191.056 233.224 191.118 233.506 191.118ZM236.801 191.646V187.038H237.485V187.758H237.545C237.641 187.512 237.796 187.321 238.01 187.185C238.224 187.047 238.481 186.978 238.781 186.978C239.085 186.978 239.338 187.047 239.54 187.185C239.744 187.321 239.903 187.512 240.017 187.758H240.065C240.183 187.52 240.36 187.331 240.596 187.191C240.832 187.049 241.115 186.978 241.445 186.978C241.857 186.978 242.194 187.107 242.456 187.365C242.718 187.621 242.849 188.02 242.849 188.562V191.646H242.141V188.562C242.141 188.222 242.048 187.979 241.862 187.833C241.676 187.687 241.457 187.614 241.205 187.614C240.881 187.614 240.63 187.712 240.452 187.908C240.274 188.102 240.185 188.348 240.185 188.646V191.646H239.465V188.49C239.465 188.228 239.38 188.017 239.21 187.857C239.04 187.695 238.821 187.614 238.553 187.614C238.369 187.614 238.197 187.663 238.037 187.761C237.879 187.859 237.751 187.995 237.653 188.169C237.557 188.341 237.509 188.54 237.509 188.766V191.646H236.801ZM246.075 191.741C245.631 191.741 245.248 191.644 244.926 191.448C244.606 191.25 244.359 190.974 244.185 190.62C244.013 190.264 243.927 189.85 243.927 189.378C243.927 188.906 244.013 188.49 244.185 188.13C244.359 187.768 244.601 187.486 244.911 187.284C245.223 187.08 245.587 186.978 246.003 186.978C246.243 186.978 246.48 187.018 246.714 187.098C246.948 187.178 247.161 187.308 247.353 187.488C247.545 187.666 247.698 187.902 247.812 188.196C247.926 188.49 247.983 188.852 247.983 189.282V189.582H244.431V188.97H247.263C247.263 188.71 247.211 188.478 247.107 188.274C247.005 188.07 246.859 187.909 246.669 187.791C246.481 187.673 246.259 187.614 246.003 187.614C245.721 187.614 245.477 187.684 245.271 187.824C245.067 187.962 244.91 188.142 244.8 188.364C244.69 188.586 244.635 188.824 244.635 189.078V189.486C244.635 189.834 244.695 190.129 244.815 190.371C244.937 190.611 245.106 190.794 245.322 190.92C245.538 191.044 245.789 191.106 246.075 191.106C246.261 191.106 246.429 191.08 246.579 191.028C246.731 190.974 246.862 190.894 246.972 190.788C247.082 190.68 247.167 190.546 247.227 190.386L247.911 190.578C247.839 190.81 247.718 191.014 247.548 191.19C247.378 191.364 247.168 191.5 246.918 191.598C246.668 191.694 246.387 191.741 246.075 191.741Z" fill="#4F4F4F"/>
<path d="M195.254 187.398C196.712 187.398 197.894 186.216 197.894 184.758C197.894 183.3 196.712 182.118 195.254 182.118C193.797 182.118 192.615 183.3 192.615 184.758C192.615 186.216 193.797 187.398 195.254 187.398Z" stroke="#828282" stroke-width="0.791916" stroke-linecap="round" stroke-linejoin="round"/>
<path d="M199.789 192.677C199.789 190.634 197.757 188.981 195.254 188.981C192.752 188.981 190.719 190.634 190.719 192.677" stroke="#828282" stroke-width="0.791916" stroke-linecap="round" stroke-linejoin="round"/>
<rect x="181.264" y="172.879" width="240.214" height="28.509" rx="1.8478" stroke="#D8D4D4" stroke-width="0.527944"/>
<path d="M209.725 229.565V223.422H213.432V224.082H210.469V226.158H213.241V226.818H210.469V228.906H213.48V229.565H209.725ZM214.677 229.565V224.958H215.361V225.678H215.421C215.517 225.432 215.672 225.241 215.886 225.105C216.1 224.967 216.357 224.898 216.657 224.898C216.961 224.898 217.214 224.967 217.416 225.105C217.62 225.241 217.779 225.432 217.893 225.678H217.941C218.059 225.44 218.236 225.251 218.472 225.111C218.708 224.969 218.991 224.898 219.321 224.898C219.733 224.898 220.07 225.027 220.332 225.285C220.594 225.541 220.725 225.94 220.725 226.482V229.565H220.017V226.482C220.017 226.142 219.924 225.899 219.738 225.753C219.552 225.607 219.333 225.534 219.081 225.534C218.757 225.534 218.506 225.632 218.328 225.828C218.15 226.022 218.061 226.268 218.061 226.566V229.565H217.341V226.41C217.341 226.148 217.256 225.937 217.086 225.777C216.916 225.615 216.697 225.534 216.429 225.534C216.245 225.534 216.073 225.583 215.913 225.681C215.755 225.779 215.627 225.915 215.529 226.089C215.433 226.261 215.385 226.46 215.385 226.686V229.565H214.677ZM223.375 229.673C223.083 229.673 222.818 229.618 222.58 229.508C222.342 229.396 222.153 229.235 222.013 229.025C221.873 228.814 221.803 228.558 221.803 228.258C221.803 227.994 221.855 227.78 221.959 227.616C222.063 227.45 222.202 227.32 222.376 227.226C222.55 227.132 222.742 227.062 222.952 227.016C223.164 226.968 223.377 226.93 223.591 226.902C223.871 226.866 224.098 226.839 224.272 226.821C224.448 226.801 224.576 226.768 224.656 226.722C224.738 226.676 224.779 226.596 224.779 226.482V226.458C224.779 226.162 224.698 225.932 224.536 225.768C224.376 225.604 224.133 225.522 223.807 225.522C223.469 225.522 223.204 225.596 223.012 225.744C222.82 225.892 222.685 226.05 222.607 226.218L221.935 225.978C222.055 225.698 222.215 225.48 222.415 225.324C222.617 225.166 222.837 225.056 223.075 224.994C223.315 224.93 223.551 224.898 223.783 224.898C223.931 224.898 224.101 224.916 224.293 224.952C224.487 224.986 224.674 225.057 224.854 225.165C225.036 225.273 225.187 225.436 225.307 225.654C225.427 225.872 225.487 226.164 225.487 226.53V229.565H224.779V228.941H224.743C224.695 229.041 224.615 229.148 224.503 229.262C224.391 229.376 224.242 229.473 224.056 229.553C223.87 229.633 223.643 229.673 223.375 229.673ZM223.483 229.037C223.763 229.037 223.999 228.982 224.191 228.873C224.385 228.763 224.531 228.621 224.629 228.447C224.729 228.273 224.779 228.09 224.779 227.898V227.25C224.749 227.286 224.683 227.319 224.581 227.349C224.481 227.377 224.365 227.402 224.233 227.424C224.103 227.444 223.976 227.462 223.852 227.478C223.73 227.492 223.631 227.504 223.555 227.514C223.371 227.538 223.199 227.577 223.039 227.631C222.881 227.683 222.753 227.762 222.655 227.868C222.559 227.972 222.511 228.114 222.511 228.294C222.511 228.54 222.602 228.726 222.784 228.852C222.968 228.975 223.201 229.037 223.483 229.037ZM226.779 229.565V224.958H227.487V229.565H226.779ZM227.139 224.19C227.001 224.19 226.882 224.143 226.782 224.049C226.684 223.955 226.635 223.842 226.635 223.71C226.635 223.578 226.684 223.465 226.782 223.371C226.882 223.277 227.001 223.23 227.139 223.23C227.277 223.23 227.395 223.277 227.493 223.371C227.593 223.465 227.643 223.578 227.643 223.71C227.643 223.842 227.593 223.955 227.493 224.049C227.395 224.143 227.277 224.19 227.139 224.19ZM229.491 223.422V229.565H228.783V223.422H229.491Z" fill="#4F4F4F"/>
<path d="M198.422 231.388H193.142C191.558 231.388 190.502 230.596 190.502 228.748V225.053C190.502 223.205 191.558 222.413 193.142 222.413H198.422C200.005 222.413 201.061 223.205 201.061 225.053V228.748C201.061 230.596 200.005 231.388 198.422 231.388Z" stroke="#828282" stroke-width="0.791915" stroke-miterlimit="10" stroke-linecap="round" stroke-linejoin="round"/>
<path d="M198.422 225.316L196.77 226.636C196.226 227.069 195.334 227.069 194.79 226.636L193.143 225.316" stroke="#828282" stroke-width="0.791915" stroke-miterlimit="10" stroke-linecap="round" stroke-linejoin="round"/>
<rect x="181.264" y="212.383" width="240.214" height="28.509" rx="1.8478" stroke="#D8D4D4" stroke-width="0.527944"/>
<path d="M214.668 265.902H213.924C213.88 265.688 213.803 265.5 213.693 265.338C213.585 265.177 213.453 265.041 213.297 264.931C213.144 264.819 212.973 264.735 212.785 264.679C212.597 264.623 212.401 264.595 212.197 264.595C211.825 264.595 211.488 264.689 211.186 264.877C210.886 265.065 210.647 265.341 210.469 265.707C210.293 266.073 210.205 266.522 210.205 267.054C210.205 267.586 210.293 268.035 210.469 268.401C210.647 268.767 210.886 269.044 211.186 269.232C211.488 269.42 211.825 269.514 212.197 269.514C212.401 269.514 212.597 269.486 212.785 269.43C212.973 269.374 213.144 269.291 213.297 269.181C213.453 269.069 213.585 268.932 213.693 268.77C213.803 268.606 213.88 268.418 213.924 268.206H214.668C214.612 268.52 214.51 268.801 214.362 269.049C214.214 269.297 214.03 269.508 213.81 269.682C213.59 269.854 213.343 269.985 213.07 270.075C212.798 270.165 212.507 270.21 212.197 270.21C211.673 270.21 211.207 270.082 210.799 269.826C210.391 269.57 210.07 269.206 209.836 268.734C209.602 268.262 209.485 267.702 209.485 267.054C209.485 266.406 209.602 265.846 209.836 265.374C210.07 264.903 210.391 264.539 210.799 264.283C211.207 264.027 211.673 263.899 212.197 263.899C212.507 263.899 212.798 263.944 213.07 264.034C213.343 264.124 213.59 264.256 213.81 264.43C214.03 264.602 214.214 264.812 214.362 265.06C214.51 265.305 214.612 265.586 214.668 265.902ZM217.646 270.222C217.23 270.222 216.865 270.123 216.551 269.925C216.239 269.727 215.995 269.45 215.819 269.094C215.645 268.738 215.559 268.322 215.559 267.846C215.559 267.366 215.645 266.947 215.819 266.589C215.995 266.231 216.239 265.953 216.551 265.755C216.865 265.557 217.23 265.458 217.646 265.458C218.062 265.458 218.426 265.557 218.738 265.755C219.052 265.953 219.296 266.231 219.47 266.589C219.646 266.947 219.734 267.366 219.734 267.846C219.734 268.322 219.646 268.738 219.47 269.094C219.296 269.45 219.052 269.727 218.738 269.925C218.426 270.123 218.062 270.222 217.646 270.222ZM217.646 269.586C217.962 269.586 218.222 269.505 218.426 269.343C218.63 269.181 218.781 268.968 218.879 268.704C218.977 268.44 219.026 268.154 219.026 267.846C219.026 267.538 218.977 267.251 218.879 266.985C218.781 266.719 218.63 266.504 218.426 266.34C218.222 266.176 217.962 266.094 217.646 266.094C217.33 266.094 217.07 266.176 216.866 266.34C216.662 266.504 216.511 266.719 216.413 266.985C216.315 267.251 216.266 267.538 216.266 267.846C216.266 268.154 216.315 268.44 216.413 268.704C216.511 268.968 216.662 269.181 216.866 269.343C217.07 269.505 217.33 269.586 217.646 269.586ZM223.718 268.242V265.518H224.426V270.126H223.718V269.346H223.67C223.562 269.58 223.394 269.779 223.166 269.943C222.938 270.105 222.65 270.186 222.303 270.186C222.015 270.186 221.759 270.123 221.535 269.997C221.311 269.869 221.135 269.677 221.007 269.421C220.879 269.163 220.815 268.838 220.815 268.446V265.518H221.523V268.398C221.523 268.734 221.617 269.002 221.805 269.202C221.995 269.402 222.237 269.502 222.531 269.502C222.706 269.502 222.885 269.457 223.067 269.367C223.251 269.277 223.405 269.139 223.529 268.953C223.655 268.767 223.718 268.53 223.718 268.242ZM226.431 267.354V270.126H225.723V265.518H226.407V266.238H226.467C226.575 266.004 226.739 265.816 226.959 265.674C227.179 265.53 227.463 265.458 227.811 265.458C228.123 265.458 228.396 265.522 228.63 265.65C228.864 265.776 229.046 265.968 229.176 266.226C229.306 266.482 229.371 266.806 229.371 267.198V270.126H228.663V267.246C228.663 266.884 228.569 266.602 228.381 266.4C228.193 266.196 227.935 266.094 227.607 266.094C227.381 266.094 227.179 266.143 227.001 266.241C226.825 266.339 226.686 266.482 226.584 266.67C226.482 266.858 226.431 267.086 226.431 267.354ZM232.668 265.518V266.118H230.28V265.518H232.668ZM230.976 264.415H231.684V268.806C231.684 269.006 231.713 269.156 231.771 269.256C231.831 269.354 231.907 269.42 231.999 269.454C232.093 269.486 232.192 269.502 232.296 269.502C232.374 269.502 232.438 269.498 232.488 269.49C232.538 269.48 232.578 269.472 232.608 269.466L232.752 270.102C232.704 270.12 232.637 270.138 232.551 270.156C232.465 270.176 232.356 270.186 232.224 270.186C232.024 270.186 231.828 270.143 231.636 270.057C231.446 269.971 231.288 269.84 231.162 269.664C231.038 269.488 230.976 269.266 230.976 268.998V264.415ZM233.733 270.126V265.518H234.417V266.214H234.465C234.549 265.986 234.701 265.801 234.921 265.659C235.141 265.517 235.389 265.446 235.665 265.446C235.717 265.446 235.782 265.447 235.86 265.449C235.938 265.451 235.997 265.454 236.037 265.458V266.178C236.013 266.172 235.958 266.163 235.872 266.151C235.788 266.137 235.699 266.13 235.605 266.13C235.381 266.13 235.181 266.177 235.005 266.271C234.831 266.363 234.693 266.491 234.591 266.655C234.491 266.817 234.441 267.002 234.441 267.21V270.126H233.733ZM237.472 271.854C237.352 271.854 237.245 271.844 237.151 271.824C237.057 271.806 236.992 271.788 236.956 271.77L237.136 271.146C237.308 271.19 237.46 271.206 237.592 271.194C237.724 271.182 237.841 271.123 237.943 271.017C238.047 270.913 238.142 270.744 238.228 270.51L238.36 270.15L236.656 265.518H237.424L238.696 269.19H238.744L240.016 265.518H240.784L238.828 270.798C238.74 271.036 238.631 271.233 238.501 271.389C238.371 271.547 238.22 271.664 238.048 271.74C237.878 271.816 237.686 271.854 237.472 271.854Z" fill="#828282"/>
<path d="M200.27 271.413C200.22 271.376 200.167 271.336 200.11 271.295C199.742 271.026 199.223 270.666 198.619 270.303C197.425 269.585 195.857 268.826 194.471 268.782C192.985 268.735 191.28 269.496 189.977 270.235C189.319 270.609 188.751 270.985 188.347 271.268C188.267 271.323 188.194 271.376 188.127 271.424V264.198C188.134 264.195 188.141 264.192 188.148 264.189C188.259 264.137 188.421 264.064 188.623 263.976C189.029 263.8 189.597 263.565 190.248 263.333C191.559 262.865 193.17 262.418 194.457 262.447C195.648 262.474 197.131 262.921 198.334 263.375C198.932 263.6 199.454 263.823 199.825 263.991C200.011 264.074 200.16 264.144 200.261 264.192C200.264 264.193 200.267 264.195 200.27 264.196V271.413Z" stroke="#828282" stroke-width="0.527944"/>
<path d="M191.031 262.975V269.838M197.895 262.975V269.838" stroke="#828282" stroke-width="0.527944"/>
<rect x="181.264" y="251.887" width="240.214" height="28.509" rx="1.8478" stroke="#D8D4D4" stroke-width="0.527944"/>
<path d="M209.725 308.574V302.431H211.801C212.283 302.431 212.677 302.518 212.983 302.692C213.29 302.864 213.518 303.097 213.666 303.391C213.814 303.685 213.888 304.013 213.888 304.375C213.888 304.737 213.814 305.066 213.666 305.362C213.52 305.658 213.294 305.894 212.989 306.069C212.683 306.243 212.291 306.33 211.813 306.33H210.325V305.671H211.789C212.119 305.671 212.384 305.614 212.584 305.5C212.784 305.386 212.929 305.232 213.019 305.038C213.111 304.842 213.157 304.621 213.157 304.375C213.157 304.129 213.111 303.909 213.019 303.715C212.929 303.521 212.783 303.369 212.581 303.259C212.379 303.147 212.111 303.091 211.777 303.091H210.469V308.574H209.725ZM216.347 308.682C216.055 308.682 215.79 308.627 215.552 308.517C215.314 308.405 215.125 308.244 214.985 308.034C214.845 307.822 214.775 307.566 214.775 307.266C214.775 307.002 214.827 306.788 214.931 306.624C215.035 306.458 215.174 306.328 215.348 306.234C215.522 306.14 215.714 306.07 215.924 306.024C216.136 305.976 216.349 305.939 216.563 305.911C216.843 305.875 217.07 305.848 217.244 305.83C217.42 305.81 217.548 305.777 217.628 305.731C217.71 305.685 217.751 305.605 217.751 305.491V305.467C217.751 305.171 217.67 304.941 217.508 304.777C217.348 304.613 217.105 304.531 216.779 304.531C216.441 304.531 216.176 304.605 215.984 304.753C215.792 304.901 215.657 305.059 215.579 305.227L214.907 304.987C215.027 304.707 215.187 304.489 215.387 304.333C215.589 304.175 215.809 304.065 216.047 304.003C216.287 303.939 216.523 303.907 216.755 303.907C216.903 303.907 217.073 303.925 217.265 303.961C217.459 303.995 217.646 304.066 217.826 304.174C218.007 304.282 218.158 304.445 218.278 304.663C218.398 304.881 218.458 305.173 218.458 305.539V308.574H217.751V307.95H217.715C217.667 308.05 217.587 308.157 217.475 308.271C217.363 308.385 217.214 308.482 217.028 308.562C216.842 308.642 216.615 308.682 216.347 308.682ZM216.455 308.046C216.735 308.046 216.971 307.991 217.163 307.881C217.357 307.771 217.503 307.629 217.601 307.455C217.701 307.281 217.751 307.098 217.751 306.906V306.258C217.721 306.294 217.655 306.327 217.553 306.357C217.453 306.385 217.337 306.41 217.205 306.432C217.075 306.452 216.948 306.47 216.824 306.486C216.702 306.5 216.603 306.512 216.527 306.522C216.343 306.546 216.171 306.585 216.011 306.639C215.853 306.691 215.725 306.77 215.627 306.876C215.531 306.98 215.483 307.122 215.483 307.302C215.483 307.548 215.574 307.734 215.756 307.86C215.94 307.984 216.173 308.046 216.455 308.046ZM223.014 304.999L222.378 305.179C222.338 305.073 222.279 304.97 222.201 304.87C222.125 304.768 222.021 304.684 221.889 304.618C221.757 304.552 221.588 304.519 221.382 304.519C221.1 304.519 220.865 304.584 220.677 304.714C220.491 304.842 220.398 305.005 220.398 305.203C220.398 305.379 220.462 305.518 220.59 305.62C220.718 305.722 220.918 305.807 221.19 305.875L221.874 306.042C222.286 306.142 222.593 306.295 222.795 306.501C222.997 306.705 223.098 306.968 223.098 307.29C223.098 307.554 223.022 307.79 222.87 307.998C222.72 308.206 222.51 308.37 222.24 308.49C221.97 308.61 221.656 308.67 221.298 308.67C220.828 308.67 220.439 308.568 220.132 308.364C219.824 308.16 219.629 307.862 219.547 307.47L220.219 307.302C220.283 307.55 220.403 307.736 220.581 307.86C220.761 307.984 220.996 308.046 221.286 308.046C221.616 308.046 221.878 307.976 222.072 307.836C222.268 307.694 222.366 307.524 222.366 307.326C222.366 307.166 222.31 307.032 222.198 306.924C222.086 306.814 221.914 306.732 221.682 306.678L220.914 306.498C220.492 306.398 220.183 306.243 219.985 306.033C219.789 305.822 219.691 305.557 219.691 305.239C219.691 304.979 219.764 304.749 219.91 304.549C220.058 304.349 220.259 304.192 220.512 304.078C220.768 303.964 221.058 303.907 221.382 303.907C221.838 303.907 222.196 304.007 222.456 304.207C222.718 304.407 222.904 304.671 223.014 304.999ZM227.427 304.999L226.792 305.179C226.752 305.073 226.693 304.97 226.615 304.87C226.539 304.768 226.435 304.684 226.303 304.618C226.171 304.552 226.002 304.519 225.796 304.519C225.514 304.519 225.279 304.584 225.091 304.714C224.905 304.842 224.812 305.005 224.812 305.203C224.812 305.379 224.876 305.518 225.004 305.62C225.132 305.722 225.332 305.807 225.604 305.875L226.288 306.042C226.7 306.142 227.007 306.295 227.209 306.501C227.41 306.705 227.511 306.968 227.511 307.29C227.511 307.554 227.435 307.79 227.284 307.998C227.134 308.206 226.924 308.37 226.654 308.49C226.384 308.61 226.07 308.67 225.712 308.67C225.242 308.67 224.853 308.568 224.545 308.364C224.237 308.16 224.042 307.862 223.96 307.47L224.632 307.302C224.696 307.55 224.817 307.736 224.995 307.86C225.175 307.984 225.41 308.046 225.7 308.046C226.03 308.046 226.292 307.976 226.486 307.836C226.682 307.694 226.78 307.524 226.78 307.326C226.78 307.166 226.724 307.032 226.612 306.924C226.5 306.814 226.328 306.732 226.096 306.678L225.328 306.498C224.906 306.398 224.596 306.243 224.398 306.033C224.202 305.822 224.104 305.557 224.104 305.239C224.104 304.979 224.177 304.749 224.323 304.549C224.471 304.349 224.672 304.192 224.926 304.078C225.182 303.964 225.472 303.907 225.796 303.907C226.252 303.907 226.61 304.007 226.87 304.207C227.132 304.407 227.318 304.671 227.427 304.999ZM229.621 308.574L228.217 303.967H228.961L229.957 307.494H230.005L230.989 303.967H231.745L232.717 307.482H232.765L233.761 303.967H234.504L233.101 308.574H232.405L231.397 305.035H231.325L230.317 308.574H229.621ZM237.155 308.67C236.739 308.67 236.375 308.571 236.061 308.373C235.749 308.175 235.505 307.898 235.329 307.542C235.155 307.186 235.068 306.77 235.068 306.294C235.068 305.815 235.155 305.396 235.329 305.038C235.505 304.68 235.749 304.402 236.061 304.204C236.375 304.006 236.739 303.907 237.155 303.907C237.571 303.907 237.935 304.006 238.247 304.204C238.561 304.402 238.805 304.68 238.979 305.038C239.155 305.396 239.243 305.815 239.243 306.294C239.243 306.77 239.155 307.186 238.979 307.542C238.805 307.898 238.561 308.175 238.247 308.373C237.935 308.571 237.571 308.67 237.155 308.67ZM237.155 308.034C237.471 308.034 237.731 307.953 237.935 307.791C238.139 307.629 238.29 307.416 238.388 307.152C238.486 306.888 238.535 306.602 238.535 306.294C238.535 305.986 238.486 305.7 238.388 305.434C238.29 305.168 238.139 304.953 237.935 304.789C237.731 304.625 237.471 304.543 237.155 304.543C236.839 304.543 236.58 304.625 236.376 304.789C236.172 304.953 236.021 305.168 235.923 305.434C235.825 305.7 235.776 305.986 235.776 306.294C235.776 306.602 235.825 306.888 235.923 307.152C236.021 307.416 236.172 307.629 236.376 307.791C236.58 307.953 236.839 308.034 237.155 308.034ZM240.324 308.574V303.967H241.008V304.663H241.056C241.14 304.435 241.292 304.25 241.512 304.108C241.732 303.966 241.98 303.895 242.256 303.895C242.308 303.895 242.373 303.896 242.451 303.898C242.529 303.9 242.588 303.903 242.628 303.907V304.627C242.604 304.621 242.549 304.612 242.463 304.6C242.379 304.586 242.29 304.579 242.196 304.579C241.972 304.579 241.772 304.626 241.596 304.72C241.422 304.812 241.284 304.94 241.182 305.104C241.082 305.266 241.032 305.451 241.032 305.659V308.574H240.324ZM245.066 308.67C244.682 308.67 244.343 308.573 244.049 308.379C243.755 308.183 243.526 307.907 243.36 307.551C243.194 307.193 243.111 306.77 243.111 306.282C243.111 305.799 243.194 305.379 243.36 305.023C243.526 304.667 243.756 304.392 244.052 304.198C244.348 304.004 244.69 303.907 245.078 303.907C245.378 303.907 245.615 303.957 245.789 304.057C245.965 304.155 246.099 304.267 246.191 304.393C246.285 304.517 246.358 304.619 246.41 304.699H246.47V302.431H247.178V308.574H246.494V307.866H246.41C246.358 307.95 246.284 308.056 246.188 308.184C246.092 308.31 245.955 308.423 245.777 308.523C245.599 308.621 245.362 308.67 245.066 308.67ZM245.162 308.034C245.446 308.034 245.686 307.96 245.882 307.812C246.078 307.662 246.227 307.455 246.329 307.191C246.431 306.925 246.482 306.618 246.482 306.27C246.482 305.927 246.432 305.626 246.332 305.368C246.232 305.108 246.084 304.906 245.888 304.762C245.692 304.616 245.45 304.543 245.162 304.543C244.862 304.543 244.612 304.62 244.412 304.774C244.214 304.926 244.065 305.133 243.965 305.395C243.867 305.655 243.818 305.946 243.818 306.27C243.818 306.598 243.868 306.896 243.968 307.164C244.07 307.43 244.22 307.642 244.418 307.8C244.618 307.956 244.866 308.034 245.162 308.034Z" fill="#4F4F4F"/>
<path d="M199.025 305.744C198.028 306.736 196.6 307.041 195.347 306.649L193.067 308.924C192.903 309.093 192.579 309.195 192.346 309.161L191.291 309.016C190.943 308.967 190.619 308.638 190.565 308.29L190.42 307.235C190.386 307.002 190.498 306.678 190.657 306.514L192.932 304.239C192.545 302.981 192.845 301.553 193.842 300.561C195.269 299.133 197.587 299.133 199.02 300.561C200.452 301.989 200.452 304.316 199.025 305.744Z" stroke="#828282" stroke-width="0.791916" stroke-miterlimit="10" stroke-linecap="round" stroke-linejoin="round"/>
<path d="M192.782 306.982L193.895 308.096" stroke="#828282" stroke-width="0.791916" stroke-miterlimit="10" stroke-linecap="round" stroke-linejoin="round"/>
<path d="M196.464 303.841C196.865 303.841 197.19 303.516 197.19 303.116C197.19 302.715 196.865 302.39 196.464 302.39C196.063 302.39 195.738 302.715 195.738 303.116C195.738 303.516 196.063 303.841 196.464 303.841Z" stroke="#828282" stroke-width="0.791916" stroke-linecap="round" stroke-linejoin="round"/>
<rect x="181.264" y="291.391" width="240.214" height="28.509" rx="1.8478" stroke="#D8D4D4" stroke-width="0.527944"/>
<path d="M214.668 343.856H213.924C213.88 343.642 213.803 343.454 213.693 343.292C213.585 343.13 213.453 342.994 213.297 342.884C213.144 342.772 212.973 342.688 212.785 342.632C212.597 342.576 212.401 342.548 212.197 342.548C211.825 342.548 211.488 342.642 211.186 342.83C210.886 343.018 210.647 343.295 210.469 343.661C210.293 344.027 210.205 344.475 210.205 345.007C210.205 345.539 210.293 345.988 210.469 346.354C210.647 346.72 210.886 346.997 211.186 347.185C211.488 347.373 211.825 347.467 212.197 347.467C212.401 347.467 212.597 347.439 212.785 347.383C212.973 347.327 213.144 347.244 213.297 347.134C213.453 347.022 213.585 346.885 213.693 346.723C213.803 346.559 213.88 346.371 213.924 346.159H214.668C214.612 346.473 214.51 346.754 214.362 347.002C214.214 347.25 214.03 347.461 213.81 347.635C213.59 347.807 213.343 347.938 213.07 348.028C212.798 348.118 212.507 348.163 212.197 348.163C211.673 348.163 211.207 348.035 210.799 347.779C210.391 347.523 210.07 347.159 209.836 346.687C209.602 346.215 209.485 345.655 209.485 345.007C209.485 344.359 209.602 343.8 209.836 343.328C210.07 342.856 210.391 342.492 210.799 342.236C211.207 341.98 211.673 341.852 212.197 341.852C212.507 341.852 212.798 341.897 213.07 341.987C213.343 342.077 213.59 342.209 213.81 342.383C214.03 342.555 214.214 342.765 214.362 343.013C214.51 343.259 214.612 343.54 214.668 343.856ZM217.646 348.175C217.23 348.175 216.865 348.076 216.551 347.878C216.239 347.68 215.995 347.403 215.819 347.047C215.645 346.691 215.559 346.275 215.559 345.799C215.559 345.319 215.645 344.9 215.819 344.542C215.995 344.185 216.239 343.907 216.551 343.709C216.865 343.511 217.23 343.412 217.646 343.412C218.062 343.412 218.426 343.511 218.738 343.709C219.052 343.907 219.296 344.185 219.47 344.542C219.646 344.9 219.734 345.319 219.734 345.799C219.734 346.275 219.646 346.691 219.47 347.047C219.296 347.403 219.052 347.68 218.738 347.878C218.426 348.076 218.062 348.175 217.646 348.175ZM217.646 347.539C217.962 347.539 218.222 347.458 218.426 347.296C218.63 347.134 218.781 346.921 218.879 346.657C218.977 346.393 219.026 346.107 219.026 345.799C219.026 345.491 218.977 345.204 218.879 344.938C218.781 344.672 218.63 344.457 218.426 344.294C218.222 344.13 217.962 344.048 217.646 344.048C217.33 344.048 217.07 344.13 216.866 344.294C216.662 344.457 216.511 344.672 216.413 344.938C216.315 345.204 216.266 345.491 216.266 345.799C216.266 346.107 216.315 346.393 216.413 346.657C216.511 346.921 216.662 347.134 216.866 347.296C217.07 347.458 217.33 347.539 217.646 347.539ZM221.523 345.307V348.079H220.815V343.472H221.499V344.192H221.559C221.667 343.958 221.831 343.77 222.051 343.628C222.271 343.484 222.555 343.412 222.902 343.412C223.214 343.412 223.487 343.476 223.721 343.604C223.955 343.73 224.137 343.922 224.267 344.18C224.397 344.435 224.462 344.759 224.462 345.151V348.079H223.754V345.199C223.754 344.837 223.66 344.555 223.472 344.353C223.284 344.15 223.026 344.048 222.698 344.048C222.473 344.048 222.271 344.097 222.093 344.195C221.917 344.293 221.778 344.435 221.676 344.623C221.574 344.811 221.523 345.039 221.523 345.307ZM227.808 343.472V344.072H225.324V343.472H227.808ZM226.068 348.079V342.836C226.068 342.572 226.13 342.352 226.254 342.176C226.378 342 226.539 341.868 226.737 341.78C226.935 341.692 227.144 341.648 227.364 341.648C227.538 341.648 227.68 341.662 227.79 341.69C227.9 341.718 227.982 341.744 228.036 341.768L227.832 342.38C227.796 342.368 227.746 342.353 227.682 342.335C227.62 342.317 227.538 342.308 227.436 342.308C227.202 342.308 227.033 342.367 226.929 342.485C226.827 342.603 226.776 342.776 226.776 343.004V348.079H226.068ZM228.8 348.079V343.472H229.508V348.079H228.8ZM229.16 342.704C229.022 342.704 228.903 342.657 228.803 342.563C228.705 342.469 228.656 342.356 228.656 342.224C228.656 342.092 228.705 341.979 228.803 341.885C228.903 341.791 229.022 341.744 229.16 341.744C229.298 341.744 229.416 341.791 229.514 341.885C229.614 341.979 229.664 342.092 229.664 342.224C229.664 342.356 229.614 342.469 229.514 342.563C229.416 342.657 229.298 342.704 229.16 342.704ZM230.804 348.079V343.472H231.488V344.168H231.536C231.62 343.94 231.772 343.755 231.992 343.613C232.212 343.471 232.46 343.4 232.736 343.4C232.788 343.4 232.853 343.401 232.931 343.403C233.009 343.405 233.068 343.408 233.108 343.412V344.132C233.084 344.126 233.029 344.117 232.943 344.105C232.859 344.091 232.77 344.084 232.676 344.084C232.452 344.084 232.252 344.131 232.076 344.225C231.902 344.317 231.764 344.444 231.662 344.608C231.562 344.77 231.512 344.955 231.512 345.163V348.079H230.804ZM233.947 348.079V343.472H234.631V344.192H234.691C234.787 343.946 234.942 343.755 235.156 343.619C235.37 343.481 235.627 343.412 235.927 343.412C236.231 343.412 236.484 343.481 236.686 343.619C236.89 343.755 237.049 343.946 237.163 344.192H237.211C237.329 343.954 237.506 343.765 237.742 343.625C237.978 343.483 238.261 343.412 238.591 343.412C239.003 343.412 239.34 343.541 239.602 343.799C239.864 344.055 239.995 344.453 239.995 344.995V348.079H239.287V344.995C239.287 344.655 239.194 344.412 239.008 344.267C238.822 344.121 238.603 344.048 238.351 344.048C238.027 344.048 237.776 344.146 237.598 344.342C237.42 344.535 237.331 344.781 237.331 345.079V348.079H236.611V344.923C236.611 344.661 236.526 344.45 236.356 344.291C236.186 344.129 235.967 344.048 235.699 344.048C235.515 344.048 235.343 344.097 235.183 344.195C235.025 344.293 234.897 344.428 234.799 344.602C234.703 344.774 234.655 344.973 234.655 345.199V348.079H233.947ZM243.665 349.807V343.472H244.349V344.204H244.433C244.485 344.124 244.557 344.022 244.649 343.898C244.743 343.772 244.877 343.66 245.051 343.562C245.227 343.462 245.465 343.412 245.765 343.412C246.152 343.412 246.494 343.509 246.79 343.703C247.086 343.897 247.317 344.172 247.483 344.527C247.649 344.883 247.732 345.303 247.732 345.787C247.732 346.275 247.649 346.698 247.483 347.056C247.317 347.412 247.087 347.688 246.793 347.884C246.499 348.078 246.16 348.175 245.777 348.175C245.481 348.175 245.244 348.126 245.066 348.028C244.888 347.928 244.751 347.815 244.655 347.689C244.559 347.561 244.485 347.455 244.433 347.371H244.373V349.807H243.665ZM244.361 345.775C244.361 346.123 244.412 346.43 244.514 346.696C244.616 346.96 244.765 347.167 244.961 347.317C245.157 347.465 245.397 347.539 245.681 347.539C245.977 347.539 246.223 347.461 246.421 347.305C246.621 347.147 246.771 346.935 246.871 346.669C246.973 346.401 247.024 346.103 247.024 345.775C247.024 345.451 246.974 345.159 246.874 344.899C246.776 344.637 246.627 344.43 246.427 344.279C246.229 344.125 245.981 344.048 245.681 344.048C245.393 344.048 245.151 344.121 244.955 344.267C244.759 344.41 244.611 344.612 244.511 344.872C244.411 345.13 244.361 345.431 244.361 345.775ZM250.168 348.187C249.876 348.187 249.611 348.132 249.373 348.022C249.135 347.91 248.946 347.749 248.806 347.539C248.666 347.327 248.596 347.071 248.596 346.771C248.596 346.507 248.648 346.293 248.752 346.129C248.856 345.963 248.995 345.833 249.169 345.739C249.343 345.645 249.535 345.575 249.745 345.529C249.957 345.481 250.17 345.443 250.384 345.415C250.664 345.379 250.891 345.352 251.065 345.334C251.241 345.314 251.369 345.281 251.449 345.235C251.531 345.189 251.572 345.109 251.572 344.995V344.971C251.572 344.675 251.491 344.445 251.329 344.282C251.169 344.118 250.926 344.036 250.6 344.036C250.262 344.036 249.997 344.11 249.805 344.258C249.613 344.405 249.478 344.563 249.4 344.731L248.728 344.491C248.848 344.212 249.008 343.994 249.208 343.838C249.41 343.68 249.63 343.57 249.868 343.508C250.108 343.444 250.344 343.412 250.576 343.412C250.724 343.412 250.894 343.43 251.086 343.466C251.28 343.5 251.467 343.571 251.647 343.679C251.829 343.787 251.98 343.95 252.1 344.168C252.22 344.385 252.28 344.677 252.28 345.043V348.079H251.572V347.455H251.536C251.488 347.555 251.408 347.662 251.296 347.776C251.184 347.89 251.035 347.987 250.849 348.067C250.663 348.147 250.436 348.187 250.168 348.187ZM250.276 347.551C250.556 347.551 250.792 347.496 250.984 347.386C251.178 347.276 251.324 347.134 251.422 346.96C251.522 346.786 251.572 346.603 251.572 346.411V345.763C251.542 345.799 251.476 345.832 251.374 345.862C251.274 345.89 251.158 345.915 251.026 345.937C250.896 345.957 250.769 345.975 250.645 345.991C250.523 346.005 250.424 346.017 250.348 346.027C250.164 346.051 249.992 346.09 249.832 346.144C249.674 346.196 249.546 346.275 249.448 346.381C249.352 346.485 249.304 346.627 249.304 346.807C249.304 347.053 249.395 347.239 249.577 347.365C249.761 347.489 249.994 347.551 250.276 347.551ZM256.836 344.503L256.2 344.683C256.16 344.577 256.101 344.474 256.023 344.374C255.947 344.273 255.843 344.189 255.711 344.123C255.579 344.057 255.41 344.024 255.204 344.024C254.922 344.024 254.687 344.089 254.499 344.219C254.313 344.346 254.22 344.509 254.22 344.707C254.22 344.883 254.284 345.022 254.412 345.124C254.54 345.226 254.74 345.311 255.012 345.379L255.696 345.547C256.108 345.647 256.415 345.8 256.617 346.006C256.819 346.21 256.92 346.473 256.92 346.795C256.92 347.059 256.844 347.295 256.692 347.503C256.542 347.711 256.332 347.875 256.062 347.995C255.792 348.115 255.478 348.175 255.12 348.175C254.65 348.175 254.261 348.073 253.953 347.869C253.645 347.665 253.45 347.367 253.368 346.975L254.04 346.807C254.104 347.055 254.225 347.241 254.403 347.365C254.583 347.489 254.818 347.551 255.108 347.551C255.438 347.551 255.7 347.481 255.894 347.341C256.09 347.199 256.188 347.029 256.188 346.831C256.188 346.671 256.132 346.537 256.02 346.429C255.908 346.319 255.736 346.237 255.504 346.183L254.736 346.003C254.314 345.903 254.004 345.748 253.806 345.538C253.61 345.326 253.512 345.061 253.512 344.743C253.512 344.483 253.585 344.254 253.731 344.054C253.879 343.854 254.08 343.697 254.334 343.583C254.59 343.469 254.88 343.412 255.204 343.412C255.66 343.412 256.018 343.512 256.278 343.712C256.54 343.912 256.726 344.176 256.836 344.503ZM261.249 344.503L260.613 344.683C260.573 344.577 260.514 344.474 260.436 344.374C260.36 344.273 260.256 344.189 260.124 344.123C259.992 344.057 259.823 344.024 259.617 344.024C259.335 344.024 259.1 344.089 258.912 344.219C258.726 344.346 258.633 344.509 258.633 344.707C258.633 344.883 258.697 345.022 258.825 345.124C258.953 345.226 259.153 345.311 259.425 345.379L260.109 345.547C260.521 345.647 260.828 345.8 261.03 346.006C261.232 346.21 261.333 346.473 261.333 346.795C261.333 347.059 261.257 347.295 261.105 347.503C260.955 347.711 260.745 347.875 260.475 347.995C260.205 348.115 259.891 348.175 259.533 348.175C259.063 348.175 258.674 348.073 258.366 347.869C258.058 347.665 257.863 347.367 257.781 346.975L258.453 346.807C258.517 347.055 258.638 347.241 258.816 347.365C258.996 347.489 259.231 347.551 259.521 347.551C259.851 347.551 260.113 347.481 260.307 347.341C260.503 347.199 260.601 347.029 260.601 346.831C260.601 346.671 260.545 346.537 260.433 346.429C260.321 346.319 260.149 346.237 259.917 346.183L259.149 346.003C258.727 345.903 258.417 345.748 258.219 345.538C258.023 345.326 257.925 345.061 257.925 344.743C257.925 344.483 257.998 344.254 258.144 344.054C258.292 343.854 258.493 343.697 258.747 343.583C259.003 343.469 259.293 343.412 259.617 343.412C260.073 343.412 260.431 343.512 260.691 343.712C260.953 343.912 261.139 344.176 261.249 344.503ZM263.442 348.079L262.039 343.472H262.782L263.778 346.999H263.826L264.81 343.472H265.566L266.538 346.987H266.586L267.582 343.472H268.326L266.922 348.079H266.226L265.218 344.539H265.146L264.138 348.079H263.442ZM270.977 348.175C270.561 348.175 270.196 348.076 269.882 347.878C269.57 347.68 269.326 347.403 269.15 347.047C268.976 346.691 268.889 346.275 268.889 345.799C268.889 345.319 268.976 344.9 269.15 344.542C269.326 344.185 269.57 343.907 269.882 343.709C270.196 343.511 270.561 343.412 270.977 343.412C271.393 343.412 271.757 343.511 272.069 343.709C272.383 343.907 272.627 344.185 272.801 344.542C272.977 344.9 273.065 345.319 273.065 345.799C273.065 346.275 272.977 346.691 272.801 347.047C272.627 347.403 272.383 347.68 272.069 347.878C271.757 348.076 271.393 348.175 270.977 348.175ZM270.977 347.539C271.293 347.539 271.553 347.458 271.757 347.296C271.961 347.134 272.112 346.921 272.21 346.657C272.308 346.393 272.357 346.107 272.357 345.799C272.357 345.491 272.308 345.204 272.21 344.938C272.112 344.672 271.961 344.457 271.757 344.294C271.553 344.13 271.293 344.048 270.977 344.048C270.661 344.048 270.401 344.13 270.197 344.294C269.993 344.457 269.842 344.672 269.744 344.938C269.646 345.204 269.597 345.491 269.597 345.799C269.597 346.107 269.646 346.393 269.744 346.657C269.842 346.921 269.993 347.134 270.197 347.296C270.401 347.458 270.661 347.539 270.977 347.539ZM274.145 348.079V343.472H274.829V344.168H274.877C274.961 343.94 275.113 343.755 275.333 343.613C275.553 343.471 275.801 343.4 276.077 343.4C276.129 343.4 276.194 343.401 276.272 343.403C276.35 343.405 276.409 343.408 276.449 343.412V344.132C276.425 344.126 276.37 344.117 276.284 344.105C276.2 344.091 276.111 344.084 276.017 344.084C275.793 344.084 275.593 344.131 275.417 344.225C275.243 344.317 275.105 344.444 275.003 344.608C274.903 344.77 274.853 344.955 274.853 345.163V348.079H274.145ZM278.888 348.175C278.504 348.175 278.165 348.078 277.871 347.884C277.577 347.688 277.347 347.412 277.181 347.056C277.015 346.698 276.932 346.275 276.932 345.787C276.932 345.303 277.015 344.883 277.181 344.527C277.347 344.172 277.578 343.897 277.874 343.703C278.17 343.509 278.512 343.412 278.9 343.412C279.2 343.412 279.437 343.462 279.611 343.562C279.787 343.66 279.921 343.772 280.013 343.898C280.107 344.022 280.18 344.124 280.232 344.204H280.292V341.936H281V348.079H280.316V347.371H280.232C280.18 347.455 280.106 347.561 280.01 347.689C279.914 347.815 279.777 347.928 279.599 348.028C279.421 348.126 279.184 348.175 278.888 348.175ZM278.984 347.539C279.268 347.539 279.508 347.465 279.704 347.317C279.9 347.167 280.049 346.96 280.151 346.696C280.253 346.43 280.304 346.123 280.304 345.775C280.304 345.431 280.254 345.13 280.154 344.872C280.054 344.612 279.906 344.41 279.71 344.267C279.514 344.121 279.272 344.048 278.984 344.048C278.684 344.048 278.434 344.125 278.234 344.279C278.036 344.43 277.887 344.637 277.787 344.899C277.689 345.159 277.64 345.451 277.64 345.775C277.64 346.103 277.69 346.401 277.79 346.669C277.892 346.935 278.042 347.147 278.24 347.305C278.44 347.461 278.688 347.539 278.984 347.539Z" fill="#4F4F4F"/>
<path d="M199.025 346.831C198.028 347.823 196.6 348.128 195.347 347.736L193.067 350.011C192.903 350.18 192.579 350.282 192.346 350.248L191.291 350.102C190.943 350.054 190.619 349.725 190.565 349.377L190.42 348.322C190.386 348.089 190.498 347.765 190.657 347.6L192.932 345.326C192.545 344.068 192.845 342.64 193.842 341.648C195.269 340.22 197.587 340.22 199.02 341.648C200.452 343.076 200.452 345.403 199.025 346.831Z" stroke="#828282" stroke-width="0.791916" stroke-miterlimit="10" stroke-linecap="round" stroke-linejoin="round"/>
<path d="M192.782 348.069L193.895 349.182" stroke="#828282" stroke-width="0.791916" stroke-miterlimit="10" stroke-linecap="round" stroke-linejoin="round"/>
<path d="M196.464 344.928C196.865 344.928 197.19 344.603 197.19 344.202C197.19 343.802 196.865 343.477 196.464 343.477C196.063 343.477 195.738 343.802 195.738 344.202C195.738 344.603 196.063 344.928 196.464 344.928Z" stroke="#828282" stroke-width="0.791916" stroke-linecap="round" stroke-linejoin="round"/>
<rect x="181.264" y="330.895" width="240.214" height="28.509" rx="1.8478" stroke="#D8D4D4" stroke-width="0.527944"/>
<path d="M181 374.358C181 372.026 182.891 370.135 185.224 370.135H417.519C419.851 370.135 421.742 372.026 421.742 374.358V394.948C421.742 397.281 419.851 399.172 417.519 399.172H185.224C182.891 399.172 181 397.281 181 394.948V374.358Z" fill="#4EAB79"/>
<path d="M287.687 388.259C286.955 388.259 286.339 388.097 285.839 387.773C285.339 387.443 284.987 386.996 284.783 386.432L286.029 385.704C286.318 386.457 286.884 386.834 287.729 386.834C288.137 386.834 288.437 386.76 288.627 386.612C288.817 386.464 288.912 386.278 288.912 386.052C288.912 385.792 288.796 385.591 288.563 385.45C288.331 385.303 287.916 385.144 287.317 384.975C286.987 384.877 286.705 384.778 286.473 384.68C286.247 384.581 286.019 384.451 285.786 384.289C285.561 384.12 285.389 383.909 285.269 383.655C285.149 383.402 285.089 383.106 285.089 382.769C285.089 382.1 285.325 381.568 285.797 381.174C286.276 380.773 286.849 380.572 287.518 380.572C288.116 380.572 288.641 380.72 289.091 381.016C289.549 381.304 289.904 381.709 290.158 382.23L288.933 382.937C288.637 382.304 288.166 381.987 287.518 381.987C287.215 381.987 286.976 382.058 286.8 382.198C286.631 382.332 286.547 382.508 286.547 382.726C286.547 382.959 286.642 383.149 286.832 383.296C287.029 383.437 287.402 383.592 287.951 383.761C288.176 383.831 288.345 383.888 288.458 383.93C288.577 383.965 288.736 384.025 288.933 384.11C289.137 384.187 289.292 384.261 289.397 384.331C289.51 384.402 289.637 384.497 289.778 384.616C289.918 384.736 290.024 384.859 290.094 384.986C290.172 385.113 290.235 385.267 290.284 385.45C290.341 385.626 290.369 385.82 290.369 386.031C290.369 386.714 290.119 387.256 289.619 387.657C289.126 388.059 288.482 388.259 287.687 388.259ZM291.932 382.198C291.706 382.198 291.509 382.117 291.34 381.956C291.178 381.787 291.098 381.589 291.098 381.364C291.098 381.139 291.178 380.942 291.34 380.773C291.509 380.604 291.706 380.519 291.932 380.519C292.164 380.519 292.361 380.604 292.523 380.773C292.692 380.942 292.776 381.139 292.776 381.364C292.776 381.589 292.692 381.787 292.523 381.956C292.361 382.117 292.164 382.198 291.932 382.198ZM291.256 388.111V382.832H292.618V388.111H291.256ZM297.909 382.832H299.239V387.858C299.239 388.674 298.968 389.297 298.426 389.727C297.891 390.156 297.244 390.371 296.483 390.371C295.913 390.371 295.41 390.262 294.973 390.044C294.544 389.825 294.213 389.505 293.981 389.083L295.142 388.418C295.41 388.91 295.871 389.157 296.526 389.157C296.955 389.157 297.293 389.044 297.539 388.819C297.786 388.594 297.909 388.273 297.909 387.858V387.288C297.508 387.823 296.944 388.09 296.219 388.09C295.473 388.09 294.847 387.83 294.34 387.309C293.84 386.781 293.59 386.14 293.59 385.387C293.59 384.641 293.844 384.004 294.35 383.476C294.857 382.948 295.48 382.684 296.219 382.684C296.944 382.684 297.508 382.952 297.909 383.487V382.832ZM295.364 386.432C295.646 386.7 296.001 386.834 296.431 386.834C296.86 386.834 297.212 386.7 297.486 386.432C297.768 386.158 297.909 385.809 297.909 385.387C297.909 384.972 297.768 384.63 297.486 384.363C297.212 384.088 296.86 383.951 296.431 383.951C296.001 383.951 295.646 384.088 295.364 384.363C295.09 384.63 294.952 384.972 294.952 385.387C294.952 385.809 295.09 386.158 295.364 386.432ZM303.41 382.684C303.987 382.684 304.462 382.878 304.835 383.265C305.215 383.652 305.405 384.187 305.405 384.87V388.111H304.043V385.039C304.043 384.687 303.948 384.419 303.758 384.236C303.568 384.046 303.315 383.951 302.998 383.951C302.646 383.951 302.364 384.06 302.153 384.278C301.942 384.497 301.836 384.824 301.836 385.26V388.111H300.474V382.832H301.836V383.423C302.167 382.93 302.692 382.684 303.41 382.684ZM312.027 388.259C311.204 388.259 310.528 388.027 310 387.562C309.472 387.098 309.208 386.475 309.208 385.693V380.72H310.655V385.577C310.655 385.964 310.764 386.271 310.982 386.496C311.207 386.721 311.556 386.834 312.027 386.834C312.499 386.834 312.844 386.721 313.062 386.496C313.287 386.271 313.4 385.964 313.4 385.577V380.72H314.857V385.693C314.857 386.475 314.593 387.098 314.065 387.562C313.537 388.027 312.858 388.259 312.027 388.259ZM319.179 382.684C319.89 382.684 320.495 382.955 320.995 383.497C321.502 384.032 321.755 384.69 321.755 385.472C321.755 386.253 321.502 386.915 320.995 387.457C320.495 387.992 319.89 388.259 319.179 388.259C318.44 388.259 317.87 388.002 317.468 387.488V390.223H316.106V382.832H317.468V383.455C317.87 382.941 318.44 382.684 319.179 382.684ZM317.88 386.549C318.155 386.823 318.503 386.96 318.926 386.96C319.348 386.96 319.696 386.823 319.971 386.549C320.253 386.267 320.393 385.908 320.393 385.472C320.393 385.035 320.253 384.68 319.971 384.405C319.696 384.124 319.348 383.983 318.926 383.983C318.503 383.983 318.155 384.124 317.88 384.405C317.606 384.68 317.468 385.035 317.468 385.472C317.468 385.908 317.606 386.267 317.88 386.549Z" fill="white"/>
<defs>
<filter id="filter0_d_1155_8573" x="97" y="0.280353" width="412" height="485" filterUnits="userSpaceOnUse" color-interpolation-filters="sRGB">
<feFlood flood-opacity="0" result="BackgroundImageFix"/>
<feColorMatrix in="SourceAlpha" type="matrix" values="0 0 0 0 0 0 0 0 0 0 0 0 0 0 0 0 0 0 127 0" result="hardAlpha"/>
<feOffset dy="1.28035"/>
<feGaussianBlur stdDeviation="30.5"/>
<feComposite in2="hardAlpha" operator="out"/>
<feColorMatrix type="matrix" values="0 0 0 0 0 0 0 0 0 0 0 0 0 0 0 0 0 0 0.04 0"/>
<feBlend mode="normal" in2="BackgroundImageFix" result="effect1_dropShadow_1155_8573"/>
<feBlend mode="normal" in="SourceGraphic" in2="effect1_dropShadow_1155_8573" result="shape"/>
</filter>
</defs>
</svg>
