<svg width="77" height="38" viewBox="0 0 77 38" fill="none" xmlns="http://www.w3.org/2000/svg">
<path fill-rule="evenodd" clip-rule="evenodd" d="M1.27008 29.0456C1.27008 30.0362 0.415075 30.5552 0.415075 30.5552H5.25492C5.06492 30.5552 4.16327 29.7063 4.16327 28.9981V22.2056H8.14984C8.14984 22.2056 9.38312 22.3947 9.38312 22.9138V20.4127H4.16327V15.4597H9.23975C9.52476 15.4597 10.568 15.9321 10.6155 16.5453C10.663 17.1585 10.6155 13.7151 10.6155 13.7151H0.273438C0.273438 13.7151 1.22258 14.2808 1.27008 15.2714C1.31672 16.2145 1.27008 28.0541 1.27008 29.0447V29.0456ZM27.0299 13.716C27.1724 13.716 28.1215 14.3758 28.074 15.2723V31.5925C28.074 31.9699 27.599 35.6024 25.4175 37.1111C25.37 37.1586 27.7415 36.7812 29.3073 35.225C29.5448 34.9892 31.0147 33.9986 31.0147 30.5077C31.0147 26.7811 30.9681 16.2629 30.9681 15.2248C30.9681 14.0934 32.1064 13.716 32.1064 13.716H27.0299ZM12.608 15.2723C12.6555 14.3758 11.8013 13.716 11.6588 13.716H16.6878C16.6878 13.716 15.6445 14.3292 15.6445 15.2248V25.5081C15.6445 26.9703 16.4987 28.9981 18.9177 28.9981C20.8626 28.9981 21.7168 26.9703 21.7168 25.5081C21.7168 24.2818 21.6693 16.1687 21.6693 15.2723C21.7168 14.4233 20.8626 13.716 20.7201 13.716H25.7491C25.7491 13.716 24.7058 14.2817 24.7058 15.1306V25.6031C24.7058 25.6031 24.6583 27.4902 23.6142 28.7166C22.76 29.6597 21.3843 30.7444 19.0127 30.7919C16.2612 30.8385 15.0279 29.8954 13.7937 28.7166C12.9405 27.8676 12.703 26.1688 12.6555 25.509C12.5605 24.141 12.608 15.8388 12.608 15.2731V15.2723ZM63.1327 15.2723C63.1802 14.3758 62.326 13.716 62.136 13.716H67.165C67.165 13.716 66.1217 14.3292 66.1217 15.2248V25.5081C66.1217 26.9703 66.975 28.9981 69.3949 28.9981C71.3398 28.9981 72.1931 26.9703 72.1931 25.5081C72.1931 24.2818 72.1465 16.1687 72.1465 15.2723C72.194 14.4233 71.3398 13.716 71.1498 13.716H76.1788C76.1788 13.716 75.1355 14.2817 75.1355 15.1306V25.6031C75.1355 25.6031 75.1355 27.4902 74.0439 28.7166C73.1897 29.6597 71.814 30.7444 69.4424 30.7919C66.6909 30.8385 65.4576 29.8954 64.2234 28.7166C63.3702 27.8676 63.1327 26.1688 63.0852 25.509C63.1327 24.141 63.1327 15.8388 63.1327 15.2731V15.2723ZM37.1353 28.9981C37.1353 29.8946 38.2261 30.5552 38.2736 30.5552H33.2446C33.2446 30.5552 34.2888 29.9421 34.2888 29.0456V15.3189C34.3363 14.4699 33.4338 13.7626 33.2446 13.7626H38.2736C38.2736 13.7626 37.1353 14.4233 37.1353 15.2723V28.9972V28.9981ZM43.2551 15.5555V29.0922C43.2551 29.9878 42.2118 30.5544 42.2118 30.5544H47.2399C47.1924 30.5544 46.1967 29.8937 46.1967 28.9972C46.1967 28.4791 46.2442 15.6022 46.2442 15.6022C46.2442 15.5072 48.1416 15.5072 48.7107 15.5072C49.0907 15.5072 49.8965 15.7429 50.039 16.686C50.0865 16.9693 51.0831 13.7151 51.0831 13.7151H39.3178L38.3211 16.9693C38.3211 16.9693 39.5078 15.5072 40.0769 15.5072C40.836 15.5547 43.2551 15.5547 43.2551 15.5547V15.5555ZM51.6998 30.5077L50.7981 27.3002C50.7981 27.3002 52.2214 28.9515 54.7363 29.0922C57.2495 29.2339 58.0095 28.0075 58.2462 27.7717C58.4837 27.536 59.812 25.8372 57.7712 24.5642C55.5896 23.2437 53.6447 22.4888 52.7431 21.734C51.8889 20.9792 50.6081 19.3763 51.1298 17.0643C51.6523 14.7532 54.1663 13.7626 55.2105 13.5743C56.2538 13.4327 59.0528 13.4327 60.1436 13.8568C60.2386 13.9984 60.1436 16.4045 60.1436 16.4045C60.0961 16.5461 59.717 15.2248 57.1554 15.1781C54.5455 15.1306 54.1672 16.876 54.1188 17.0177C54.0713 17.1593 53.3597 18.9514 55.3996 19.9886C57.4395 21.0267 59.4795 21.6874 60.9502 23.5269C62.6585 25.6489 61.1402 28.3849 60.6652 28.904C59.9545 29.7054 57.9145 30.8852 55.6846 30.8852C52.6481 30.9327 51.7464 30.5552 51.6998 30.5077V30.5077ZM40.361 5.50794C40.456 7.4425 39.1753 10.2251 35.6646 10.2718C33.103 10.3193 31.8214 8.33809 31.5364 8.00818C31.2522 7.67827 30.6356 6.4519 29.0232 6.4044C27.4574 6.3569 26.7457 7.81904 26.6982 8.57387C26.6507 9.32869 26.9832 11.1216 29.0698 11.1682C30.9681 11.2157 31.9164 9.18705 31.9164 9.18705V11.3099C31.9164 11.3099 30.9206 12.4887 29.1182 12.5362C27.3149 12.5837 25.18 11.0741 25.275 8.47973C25.37 5.88535 27.9782 4.94226 29.2132 4.98976C30.4456 5.03639 31.4897 5.60294 32.3914 6.87595C33.2921 8.10232 34.5263 9.14041 36.2812 8.763C37.3245 8.57387 38.9378 7.72491 38.9378 5.4613C38.9378 3.19684 36.5662 2.34788 35.6646 2.34788C35.0479 2.34788 34.2413 2.53615 33.3396 3.38598C32.4389 4.28157 32.0114 5.60294 32.0114 5.60294V2.77279C32.0114 2.77279 33.4346 0.885736 35.5704 0.885736C37.6578 0.838236 40.2194 2.53615 40.3619 5.50794H40.361Z" fill="white"/>
</svg>
