<svg width="101" height="26" viewBox="0 0 101 26" fill="none" xmlns="http://www.w3.org/2000/svg">
<path d="M15.8011 11.4427L14.744 17.3249C14.5712 18.3846 13.8803 18.6662 13.2766 18.6662H8.66048L10.5804 7.8741C8.6173 6.96555 6.67583 6.40332 5.07896 6.40332C3.56932 6.40332 2.33949 6.81441 1.54149 7.78774C0.959394 8.47951 0.678711 9.34488 0.678711 10.3614C0.678711 13.4532 3.07359 17.6937 7.19315 21.1742C10.861 24.247 14.896 25.9544 17.8289 25.9544C19.2953 25.9544 20.482 25.5001 21.2593 24.6132C21.863 23.9223 22.122 23.0129 22.122 21.9964C22.122 19.0125 19.7056 14.8385 15.8002 11.4427H15.8011Z" fill="white"/>
<path d="M54.1785 15.011C54.1785 12.8916 46.8868 14.4055 46.8868 10.0148C46.8868 6.01441 51.2015 4.95386 54.0274 4.95386C56.8748 4.95386 60.3052 5.60331 59.9813 9.17188H55.214C55.2572 8.63124 55.0845 7.87382 53.5739 7.87382C52.7544 7.87382 52.1507 8.24174 52.1507 8.76078C52.1507 10.6858 59.7006 9.58211 59.7006 13.7785C59.7006 17.2167 56.5509 19.0986 51.8268 19.0986C48.5691 19.0986 45.3555 18.1684 45.6785 14.5567H50.7265C50.6402 15.1405 50.7697 16.2002 52.4305 16.2002C53.3157 16.1786 54.1785 15.7684 54.1785 15.011ZM79.1593 8.04655L79.6119 5.30018H74.8877L72.473 18.6659H76.463C77.0676 18.6659 77.736 18.3843 77.9303 17.3246L78.5556 14.1033C79.117 11.1608 80.3468 10.1884 82.3962 10.1884C82.8488 10.1884 83.3238 10.2747 83.6684 10.3611L84.5959 5.04108C84.3261 4.98634 84.0517 4.95742 83.7763 4.95472C81.8565 4.95472 80.4332 5.92718 79.2465 8.06814H79.1602L79.1593 8.04655ZM67.9199 13.237L68.654 9.15029H71.3071L71.9971 5.30018H69.344L70.0773 1.16938H66.2375C65.633 1.16938 64.9429 1.45093 64.7702 2.51062L64.2745 5.30018H62.2682L61.5773 9.15029H63.5835L62.7208 13.9729C62.548 14.9462 62.4401 15.7243 62.4401 16.3738C62.4401 18.5363 64.2313 19.077 69.5807 18.7091L70.2284 14.903H69.2577C67.7903 14.9246 67.704 14.4703 67.9199 13.237ZM46.024 0.282423H42.0331C41.4286 0.282423 40.7385 0.56397 40.5658 1.62366L37.5025 18.6659H41.4933C42.0979 18.6659 42.7888 18.3843 42.9607 17.3246L46.024 0.282423ZM7.49527 0.0449219C6.76203 0.0449219 6.15835 0.542379 5.98562 1.32052L5.33789 4.86749H11.1631L8.63873 18.6875H13.2765C13.9026 18.6875 14.5927 18.4059 14.7878 17.3462L16.9003 4.88995H21.0855C21.8196 4.88995 22.4233 4.39249 22.5952 3.61435L23.2429 0.0673765H7.49527V0.0449219ZM26.8244 10.5122H31.6349C31.6921 10.2285 31.6854 9.93558 31.6152 9.65475C31.5451 9.37392 31.4134 9.11221 31.2296 8.88862C31.0458 8.66503 30.8145 8.48516 30.5525 8.36207C30.2905 8.23898 30.0045 8.17575 29.715 8.17696C28.1406 8.17696 27.0619 9.04147 26.8244 10.5122ZM26.3287 13.2379C26.0912 14.795 27.1483 15.8547 28.5284 15.8547C29.392 15.8547 30.19 15.4868 30.6857 14.6646H35.7769C34.332 17.9957 30.8585 19.0986 27.7304 19.0986C23.9338 19.0986 21.1296 17.1735 21.1296 13.4106C21.1296 8.04742 25.7025 4.95386 30.0596 4.95386C34.332 4.95386 36.7045 7.48432 36.7045 11.2913C36.7045 11.8958 36.6181 12.5668 36.5101 13.2595H26.3287V13.2379ZM94.5831 11.0313C94.5831 9.92843 94.0226 9.01988 92.7495 9.01988C91.0024 9.01988 89.8589 10.8586 89.8589 13.2595C89.8589 14.3624 90.226 15.27 91.4981 15.27C93.3973 15.2916 94.5831 13.4538 94.5831 11.0313ZM100.861 5.32263L98.4884 18.6875H93.7203L94.0442 16.936H93.9578C92.5768 18.4932 91.0672 19.0986 89.428 19.0986C86.1703 19.0986 84.488 16.892 84.488 13.7785C84.488 9.12783 87.5936 4.95386 91.6277 4.95386C93.2893 4.95386 94.5183 5.49536 95.2092 6.79255H95.2956C95.4683 5.68968 96.1583 5.32177 96.8484 5.32177L100.861 5.32263Z" fill="white"/>
</svg>
